<?xml version="1.0" standalone="no"?>
<!DOCTYPE svg PUBLIC "-//W3C//DTD SVG 1.1//EN" "http://www.w3.org/Graphics/SVG/1.1/DTD/svg11.dtd" >
<svg xmlns="http://www.w3.org/2000/svg" xmlns:xlink="http://www.w3.org/1999/xlink" version="1.1">
<metadata>
Created by FontForge 20201107 at Fri Jun 21 08:03:25 2024
 By 
Copyright (c) 2019 by Jeremy Dooley. All rights reserved.
</metadata>
<defs>
<font id="WinselCondensed-Black" horiz-adv-x="921" >
  <font-face 
    font-family="Winsel Condensed Black"
    font-weight="900"
    font-stretch="normal"
    units-per-em="2048"
    panose-1="1 0 0 0 0 0 0 0 0 0"
    ascent="1536"
    descent="-512"
    x-height="799"
    cap-height="1434"
    bbox="-203 -635 2392 1974"
    underline-thickness="102"
    underline-position="-255"
    unicode-range="U+000D-F739"
  />
<missing-glyph horiz-adv-x="460" 
 />
    <glyph glyph-name=".notdef" horiz-adv-x="460" 
 />
    <glyph glyph-name=".null" horiz-adv-x="0" 
 />
    <glyph glyph-name="nonmarkingreturn" horiz-adv-x="682" 
 />
    <glyph glyph-name="CR" unicode="&#xd;" horiz-adv-x="337" 
 />
    <glyph glyph-name="CR" horiz-adv-x="337" 
 />
    <glyph glyph-name="space" unicode=" " horiz-adv-x="337" 
 />
    <glyph glyph-name="exclam" unicode="!" horiz-adv-x="548" 
d="M418 475h-287q0 258 -1 376t-5.5 267t-16 218t-30.5 98h393q-19 -29 -30.5 -98t-16 -218t-5.5 -267t-1 -376zM449 172q0 -80 -50 -136t-127 -56q-74 0 -124 56.5t-50 135.5q0 81 50 138t124 57q76 0 126.5 -57t50.5 -138z" />
    <glyph glyph-name="quotedbl" unicode="&#x22;" horiz-adv-x="847" 
d="M395 1536l-37 -528h-254l-36 528h327zM782 1536l-37 -528h-253l-37 528h327z" />
    <glyph glyph-name="numbersign" unicode="#" horiz-adv-x="1253" 
d="M1200 811h-227l-55 -242h176v-172h-215l-64 -288h-209l64 288h-207l-64 -288h-211l66 288h-201v172h240l53 242h-196v170h235l74 324h209l-74 -324h207l71 324h211l-73 -324h190v-170zM557 811l-55 -242h207l53 242h-205z" />
    <glyph glyph-name="dollar" unicode="$" horiz-adv-x="942" 
d="M90 4v549q68 -148 166 -235t201 -87q62 0 101.5 32.5t39.5 90.5q0 45 -27.5 85t-71.5 73t-97 67.5t-106 78t-97 94.5t-71.5 126.5t-27.5 165.5q0 195 107 302q66 66 158 92v211h268v-211q29 -7 61 -23q17 -6 36 -16t31.5 -15.5t22.5 -5.5q14 0 27.5 5t22.5 9l8 5v-453
q-27 47 -62 92.5t-78.5 90.5t-93.5 72.5t-96 27.5q-48 0 -81.5 -31.5t-33.5 -89.5q0 -49 27 -90t71 -72.5t96.5 -63.5t105 -73.5t96.5 -92t71 -128t27 -174.5q0 -198 -109 -316q-74 -83 -188 -104v-207h-268v213l-45 12l-72 21q-33 10 -49 10q-19 0 -35 -9.5t-25 -18.5
t-10 -9z" />
    <glyph glyph-name="percent" unicode="%" horiz-adv-x="1675" 
d="M741 1112q0 -163 -100.5 -250.5t-249.5 -87.5q-71 0 -132.5 21t-110 61.5t-76 106.5t-27.5 149q0 164 99 253t247 89q71 0 133.5 -21.5t111 -63t77 -108t28.5 -149.5zM477 1112q0 70 -21 101.5t-63 31.5t-63 -31.5t-21 -101.5t20.5 -100.5t63.5 -30.5t63.5 30.5
t20.5 100.5zM1628 317q0 -163 -99.5 -250t-248.5 -87q-70 0 -131 21t-110 61.5t-77 106t-28 148.5q0 162 100.5 252t245.5 90q95 0 172.5 -37t126.5 -116.5t49 -188.5zM1368 317q0 134 -86 134t-86 -134q0 -131 86 -131t86 131zM696 0h-307l594 1434h309z" />
    <glyph glyph-name="ampersand" unicode="&#x26;" horiz-adv-x="1417" 
d="M950 625q0 54 -10 84t-41 65h377q-7 -13 -12.5 -22.5t-10 -19t-7 -15t-5 -14t-3.5 -12t-2 -13t-1.5 -13.5t-1.5 -16.5t-2 -19.5q-25 -216 -96 -357q213 -188 307 -198q-40 -47 -103.5 -70.5t-124.5 -23.5q-105 0 -245 100q-143 -100 -373 -100q-113 0 -209.5 26
t-171.5 76t-117.5 131t-42.5 184q0 233 238 367q-88 134 -88 299q0 188 101.5 289.5t266.5 101.5q156 0 247 -90t91 -254q0 -129 -59 -216.5t-178 -160.5l31 -33l34 -34l115 -121q35 -40 78 -80q18 85 18 160zM612 203q94 0 162 39q-62 59 -115 114l-129 129
q-23 23 -100 105q-74 -71 -74 -170q0 -102 69 -159.5t187 -57.5zM463 1098q0 -90 84 -211q61 42 90 91t29 114q0 68 -27.5 106.5t-65.5 38.5q-48 0 -79 -33t-31 -106z" />
    <glyph glyph-name="quotesingle" unicode="'" horiz-adv-x="462" 
d="M395 1536l-37 -528h-254l-36 528h327z" />
    <glyph glyph-name="parenleft" unicode="(" horiz-adv-x="704" 
d="M725 1524q-42 -29 -83 -70.5t-89.5 -118.5t-84 -171t-59.5 -235.5t-24 -305.5q0 -166 24.5 -309t60 -237t84 -170.5t89 -116.5t82.5 -69q-23 -2 -49 -2h-27q-54 0 -109.5 14t-113.5 46t-110 80t-99 121t-80.5 163.5t-53.5 213t-20 264.5q0 143 20 266t53.5 214t80.5 164
t99 121t110.5 80t113.5 46t109 14h27q26 0 49 -2z" />
    <glyph glyph-name="parenright" unicode=")" horiz-adv-x="704" 
d="M-20 1524q23 2 49 2h26q54 0 109 -14t113.5 -46t110.5 -80t99 -121t80.5 -164t53.5 -214t20 -266q0 -142 -20 -264.5t-53.5 -213t-80.5 -163.5t-99 -121t-110 -80t-113.5 -46t-109.5 -14h-26q-26 0 -49 2q42 29 82 69t89 116.5t84.5 170.5t59.5 237t24 309
q0 164 -24 305.5t-59.5 235.5t-83.5 171t-89 118.5t-83 70.5z" />
    <glyph glyph-name="asterisk" unicode="*" horiz-adv-x="864" 
d="M137 1317q39 -65 182 -117l25 -10v41q0 159 -49 223h283q-46 -67 -46 -223v-35l15 6q138 52 180 121l88 -285q-65 24 -211 -22l-18 -6l8 -11q33 -50 77.5 -92.5t86.5 -58.5l-236 -176q7 80 -78 211l-6 -9q-82 -126 -82 -212l-229 176q40 16 82.5 59t75.5 92l8 12l-33 13
q-88 30 -149 30q-29 0 -62 -10z" />
    <glyph glyph-name="plus" unicode="+" horiz-adv-x="811" 
d="M752 440h-240v-276h-215v276h-240v224h240v276h215v-276h240v-224z" />
    <glyph glyph-name="comma" unicode="," horiz-adv-x="464" 
d="M395 143q0 -258 -299 -442l-51 94q81 41 121.5 94t40.5 99q0 27 -15 46.5t-37 33.5t-44 29t-37 41.5t-15 62.5q0 68 44.5 117t115.5 49q81 0 128.5 -58.5t47.5 -165.5z" />
    <glyph glyph-name="hyphen" unicode="-" horiz-adv-x="888" 
d="M799 383h-709v223h709v-223z" />
    <glyph glyph-name="period" unicode="." horiz-adv-x="471" 
d="M410 170q0 -77 -50 -133.5t-124 -56.5q-76 0 -125.5 56.5t-49.5 133.5q0 81 49.5 139t125.5 58q74 0 124 -58t50 -139z" />
    <glyph glyph-name="slash" unicode="/" horiz-adv-x="970" 
d="M340 0h-307l594 1434h309z" />
    <glyph glyph-name="zero" unicode="0" horiz-adv-x="1138" 
d="M1065 717q0 -353 -132 -545t-366 -192q-227 0 -359 193.5t-132 543.5t132 543.5t359 193.5q234 0 366 -192t132 -545zM725 717q0 518 -158 518q-153 0 -153 -518t153 -518q158 0 158 518z" />
    <glyph glyph-name="one" unicode="1" horiz-adv-x="696" 
d="M541 1434l-2 -9v-1189q0 -30 1 -47.5t7.5 -45t19.5 -48t38 -46t61 -49.5h-580q36 24 61 49.5t38 46t19.5 48t7.5 45t1 47.5v768q-16 -8 -46.5 -24t-44.5 -23.5t-32.5 -17.5t-26.5 -16.5t-10 -11.5l27 267q2 1 86.5 41.5t177.5 90t156 93.5l39 31v-2z" />
    <glyph glyph-name="two" unicode="2" horiz-adv-x="976" 
d="M809 0h-741l24 219l111 152q201 278 283.5 426t82.5 258q0 147 -118 147q-171 0 -351 -297v455q3 -6 11 -10q12 -9 20 -9q19 0 51 17.5t67 39t102 39t147 17.5q105 0 188.5 -39t135.5 -123.5t52 -204.5q0 -177 -107.5 -357.5t-373.5 -467.5l-16 -16h110q168 0 281.5 22.5
t153.5 59.5z" />
    <glyph glyph-name="three" unicode="3" horiz-adv-x="940" 
d="M346 625q-106 0 -168 -41v293q23 -12 68 -20.5t86 -8.5q190 0 190 196q0 88 -44.5 140.5t-121.5 52.5q-44 0 -82.5 -16t-71 -48t-54 -60.5t-48.5 -70.5v373q1 0 11 -9t28 -9t55.5 14.5t95.5 28.5t124 14q189 0 304.5 -103.5t115.5 -275.5q0 -234 -195 -330
q111 -32 169 -107.5t58 -221.5q0 -206 -123.5 -321t-330.5 -115q-82 0 -168 21.5t-94 21.5q-17 0 -54 -19v426q51 -102 114.5 -156.5t151.5 -54.5q82 0 133.5 50.5t51.5 148.5t-52 152.5t-149 54.5z" />
    <glyph glyph-name="four" unicode="4" horiz-adv-x="1017" 
d="M758 1434v-957q96 19 158.5 53t84.5 68l-102 -371q-79 20 -141 25v-16q0 -56 1.5 -81.5t17.5 -71t50 -83.5h-465q32 38 48 81.5t19 73.5t3 81v20h-416l21 201l555 977h166zM217 465h215v385z" />
    <glyph glyph-name="five" unicode="5" horiz-adv-x="919" 
d="M102 698l105 736h579v-359q-35 57 -85 75.5t-119 18.5h-185l-28 -229q243 0 361 -127.5t118 -349.5q0 -217 -116 -350t-322 -133q-82 0 -177 21.5t-102 21.5q-18 0 -37 -19l-31 426q46 -95 119 -153t156 -58q91 0 140.5 55t49.5 158q0 62 -17 106.5t-61.5 82.5
t-131.5 57.5t-216 19.5z" />
    <glyph glyph-name="six" unicode="6" horiz-adv-x="1032" 
d="M678 1200q-91 0 -162.5 -80t-105.5 -264q78 78 198 78q163 0 255.5 -133t92.5 -348q0 -232 -112 -352.5t-328 -120.5q-226 0 -332 146.5t-106 481.5q0 212 42 375.5t118 265t176.5 153.5t222.5 52q69 0 131 -16l63 -17q14 0 27 16.5t14 16.5l54 -375q-63 64 -120 92.5
t-128 28.5zM520 700q-60 0 -93.5 -54.5t-39.5 -158.5q4 -155 35 -216.5t92 -61.5q139 0 139 244q0 125 -35.5 186t-97.5 61z" />
    <glyph glyph-name="seven" unicode="7" horiz-adv-x="911" 
d="M43 1092l70 370q15 -10 28.5 -15t64 -9t142.5 -4h567l-389 -1198l-20 -74q-10 -42 -10 -74q0 -49 20 -88h-465q3 7 34.5 45.5t75.5 112t83 172.5l327 835h-258q-130 0 -183 -13.5t-87 -59.5z" />
    <glyph glyph-name="eight" unicode="8" horiz-adv-x="1015" 
d="M946 422q0 -203 -121 -324t-315 -121q-197 0 -319.5 120.5t-122.5 322.5q0 135 50 227.5t126 118.5q-119 86 -119 291q0 185 110 291t275 106q162 0 270.5 -106t108.5 -291q0 -205 -119 -291q77 -26 126.5 -117.5t49.5 -226.5zM641 424q0 100 -34.5 161.5t-96.5 61.5
q-65 0 -102 -61.5t-37 -161.5q0 -99 37.5 -157t103.5 -58q62 0 95.5 57.5t33.5 157.5zM403 1055q0 -95 29.5 -140t79.5 -45q44 0 71 45t27 140q0 186 -98 186q-109 0 -109 -186z" />
    <glyph glyph-name="nine" unicode="9" horiz-adv-x="1034" 
d="M356 233q90 0 161.5 80t105.5 262q-78 -75 -197 -75q-163 0 -255.5 133t-92.5 348q0 232 112 352.5t328 120.5q226 0 332 -147t106 -482q0 -212 -42 -375t-118 -265t-176.5 -153.5t-222.5 -51.5q-69 0 -131 16l-63 16q-14 0 -27 -16t-14 -16l-53 374q63 -64 119.5 -92.5
t127.5 -28.5zM514 733q119 0 131 213q-7 157 -36.5 218t-88.5 61q-139 0 -139 -244q0 -125 35.5 -186.5t97.5 -61.5z" />
    <glyph glyph-name="colon" unicode=":" horiz-adv-x="518" 
d="M434 170q0 -77 -50 -133.5t-126 -56.5t-125 56.5t-49 133.5q0 82 49 139.5t125 57.5t126 -58t50 -139zM434 795q0 -77 -50 -134t-126 -57t-125 56.5t-49 134.5q0 81 49 138.5t125 57.5t126 -57.5t50 -138.5z" />
    <glyph glyph-name="semicolon" unicode=";" horiz-adv-x="512" 
d="M440 795q0 -77 -50 -134t-126 -57t-125 56.5t-49 134.5q0 81 49 138.5t125 57.5t126 -57.5t50 -138.5zM410 143q0 -258 -299 -442l-52 94q81 41 121.5 94t40.5 99q0 32 -23 56t-50.5 38t-50.5 44.5t-23 74.5q0 69 44 117.5t115 48.5q81 0 129 -58.5t48 -165.5z" />
    <glyph glyph-name="less" unicode="&#x3c;" horiz-adv-x="757" 
d="M51 457l357 338h299l-332 -338l332 -340h-299z" />
    <glyph glyph-name="equal" unicode="=" horiz-adv-x="958" 
d="M860 485h-762v224h762v-224zM860 176h-762v223h762v-223z" />
    <glyph glyph-name="greater" unicode="&#x3e;" horiz-adv-x="755" 
d="M707 430l-357 -338h-299l332 336l-332 342h299z" />
    <glyph glyph-name="question" unicode="?" horiz-adv-x="878" 
d="M504 449h-262q0 89 17 159.5t44.5 115.5t60 82t65.5 66.5t60.5 59t44.5 70.5t17 92q0 66 -37.5 104.5t-103.5 38.5q-171 0 -342 -272v432q7 0 22.5 -9.5t32.5 -9.5q24 0 67.5 19t108.5 38t141 19q207 0 297 -92.5t90 -274.5q0 -86 -18 -153.5t-46.5 -110t-62.5 -77
t-68.5 -63.5t-63 -59.5t-46.5 -74.5t-18 -100zM553 170q0 -77 -50 -133.5t-126 -56.5q-73 0 -122.5 56.5t-49.5 133.5q0 81 49 139t123 58q76 0 126 -58t50 -139z" />
    <glyph glyph-name="at" unicode="@" horiz-adv-x="1576" 
d="M1548 772q0 -173 -117 -293.5t-282 -120.5q-128 0 -188 84q-63 -84 -189 -84q-64 0 -118.5 19.5t-98.5 59t-69 107.5t-25 158q0 178 91.5 280.5t235.5 102.5q145 0 237.5 -102.5t92.5 -282.5q0 -161 72 -161q96 0 96 233q0 118 -36 209.5t-99 146.5t-143 83t-172 28
q-106 0 -195 -34.5t-156.5 -101t-105 -172t-37.5 -239.5q0 -105 25.5 -190t63.5 -139t92 -94.5t101.5 -60.5t100.5 -31.5t81 -14t52 -2.5q138 0 257.5 30t193.5 93l94 -197q-180 -145 -506 -145q-75 0 -149 8.5t-159 31.5t-159 58.5t-143.5 94.5t-119 135t-79 184t-29.5 237
q0 189 61 337.5t168.5 241.5t248.5 141t307 48q154 0 280.5 -42t222 -124.5t148.5 -215t53 -304.5zM881 725q0 98 -26 148.5t-64 50.5t-65.5 -52.5t-27.5 -150.5q0 -95 25.5 -149t67.5 -54q41 0 65.5 55.5t24.5 151.5z" />
    <glyph glyph-name="A" unicode="A" horiz-adv-x="1347" 
d="M887 0q17 86 -47 287h-412q-35 -106 -49 -171.5t-4 -115.5h-393q42 30 88 111t137 299l444 1038l27 18l446 -1015q97 -225 150.5 -323t103.5 -128h-491zM625 887l-129 -395h270z" />
    <glyph glyph-name="B" unicode="B" horiz-adv-x="1171" 
d="M76 0q34 37 50.5 81.5t18.5 72.5t2 82v962q0 54 -2 82t-18.5 72.5t-50.5 81.5h399q263 0 384.5 -88.5t121.5 -282.5q0 -172 -154 -254q151 -41 218 -135.5t67 -255.5q0 -199 -140.5 -308.5t-416.5 -109.5h-479zM774 418q0 133 -63.5 190.5t-196.5 57.5h-41v-471h41
q260 0 260 223zM473 854h47q73 0 117.5 47t44.5 141q0 101 -45 148t-123 47h-20q-15 0 -21 -2v-381z" />
    <glyph glyph-name="C" unicode="C" horiz-adv-x="1234" 
d="M756 1196q-161 0 -250.5 -123t-89.5 -348q0 -237 100 -361t299 -124q217 0 377 137l-74 -316q-51 -36 -143.5 -58.5t-206.5 -22.5q-116 0 -218 26t-190.5 83.5t-152 142.5t-99.5 209.5t-36 277.5q0 152 36 277t97.5 208.5t145 141t176 83t192.5 25.5q89 0 167 -20
t124 -40t59 -20q39 0 59 33v-455q-77 119 -166 181.5t-206 62.5z" />
    <glyph glyph-name="D" unicode="D" horiz-adv-x="1388" 
d="M147 1198q0 54 -2 82t-18.5 72.5t-50.5 81.5h426q143 0 265.5 -27t224.5 -84.5t174.5 -142t112.5 -205.5t40 -270q0 -174 -57 -307.5t-162 -217.5t-244 -129t-311 -51h-469q34 37 50.5 81.5t18.5 72.5t2 82v962zM473 195h23q76 0 144 16.5t130 55t106.5 96t70.5 145
t26 197.5q0 114 -26.5 205.5t-71 152t-105.5 101t-126.5 58t-137.5 17.5h-33v-1044z" />
    <glyph glyph-name="E" unicode="E" horiz-adv-x="1032" 
d="M76 0q34 37 50.5 81.5t18.5 72.5t2 82v962q0 54 -2 82t-18.5 72.5t-50.5 81.5h770v-299q-20 30 -47.5 50t-61.5 29t-63 12t-66 3h-135v-359h135q147 0 238 60v-344q-89 59 -238 59h-135v-409h86q392 0 463 92l-145 -328h-801z" />
    <glyph glyph-name="F" unicode="F" horiz-adv-x="913" 
d="M571 645h-98v-409q0 -53 2.5 -81.5t19.5 -73t52 -81.5h-471q34 37 50.5 81.5t18.5 72.5t2 82v962q0 54 -2 82t-18.5 72.5t-50.5 81.5h770v-299q-20 30 -47.5 50t-61.5 29t-63 12t-66 3h-135v-359h98q147 0 238 60v-344q-89 59 -238 59z" />
    <glyph glyph-name="G" unicode="G" horiz-adv-x="1292" 
d="M1171 385v-362q-189 -41 -360 -41q-339 0 -540 194.5t-201 540.5q0 174 53 315t144.5 232.5t213.5 140.5t262 49q69 0 133 -12.5t100.5 -27.5t69 -27.5t46.5 -12.5q20 0 40 15.5t21 15.5v-455q-90 134 -182 190t-201 56q-173 0 -264.5 -123.5t-91.5 -353.5
q0 -477 399 -477q27 0 33 2v141q0 53 -2.5 82.5t-19 75t-50.5 82.5h471q-35 -37 -52 -82.5t-19.5 -75t-2.5 -82.5z" />
    <glyph glyph-name="H" unicode="H" horiz-adv-x="1404" 
d="M860 0q34 37 50.5 81.5t19 73t2.5 81.5v370h-459v-370q0 -53 2.5 -81.5t19.5 -73t52 -81.5h-471q34 37 50.5 81.5t18.5 72.5t2 82v962q0 54 -2 82t-18.5 72.5t-50.5 81.5h471q-35 -37 -52 -81.5t-19.5 -73t-2.5 -81.5v-367h459v367q0 53 -2.5 81.5t-19 73t-50.5 81.5h469
q-34 -37 -50.5 -81.5t-19 -73t-2.5 -81.5v-962q0 -53 2.5 -81.5t19 -73t50.5 -81.5h-469z" />
    <glyph glyph-name="I" unicode="I" horiz-adv-x="622" 
d="M473 1198v-962q0 -53 2.5 -81.5t19.5 -73t52 -81.5h-471q34 37 50.5 81.5t18.5 72.5t2 82v962q0 54 -2 82t-18.5 72.5t-50.5 81.5h471q-35 -37 -52 -81.5t-19.5 -73t-2.5 -81.5z" />
    <glyph glyph-name="J" unicode="J" horiz-adv-x="942" 
d="M811 1198v-649q0 -151 -38.5 -263.5t-107.5 -178t-157.5 -96.5t-196.5 -31q-65 0 -117.5 10.5t-79.5 21.5t-30 11q-8 0 -19.5 -16.5t-13.5 -16.5v497q50 -153 99.5 -210.5t132.5 -57.5q34 0 62 8.5t54 31.5t44 59.5t29 96t11 138.5v645q0 54 -2 82t-18.5 72.5t-50.5 81.5
h471q-34 -37 -50.5 -81.5t-19 -73t-2.5 -81.5z" />
    <glyph glyph-name="K" unicode="K" horiz-adv-x="1472" 
d="M473 1198v-328q146 47 272 238l39 57q71 103 88 172q13 52 0 97h416q-36 -23 -69 -55t-65.5 -75t-53 -71.5t-54.5 -82.5t-45 -71l-47 -69q-127 -182 -282 -244q130 -48 237.5 -147.5t237.5 -272.5q122 -162 203 -217t180 -55q-74 -47 -160.5 -70.5t-159.5 -23.5
q-115 0 -225 79.5t-244 276.5l-88 129q-35 49 -56 75t-55 54.5t-69 40.5v-399q0 -53 2.5 -81.5t19.5 -73t52 -81.5h-471q34 37 50.5 81.5t18.5 72.5t2 82v962q0 54 -2 82t-18.5 72.5t-50.5 81.5h471q-35 -37 -52 -81.5t-19.5 -73t-2.5 -81.5z" />
    <glyph glyph-name="L" unicode="L" horiz-adv-x="1013" 
d="M473 1198v-962h86q392 0 463 92l-145 -328h-801q34 37 50.5 81.5t18.5 72.5t2 82v962q0 54 -2 82t-18.5 72.5t-50.5 81.5h471q-35 -37 -52 -81.5t-19.5 -73t-2.5 -81.5z" />
    <glyph glyph-name="M" unicode="M" horiz-adv-x="1570" 
d="M741 2l-335 815v-581q0 -54 2 -82t18.5 -72.5t50.5 -81.5h-403q35 37 52 81.5t19 72.5t2 82v962q0 54 -2 82t-19 72.5t-52 81.5h395l338 -816l321 816h367q-26 -29 -41 -58t-21 -63.5t-7 -54t-1 -60.5v-962q0 -41 1 -60.5t7 -54t21 -63.5t41 -58h-436q34 37 50.5 81.5
t18.5 72.5t2 82v620l-360 -876z" />
    <glyph glyph-name="N" unicode="N" horiz-adv-x="1327" 
d="M1163 -20l-766 987v-731q0 -41 1 -60.5t7 -54t21 -63.5t41 -58h-389q32 37 48 81t18.5 73.5t2.5 81.5v962q0 50 -2.5 79.5t-18.5 74.5t-48 82h360l496 -656v420q0 53 -2.5 81.5t-19 73t-50.5 81.5h393q-35 -37 -52 -81.5t-19 -72.5t-2 -82v-1200z" />
    <glyph glyph-name="O" unicode="O" horiz-adv-x="1470" 
d="M1403 717q0 -175 -50.5 -315.5t-140.5 -232.5t-211.5 -140.5t-265.5 -48.5q-142 0 -263 48.5t-210.5 140t-140.5 232.5t-51 316t51 316t140.5 232.5t210.5 140t263 48.5q144 0 265.5 -48.5t211.5 -140.5t140.5 -232.5t50.5 -315.5zM1057 717q0 232 -86.5 360.5
t-235.5 128.5q-148 0 -234.5 -128.5t-86.5 -360.5t86.5 -362t234.5 -130q149 0 235.5 129.5t86.5 362.5z" />
    <glyph glyph-name="P" unicode="P" horiz-adv-x="1091" 
d="M76 0q34 37 50.5 81.5t18.5 72.5t2 82v962q0 54 -2 82t-18.5 72.5t-50.5 81.5h401q278 0 427 -121t149 -334q0 -211 -148.5 -323t-431.5 -117v-303q0 -53 2.5 -81.5t19.5 -73t52 -81.5h-471zM473 748h27q107 0 166 58.5t59 174.5q0 117 -55 182.5t-158 65.5q-33 0 -39 -2
v-479z" />
    <glyph glyph-name="Q" unicode="Q" horiz-adv-x="1470" 
d="M1403 717q0 -350 -193 -549q-69 -71 -159 -119q129 -149 280.5 -206.5t366.5 -57.5q-89 -115 -180 -165t-195 -50q-70 0 -144.5 20.5t-151.5 62t-152 112t-136 163.5l-37 52q-121 6 -231 47q-185 75 -293 252t-108 438q0 175 51 316t140.5 232.5t210.5 140t263 48.5
q144 0 265.5 -48.5t211.5 -140.5t140.5 -232.5t50.5 -315.5zM1057 717q0 232 -86.5 360.5t-235.5 128.5q-148 0 -234.5 -128.5t-86.5 -360.5t86.5 -362t234.5 -130q149 0 235.5 129.5t86.5 362.5z" />
    <glyph glyph-name="R" unicode="R" horiz-adv-x="1347" 
d="M1118 -20q-91 0 -166.5 67t-175.5 236l-37 59q-68 117 -133 179.5t-117 62.5h-16v-348q0 -53 2.5 -81.5t19.5 -73t52 -81.5h-471q34 37 50.5 81.5t18.5 72.5t2 82v962q0 54 -2 82t-18.5 72.5t-50.5 81.5h426q253 0 397.5 -115t144.5 -301q0 -262 -266 -348
q81 -32 189.5 -141.5t195.5 -245.5q66 -101 135.5 -155t128.5 -54q-72 -47 -158.5 -70.5t-150.5 -23.5zM473 791q12 -3 25 -3h24q97 0 146 55t49 156q0 209 -195 209q-21 0 -49 -4v-413z" />
    <glyph glyph-name="S" unicode="S" horiz-adv-x="974" 
d="M96 4v549q68 -148 166 -235t201 -87q62 0 101.5 32.5t39.5 90.5q0 45 -27.5 85t-71.5 73t-97 67.5t-106 78t-97 94.5t-71.5 126.5t-27.5 165.5q0 194 106.5 302t293.5 108q63 0 116 -12t80.5 -26t51.5 -26t37 -12q14 0 27.5 5t21.5 9l8 5v-453q-27 47 -62 92.5
t-78.5 90.5t-93.5 72.5t-96 27.5q-48 0 -81.5 -31.5t-33.5 -89.5q0 -49 27 -90t71 -72.5t96.5 -63.5t105 -73.5t96.5 -92t71 -128t27 -174.5q0 -199 -108.5 -315.5t-299.5 -116.5q-99 0 -202 30l-72 21q-33 10 -49 10q-19 0 -35 -9.5t-25 -18.5t-10 -9z" />
    <glyph glyph-name="T" unicode="T" horiz-adv-x="1079" 
d="M1004 1462l63 -344q-12 26 -101 48t-192 22h-49v-952q0 -53 2.5 -81.5t19 -73t50.5 -81.5h-469q34 37 50.5 81.5t18.5 72.5t2 82v952h-28q-147 0 -248.5 -21.5t-114.5 -48.5l66 344q82 -28 299 -28h399q138 0 232 28z" />
    <glyph glyph-name="U" unicode="U" horiz-adv-x="1288" 
d="M1155 1198v-717q0 -122 -43.5 -220t-116.5 -158t-163.5 -91.5t-190.5 -31.5q-108 0 -199.5 31.5t-160.5 92t-107.5 157t-38.5 220.5v717q0 53 -2.5 81.5t-19 73t-50.5 81.5h472q-35 -37 -52 -81.5t-19.5 -73t-2.5 -81.5v-696q0 -260 184 -260t184 260v696q0 54 -2 82
t-18.5 72.5t-50.5 81.5h469q-34 -37 -50.5 -81.5t-19 -73t-2.5 -81.5z" />
    <glyph glyph-name="V" unicode="V" horiz-adv-x="1320" 
d="M645 0l-452 1038q-11 24 -34 75.5t-30.5 69t-25 55.5t-26 52.5t-23 40.5t-25 40t-25 31t-29.5 32h467q-4 -20 -4 -33v-33q0 -42 10.5 -83t40.5 -114l222 -559l229 566q33 79 33 153q0 51 -27 103h393q-23 -21 -43 -47.5t-40 -65t-32.5 -65.5t-35.5 -81.5t-35 -80.5
l-485 -1114z" />
    <glyph glyph-name="W" unicode="W" horiz-adv-x="1873" 
d="M623 0l-500 1184q-35 87 -68 142.5t-78 107.5h472q-7 -35 -7 -62q0 -83 33 -162l219 -585l131 344l-90 215q-8 19 -25.5 62.5t-24.5 59t-21 43.5t-26.5 47t-29.5 38h451q-8 -31 -8 -62q0 -87 34 -162l207 -546l199 512q33 79 33 161q0 42 -25 97h395
q-55 -48 -93.5 -122.5t-74.5 -174.5l-471 -1157l-22 20l-295 700l-295 -720z" />
    <glyph glyph-name="X" unicode="X" horiz-adv-x="1306" 
d="M594 1200l106 -196l121 194q64 107 64 166q0 34 -19 70h443q-46 -27 -81.5 -56.5t-63 -64t-41.5 -56t-36 -59.5l-260 -426l207 -379q104 -192 157.5 -264t145.5 -129h-551q21 34 21 74q0 61 -57 162l-146 262l-147 -262q-62 -110 -62 -168q0 -34 17 -68h-441
q61 38 107 82t67.5 74.5t49.5 79.5l282 491l-180 332q-99 178 -156.5 251t-140.5 124h553q-21 -34 -21 -72q0 -26 11 -57t19.5 -48t31.5 -57z" />
    <glyph glyph-name="Y" unicode="Y" horiz-adv-x="1226" 
d="M1006 1102l-220 -471v-395q0 -53 2.5 -81.5t19 -73t50.5 -81.5h-469q34 37 50.5 81.5t19 73t2.5 81.5v335l-238 488q-14 29 -37.5 80.5t-33.5 71.5t-28 55.5t-29.5 52t-29.5 40.5t-36.5 41t-42.5 34h491q-12 -30 -12 -64q0 -71 53 -172l146 -307l124 268q50 102 50 193
q0 48 -15 82h396q-61 -46 -96.5 -104t-104.5 -203q-8 -16 -12 -25z" />
    <glyph glyph-name="Z" unicode="Z" horiz-adv-x="1054" 
d="M76 1434h878l-479 -1186h129q57 0 88 1t86.5 7t94 17.5t86 35.5t88.5 58l-134 -367h-538v-2l-346 2l495 1229h-235q-46 0 -73.5 -4t-66.5 -27.5t-73 -69.5v306z" />
    <glyph glyph-name="bracketleft" unicode="[" horiz-adv-x="731" 
d="M123 -430v1864h567v-236q-55 31 -201 31h-51q2 -29 2 -88v-1278q0 -59 -2 -88h51q154 0 201 30v-235h-567z" />
    <glyph glyph-name="backslash" unicode="\" horiz-adv-x="970" 
d="M938 0h-307l-596 1434h309z" />
    <glyph glyph-name="bracketright" unicode="]" horiz-adv-x="733" 
d="M610 1434v-1864h-567v235q47 -30 201 -30h51q-2 29 -2 88v1278q0 59 2 88h-51q-146 0 -201 -31v236h567z" />
    <glyph glyph-name="asciicircum" unicode="^" horiz-adv-x="1243" 
d="M610 1544l289 -473q26 -42 62.5 -102.5t52 -86t41.5 -63t44.5 -57.5t45.5 -43t59 -43h-551q21 34 21 74q0 26 -10 56t-19.5 49t-30.5 56l-47 95l-45 -95q-23 -41 -32 -59.5t-20 -51t-11 -59.5q0 -31 18 -65h-442q61 38 106.5 81.5t67 74t49.5 79.5z" />
    <glyph glyph-name="underscore" unicode="_" horiz-adv-x="1079" 
d="M1010 -246h-940v226h940v-226z" />
    <glyph glyph-name="grave" unicode="`" horiz-adv-x="1536" 
d="M762 979l-471 197l121 221l415 -303z" />
    <glyph glyph-name="a" unicode="a" horiz-adv-x="905" 
d="M795 236q0 -39 1.5 -60.5t9.5 -55t27.5 -62.5t51.5 -58h-355l-26 80q-51 -100 -211 -100q-119 0 -178.5 52.5t-59.5 143.5q0 58 24 103.5t63 73t85.5 49t93.5 37t86 31.5t63 38.5t24 52.5q0 66 -76 66q-71 0 -156.5 -50.5t-134.5 -105.5v338q15 -31 39 -31q3 0 94.5 20.5
t175.5 20.5q188 0 273.5 -85t85.5 -245v-253zM424 156q27 0 46.5 27t23.5 83v103q-19 -19 -56 -43.5t-55 -46t-18 -54.5t17 -51t42 -18z" />
    <glyph glyph-name="b" unicode="b" horiz-adv-x="964" 
d="M606 -20q-77 0 -132 31t-99 91l-47 -102h-295q34 37 50.5 81.5t18.5 72.5t2 82v843q0 41 -1.5 61.5t-8 54.5t-23.5 62.5t-46 57.5l381 108v-690q73 86 200 86q140 0 222.5 -108t82.5 -308v-12q0 -199 -82.5 -305t-222.5 -106zM485 604q-37 0 -79 -31v-350q33 -28 79 -28
q105 0 105 194v17q0 198 -105 198z" />
    <glyph glyph-name="c" unicode="c" horiz-adv-x="747" 
d="M500 616q-61 0 -94 -54.5t-33 -153.5q0 -209 166 -209q85 0 176 39l-64 -228q-66 -30 -182 -30q-202 0 -309 108t-107 307q0 200 105 312t286 112q52 0 89 -9.5t56 -18.5t29 -9q16 0 30 14l14 13v-317q-66 124 -162 124z" />
    <glyph glyph-name="d" unicode="d" horiz-adv-x="962" 
d="M866 1423v-1187q0 -41 1 -60.5t7 -54t21 -63.5t41 -58h-336l-20 90q-83 -110 -220 -110q-142 0 -223.5 107t-81.5 308v13q0 200 81.5 305.5t223.5 105.5q124 0 203 -92l2 201q0 172 -19 257t-61 130zM479 195q46 0 84 32v344q-39 33 -84 33q-104 0 -104 -194v-17
q0 -198 104 -198z" />
    <glyph glyph-name="e" unicode="e" horiz-adv-x="864" 
d="M801 350h-426q8 -82 53.5 -128t144.5 -46q114 0 236 39l-64 -205q-82 -30 -296 -30q-184 0 -290 107.5t-106 307.5q0 201 108 312.5t290 111.5q171 0 262.5 -97.5t91.5 -272.5zM444 641q-62 0 -71 -147h149q0 60 -19.5 103.5t-58.5 43.5z" />
    <glyph glyph-name="f" unicode="f" horiz-adv-x="671" 
d="M37 618v181h106v278q0 99 28.5 174.5t76.5 118t105.5 63.5t121.5 21q39 0 69.5 -7t44.5 -15.5t27 -15.5t21 -7q14 0 27 13.5t14 13.5v-326q-44 64 -75.5 90.5t-70.5 26.5q-88 0 -88 -160v-268h201v-181h-201v-382q0 -53 2.5 -81.5t19 -73t50.5 -81.5h-444
q34 37 50.5 81.5t18.5 72.5t2 82v382h-106z" />
    <glyph glyph-name="g" unicode="g" horiz-adv-x="942" 
d="M823 498q0 -158 -95 -237t-277 -79q-45 0 -61.5 -5.5t-16.5 -22.5q0 -27 31 -35t102 -10q135 -9 188 -19q269 -52 269 -280q0 -153 -120.5 -239.5t-359.5 -86.5q-212 0 -318 65.5t-106 190.5q0 114 99 186q-58 45 -58 119q0 115 156 168q-180 74 -180 287
q0 158 96.5 238.5t278.5 80.5q88 0 155 -20h318v-187h-117q16 -59 16 -114zM475 -152q-71 5 -94 9q-40 -22 -63 -46t-23 -61q0 -49 41 -73.5t149 -24.5q87 0 136 13.5t64 33t15 51.5q0 41 -49.5 66t-175.5 32zM555 500q0 88 -28.5 131t-77.5 43t-77 -43.5t-28 -132.5
q0 -88 28 -131t77 -43t77.5 43.5t28.5 132.5z" />
    <glyph glyph-name="h" unicode="h" horiz-adv-x="978" 
d="M406 236q0 -54 2 -82t18.5 -72.5t50.5 -81.5h-444q34 37 50.5 81.5t18.5 72.5t2 82v843q0 41 -1.5 61.5t-8 54.5t-23.5 62.5t-46 57.5l381 108v-747q89 85 143.5 114t112.5 29q50 0 88 -16t70 -54t48.5 -108.5t16.5 -171.5v-254q0 -67 13 -116.5t58 -98.5h-446
q34 37 50.5 81.5t19 73t2.5 81.5v235q0 133 -74 133q-44 0 -92 -59l-10 -15v-294z" />
    <glyph glyph-name="i" unicode="i" horiz-adv-x="520" 
d="M416 236q0 -54 2 -82t18.5 -72.5t50.5 -81.5h-444q34 37 50.5 81.5t19 73t2.5 81.5v327q0 38 -1.5 59.5t-9.5 55t-27.5 63t-51.5 58.5h391v-563zM436 1169q0 -79 -49.5 -134.5t-126.5 -55.5q-74 0 -123 55.5t-49 134.5q0 81 49 139t123 58q76 0 126 -58t50 -139z" />
    <glyph glyph-name="j" unicode="j" horiz-adv-x="497" 
d="M408 -74q0 -182 -79.5 -279.5t-215.5 -97.5q-54 0 -114.5 17.5t-64.5 17.5q-21 0 -24 -16v344q26 -67 59.5 -111.5t67.5 -44.5q25 0 48.5 29t23.5 94v684q0 38 -2 60t-10 55t-28 62.5t-53 58.5h392v-873zM428 1169q0 -79 -49.5 -134.5t-126.5 -55.5q-76 0 -125 55
t-49 135q0 82 49 139.5t125 57.5t126 -58t50 -139z" />
    <glyph glyph-name="k" unicode="k" horiz-adv-x="987" 
d="M406 236q0 -54 2 -82t18.5 -72.5t50.5 -81.5h-444q34 37 50.5 81.5t18.5 72.5t2 82v843q0 41 -1.5 61.5t-8 54.5t-23.5 62.5t-46 57.5l381 108v-927l57 67q110 136 112 236h357q-103 -56 -171.5 -112.5t-125.5 -123.5l-10 -12l206 -315q115 -178 193 -236h-412l-186 324
l-20 -25v-63z" />
    <glyph glyph-name="l" unicode="l" horiz-adv-x="509" 
d="M406 236q0 -54 2 -82t18.5 -72.5t50.5 -81.5h-444q34 37 50.5 81.5t18.5 72.5t2 82v843q0 41 -1.5 61.5t-8 54.5t-23.5 62.5t-46 57.5l381 108v-1187z" />
    <glyph glyph-name="m" unicode="m" horiz-adv-x="1468" 
d="M115 563q0 38 -1.5 59.5t-9.5 55t-27.5 63t-51.5 58.5h391v-123q89 85 143.5 114t114.5 29q152 0 198 -164q102 98 161 131t120 33q49 0 87 -16t69.5 -54t48 -108.5t16.5 -171.5v-233q0 -53 2.5 -81.5t19 -73t50.5 -81.5h-445q34 37 50.5 81.5t19 73t2.5 81.5v235
q0 131 -74 131q-27 0 -48 -14t-48 -43l-10 -17q0 -8 1 -27.5t1 -31.5v-254q0 -66 14 -116t60 -99h-447q34 37 50.5 81.5t19 73t2.5 81.5v235q0 131 -74 131q-53 0 -94 -57l-10 -17v-292q0 -54 2 -82t18.5 -72.5t50.5 -81.5h-444q34 37 50.5 81.5t19 73t2.5 81.5v327z" />
    <glyph glyph-name="n" unicode="n" horiz-adv-x="987" 
d="M416 236q0 -54 2 -82t18.5 -72.5t50.5 -81.5h-444q34 37 50.5 81.5t19 73t2.5 81.5v327q0 38 -1.5 59.5t-9.5 55t-27.5 63t-51.5 58.5h391v-121q87 83 142 112t112 29q50 0 88 -16t70 -54t48.5 -108.5t16.5 -171.5v-254q0 -66 13.5 -116t58.5 -99h-445q45 49 58.5 99
t13.5 116v256q0 133 -74 133q-52 0 -94 -59l-8 -13v-296z" />
    <glyph glyph-name="o" unicode="o" 
d="M866 397q0 -109 -31 -191t-87 -130.5t-128.5 -72t-160.5 -23.5t-160 23.5t-127.5 72.5t-86 130.5t-30.5 190.5q0 215 110.5 318.5t293.5 103.5q88 0 160.5 -24t128.5 -73.5t87 -132t31 -192.5zM573 397q0 110 -29 167t-83 57q-52 0 -82.5 -58t-30.5 -166t30.5 -165.5
t82.5 -57.5q54 0 83 56.5t29 166.5z" />
    <glyph glyph-name="p" unicode="p" horiz-adv-x="983" 
d="M403 -195q0 -53 2.5 -81.5t19 -72.5t50.5 -81h-444q34 37 50.5 81.5t18.5 72t2 81.5v758q0 38 -1.5 59.5t-9.5 55t-27.5 63t-51.5 58.5h391v-90q85 110 220 110q142 0 223.5 -107.5t81.5 -308.5v-12q0 -200 -81.5 -305.5t-223.5 -105.5q-138 0 -220 110v-285zM403 240
q45 -45 101 -45q104 0 104 194v17q0 91 -25.5 144.5t-78.5 53.5q-56 0 -101 -45v-319z" />
    <glyph glyph-name="q" unicode="q" horiz-adv-x="985" 
d="M885 -195q0 -54 2 -81.5t18.5 -72t50.5 -81.5h-444q34 37 50.5 81t19 72.5t2.5 81.5v289q-43 -57 -96 -85.5t-128 -28.5q-142 0 -223.5 105.5t-81.5 305.5v12q0 201 81.5 308.5t223.5 107.5q135 0 224 -117v97h391q-32 -29 -51.5 -58.5t-27.5 -63t-9.5 -55t-1.5 -59.5
v-758zM479 195q50 0 105 49v309q-51 51 -105 51q-104 0 -104 -198v-17q0 -194 104 -194z" />
    <glyph glyph-name="r" unicode="r" horiz-adv-x="765" 
d="M416 236q0 -54 2 -82t18.5 -72.5t50.5 -81.5h-444q34 37 50.5 81.5t19 73t2.5 81.5v327q0 38 -1.5 59.5t-9.5 55t-27.5 63t-51.5 58.5h391v-158q87 106 150 142t153 36v-354q-37 37 -95 67.5t-102 30.5q-47 -3 -73 -37l-33 -37v-253z" />
    <glyph glyph-name="s" unicode="s" horiz-adv-x="759" 
d="M68 -4v348q54 -75 148 -136t157 -61q45 0 45 41q0 26 -25 49t-62.5 40t-81.5 43t-81.5 55t-62.5 79.5t-25 114.5q0 115 78.5 182.5t232.5 67.5q73 0 140 -17.5t77 -17.5q17 0 28 7t17 14.5t9 7.5v-317q-48 58 -125 106.5t-129 48.5q-22 0 -29.5 -9t-7.5 -28
q0 -20 18.5 -37.5t48.5 -32.5t66 -32t72 -41.5t66 -55t48.5 -78.5t18.5 -106q0 -127 -90 -189t-232 -62q-83 0 -163 22.5t-95 22.5q-26 0 -43 -14.5t-18 -14.5z" />
    <glyph glyph-name="t" unicode="t" horiz-adv-x="622" 
d="M43 618v140l102 43l195 237h70v-239h161v-181h-161v-323q0 -71 20 -95t70 -24q47 0 92 19l-45 -187q-52 -28 -152 -28q-284 0 -284 290v348h-68z" />
    <glyph glyph-name="u" unicode="u" horiz-adv-x="1005" 
d="M408 328q0 -133 73 -133q47 0 92 59l23 29v280q0 38 -1.5 59.5t-9.5 55t-27.5 63t-51.5 58.5h389v-563q0 -39 1.5 -60.5t9.5 -55t27.5 -62.5t51.5 -58h-352l-37 109v24q-96 -92 -152 -122.5t-116 -30.5q-49 0 -87 16t-69.5 54t-48.5 108.5t-17 171.5v233q0 38 -1.5 59.5
t-9.5 55t-27.5 63t-51.5 58.5h392v-471z" />
    <glyph glyph-name="v" unicode="v" horiz-adv-x="897" 
d="M440 0l-243 467q-14 25 -39.5 74t-36 68t-30 52.5t-32.5 52t-31.5 41.5t-39.5 44h418q-11 -26 -11 -58q0 -66 54 -180l49 -121l53 123q33 73 33 139q0 48 -19 97h346q-58 -51 -101.5 -119t-94.5 -178l-248 -522z" />
    <glyph glyph-name="w" unicode="w" horiz-adv-x="1388" 
d="M956 -20l-247 501l-275 -501l-287 587q-24 50 -41.5 81t-48.5 73.5t-69 77.5h422q-11 -25 -11 -58q0 -16 2.5 -31.5t9.5 -36.5l10.5 -31.5t15 -39t14.5 -35.5l57 -151l119 229q-49 87 -79 120q-16 18 -34 34h422q-14 -28 -14 -70q0 -59 47 -162l45 -104l43 104
q39 85 39 160q0 26 -11 72h320q-103 -85 -172 -232z" />
    <glyph glyph-name="x" unicode="x" horiz-adv-x="950" 
d="M242 270l92 113l-113 180q-64 99 -101 141q-47 52 -108 95h471q-17 -77 43 -185q86 114 76 185h322q-46 -37 -73 -61t-87 -89t-152 -174l158 -239q1 -2 14 -22t15 -23.5t14.5 -22t17.5 -25t17.5 -23t20.5 -24.5t22 -23t26 -25.5t27.5 -23t32.5 -24.5h-471
q9 54 -11.5 107.5t-66.5 128.5l-2 2l-20 -25q-9 -12 -37 -46.5t-40 -52t-23 -50t-7 -64.5h-324q75 55 113.5 93.5t153.5 176.5z" />
    <glyph glyph-name="y" unicode="y" horiz-adv-x="1005" 
d="M72 -164q104 0 183 64t146 182l-200 383q-19 36 -50 95.5t-43 82t-33.5 57t-40.5 56t-44 43.5h444q-8 -21 -8.5 -46.5t3 -46t13.5 -49.5t17.5 -46.5t21.5 -47.5l74 -168l80 168q33 71 33 146q0 37 -17 90h371q-42 -36 -78.5 -86t-55.5 -84.5t-67 -128.5l-196 -400
q-65 -130 -124.5 -224.5t-111 -153t-104.5 -93t-99.5 -47t-101.5 -12.5q-42 0 -96 14v266q41 -14 84 -14z" />
    <glyph glyph-name="z" unicode="z" horiz-adv-x="847" 
d="M831 799l-6 -4l-364 -621h119q35 0 55 2t50 11t56 30.5t52 56.5l-37 -274h-748l8 4l373 621h-113q-46 0 -73.5 -4t-66.5 -27.5t-73 -69.5l39 275h729z" />
    <glyph glyph-name="braceleft" unicode="{" horiz-adv-x="673" 
d="M23 494q22 16 44 41t49.5 67.5t44.5 107.5t17 140v70q0 81 6 144.5t20.5 114.5t33 88t50 66t63.5 48t82 34.5t98.5 25t117.5 19.5q-60 -36 -98.5 -171.5t-38.5 -289.5v-71q0 -182 -66 -288.5t-188 -139.5q118 -39 186 -155.5t68 -285.5v-67q0 -198 36 -306t101 -159
q-86 10 -146 23.5t-117 39t-93 63.5t-64 95t-40.5 136.5t-12.5 185.5v69q0 147 -31 218t-122 137z" />
    <glyph glyph-name="bar" unicode="|" horiz-adv-x="591" 
d="M459 1403v-1598q0 -54 2 -81.5t19 -72t52 -81.5h-471q34 37 50.5 81t19 72.5t2.5 81.5v1598q0 53 -2.5 81.5t-19 72.5t-50.5 81h471q-35 -37 -52 -81.5t-19 -72t-2 -81.5z" />
    <glyph glyph-name="braceright" unicode="}" horiz-adv-x="669" 
d="M649 494q-91 -66 -122 -137t-31 -218v-69q0 -106 -12.5 -185.5t-40.5 -136.5t-64 -95t-93 -63.5t-117 -39t-146 -23.5q65 51 101 159t36 306v67q0 169 68 285.5t186 155.5q-122 33 -188 139.5t-66 288.5v71q0 154 -38.5 289.5t-98.5 171.5q69 -10 117.5 -19.5t98.5 -25
t82 -34.5t63.5 -48t50 -66t33 -88t20.5 -114.5t6 -144.5v-70q0 -75 17 -140t44.5 -107.5t49.5 -67.5t44 -41z" />
    <glyph glyph-name="asciitilde" unicode="~" horiz-adv-x="1062" 
d="M330 670q63 0 128.5 -25t110 -55t93 -55t81.5 -25q37 0 52.5 33.5t15.5 126.5h166q0 -220 -49.5 -308t-177.5 -88q-68 0 -133.5 24.5t-108 54.5t-91 54.5t-85.5 24.5q-42 0 -59 -34.5t-17 -125.5h-166q0 214 59 306t181 92z" />
    <glyph glyph-name="nonbreakingspace" unicode="&#xa0;" horiz-adv-x="337" 
 />
    <glyph glyph-name="exclamdown" unicode="&#xa1;" horiz-adv-x="546" 
d="M129 528h287q0 -258 1 -376t5.5 -266.5t16 -217.5t30.5 -98h-393q19 29 30.5 98t16 217.5t5.5 266.5t1 376zM98 831q0 80 50 136.5t126 56.5q74 0 124.5 -57t50.5 -136q0 -80 -50.5 -137t-124.5 -57q-75 0 -125.5 56.5t-50.5 137.5z" />
    <glyph glyph-name="cent" unicode="&#xa2;" horiz-adv-x="747" 
d="M545 -170h-228v168q-98 28 -157 90q-107 107 -107 307q0 201 105 312q63 68 159 96v190h228v-186l20 -6q9 -3 27 -11t26 -8q16 0 30 14l14 13v-317q-66 124 -162 124q-61 0 -94 -54.5t-33 -153.5q0 -209 166 -209q85 0 176 39l-64 -228q-41 -18 -92 -24q-10 0 -14 -2
v-154z" />
    <glyph glyph-name="sterling" unicode="&#xa3;" horiz-adv-x="1081" 
d="M891 0h-844q98 102 141 200t43 206q0 62 -16 137h-158v223h93q-41 143 -41 262q0 204 98.5 315t304.5 111q80 0 146 -19t108.5 -38t64.5 -19q18 0 35.5 9.5t24.5 9.5v-432q-162 272 -342 272q-73 0 -117.5 -53t-44.5 -144q0 -39 10.5 -91t20.5 -84.5t31 -98.5h262v-223
h-207q6 -38 6 -74q0 -118 -66 -219h76q205 0 344 22.5t174 67.5z" />
    <glyph glyph-name="currency" unicode="&#xa4;" horiz-adv-x="1089" 
d="M952 705q0 -141 -47 -230l96 -106l-149 -158l-104 115q-85 -39 -203 -39q-114 0 -201 37l-102 -113l-152 158l96 104q-47 96 -47 232q0 131 49 231l-98 108l152 156l104 -113q79 39 199 39q107 0 200 -41l107 115l149 -156l-98 -108q49 -91 49 -231zM657 705
q0 223 -110 223q-54 0 -83.5 -57t-29.5 -166t29.5 -166.5t83.5 -57.5q110 0 110 224z" />
    <glyph glyph-name="yen" unicode="&#xa5;" horiz-adv-x="1298" 
d="M1049 1102l-203 -434h180v-185h-197v-100h160v-184h-160q3 -43 9 -82q9 -56 63 -117h-469q53 59 62 117q4 26 8 82h-142v184h144v100h-178v185h131l-191 391q-14 29 -37.5 80.5t-33.5 71.5t-28 55.5t-29.5 52t-29.5 40.5t-36.5 41t-42.5 34h491q-12 -30 -12 -64
q0 -71 53 -172l146 -307l124 268q50 102 50 193q0 48 -15 82h396q-61 -46 -96.5 -104t-104.5 -203q-8 -16 -12 -25z" />
    <glyph glyph-name="brokenbar" unicode="&#xa6;" horiz-adv-x="598" 
d="M461 1300v-540h-326v540q0 53 -2.5 81.5t-19 73t-50.5 81.5h472q-35 -37 -52 -81.5t-19.5 -73t-2.5 -81.5zM461 432v-627q0 -53 2.5 -81.5t19.5 -72.5t52 -81h-472q34 37 50.5 81t19 72.5t2.5 81.5v627h326z" />
    <glyph glyph-name="section" unicode="&#xa7;" horiz-adv-x="876" 
d="M68 530q0 182 127 291q-103 115 -103 260q0 74 23.5 140t67.5 118.5t115.5 83.5t160.5 31q65 0 121 -17.5t93 -35t56 -17.5q14 0 28.5 8.5t20.5 8.5v-385q-62 91 -154 166t-180 75q-48 0 -78 -26.5t-30 -83.5q0 -38 16 -70t43.5 -56.5t63 -48t74.5 -47.5t78.5 -50.5
t75 -62t63 -78t43.5 -102t16 -130.5q0 -194 -100 -297q75 -101 75 -250q0 -179 -98.5 -280t-282.5 -101q-68 0 -151 19.5t-105 19.5q-21 0 -48.5 -8t-39.5 -8v469q67 -126 163 -202.5t192 -76.5q60 0 92.5 30.5t32.5 84.5q0 46 -26 86.5t-67.5 73t-92 65.5t-100.5 71.5
t-91.5 83t-67.5 108.5t-26 140zM315 592q0 -36 14.5 -67t44 -57.5t59 -46.5t74.5 -48q17 -10 25 -15q29 37 29 95q0 36 -13.5 66.5t-43.5 59t-56 48t-73 51.5q-10 7 -15 10q-45 -30 -45 -96z" />
    <glyph glyph-name="dieresis" unicode="&#xa8;" horiz-adv-x="1536" 
d="M557 1180q0 -80 -50 -136.5t-126 -56.5q-74 0 -123 57t-49 136q0 81 49 137.5t123 56.5q77 0 126.5 -56.5t49.5 -137.5zM973 1180q0 -80 -50 -136.5t-126 -56.5q-74 0 -123 57t-49 136q0 81 49 137.5t123 56.5q77 0 126.5 -56.5t49.5 -137.5z" />
    <glyph glyph-name="copyright" unicode="&#xa9;" horiz-adv-x="1521" 
d="M1456 717q0 -170 -52.5 -309.5t-145 -232.5t-220.5 -144t-278 -51q-149 0 -276.5 51t-219.5 144t-144 232.5t-52 309.5q0 168 52 307.5t144 233t219.5 145t276.5 51.5q150 0 278 -51.5t220.5 -145t145 -233t52.5 -307.5zM1229 717q0 242 -131.5 391t-337.5 149
q-205 0 -336 -149t-131 -391q0 -244 131 -392.5t336 -148.5q207 0 338 148t131 393zM807 874q-113 0 -113 -178q0 -88 33 -128t113 -40q81 0 153 58l-30 -185q-23 -13 -62.5 -22.5t-69.5 -9.5q-156 0 -242.5 88t-86.5 239q0 147 84.5 237.5t220.5 90.5q41 0 87 -16.5
t48 -16.5q3 0 12 7.5t13 7.5v-242q-43 64 -74.5 87t-85.5 23z" />
    <glyph glyph-name="ordfeminine" unicode="&#xaa;" horiz-adv-x="720" 
d="M360 1274v4q0 27 -41 27q-53 0 -115.5 -35t-99.5 -72v260q9 -24 31 -24q1 0 69 12t130 12q148 0 211 -63t63 -183v-161q0 -29 1 -43t6 -38.5t19 -44.5t36 -40h-279l-22 53q-35 -68 -150 -68q-88 0 -128 38t-40 102q0 56 32 94.5t77.5 57t90.5 32.5t77 33t32 47zM332 1008
q24 0 28 55v57q-8 -7 -21.5 -16.5t-20 -15t-12 -15.5t-5.5 -24q0 -18 11 -29.5t20 -11.5z" />
    <glyph glyph-name="guillemotleft" unicode="&#xab;" horiz-adv-x="856" 
d="M55 344v145l387 316v-182l-176 -207l176 -213v-176zM428 344v145l387 316v-182l-176 -207l176 -213v-176z" />
    <glyph glyph-name="logicalnot" unicode="&#xac;" horiz-adv-x="890" 
d="M788 250h-215v190h-479v224h694v-414z" />
    <glyph glyph-name="softhyphen" unicode="&#xad;" horiz-adv-x="888" 
d="M799 383h-709v223h709v-223z" />
    <glyph glyph-name="registered" unicode="&#xae;" horiz-adv-x="1521" 
d="M1456 717q0 -170 -52.5 -309.5t-145 -232.5t-220.5 -144t-278 -51q-149 0 -276.5 51t-219.5 144t-144 232.5t-52 309.5q0 168 52 307.5t144 233t219.5 145t276.5 51.5q150 0 278 -51.5t220.5 -145t145 -233t52.5 -307.5zM1073 410q-138 0 -248 151l-20 27q-37 53 -98 53
h-5v-125q0 -24 0.5 -34t7.5 -29t21 -35h-227q13 16 19 35t6.5 29.5t0.5 33.5v402q0 23 -0.5 34t-6.5 30.5t-19 35.5h244q104 0 164.5 -47t60.5 -123q0 -98 -84 -131q20 -11 36.5 -25t24 -23t6.5 -10l23 -28q71 -77 114 -115t89 -55q47 115 47 256q0 242 -131.5 391
t-337.5 149q-205 0 -336 -149t-131 -391q0 -244 131 -392.5t336 -148.5q135 0 238 62.5t163 179.5q-44 -8 -88 -8zM702 772h-4l4 -2v-4h9q45 0 67.5 14.5t22.5 53.5q0 69 -86 69q-11 0 -13 -2v-129z" />
    <glyph glyph-name="macron" unicode="&#xaf;" horiz-adv-x="1103" 
d="M739 1075h-600v223h600v-223z" />
    <glyph glyph-name="degree" unicode="&#xb0;" horiz-adv-x="722" 
d="M670 1137q0 -162 -85 -240t-225 -78q-139 0 -223 78t-84 240q0 160 84.5 239.5t222.5 79.5q139 0 224.5 -79.5t85.5 -239.5zM446 1137q0 71 -21.5 101t-64.5 30q-84 0 -84 -131q0 -70 20.5 -100.5t63.5 -30.5t64.5 30.5t21.5 100.5z" />
    <glyph glyph-name="plusminus" unicode="&#xb1;" horiz-adv-x="856" 
d="M776 0h-696v223h239v217h-239v224h239v276h216v-276h241v-224h-241v-217h241v-223z" />
    <glyph glyph-name="twosuperior" unicode="&#xb2;" horiz-adv-x="727" 
d="M600 512h-543l19 172l88 119q70 97 102.5 143.5t70 108t51 102.5t13.5 80q0 49 -15.5 69.5t-51.5 20.5q-67 0 -128 -59.5t-128 -165.5v356q7 0 19 -6t20 -6q15 0 37.5 13t45.5 29t70 29t105 13q124 0 198 -61t74 -199q0 -127 -74.5 -252t-255.5 -303l-6 -6h56
q118 0 205 19t114 44z" />
    <glyph glyph-name="threesuperior" unicode="&#xb3;" horiz-adv-x="692" 
d="M256 934q-88 0 -141 -39v254q17 -17 53.5 -27t73.5 -10q118 0 118 117q0 59 -31 93t-81 34q-54 0 -92.5 -34t-81.5 -101v286q1 0 7.5 -6t20.5 -6q10 0 71.5 17.5t127.5 17.5q142 0 228.5 -73.5t86.5 -199.5q0 -164 -133 -229q78 -22 116 -70.5t38 -148.5
q0 -152 -89.5 -231.5t-250.5 -79.5q-121 0 -191 30q-12 3 -32 -14v328q40 -76 82 -114t106 -38q47 0 80 32t33 89q0 53 -29 88t-90 35z" />
    <glyph glyph-name="acute" unicode="&#xb4;" horiz-adv-x="1536" 
d="M807 1194l-471 -195l-64 113l414 303z" />
    <glyph glyph-name="mu" unicode="&#xb5;" horiz-adv-x="1064" 
d="M627 109v24q-114 -112 -189 -139v-189q0 -53 2.5 -81.5t19 -72.5t50.5 -81h-444q34 37 50.5 81.5t18.5 72t2 81.5v758q0 38 -1.5 59.5t-9.5 55t-27.5 63t-51.5 58.5h391v-471q0 -133 74 -133q47 0 92 59l23 29v280q0 38 -1.5 59.5t-9.5 55t-27.5 63t-51.5 58.5h389v-563
q0 -39 1.5 -60.5t9.5 -55t27.5 -62.5t51.5 -58h-352z" />
    <glyph glyph-name="paragraph" unicode="&#xb6;" horiz-adv-x="1056" 
d="M668 -348v1616h-72v-1616h-297q34 37 50.5 81t19 72.5t2.5 81.5l-2 707q-142 5 -233 119.5t-91 300.5q0 189 91 304.5t233 115.5h598q-34 -37 -50.5 -81.5t-19 -73t-2.5 -81.5v-1311q0 -53 2.5 -81.5t19 -72.5t50.5 -81h-299z" />
    <glyph glyph-name="periodcentered" unicode="&#xb7;" horiz-adv-x="473" 
d="M412 586q0 -80 -50 -136.5t-126 -56.5t-125.5 56.5t-49.5 136.5q0 81 49 137.5t126 56.5t126.5 -56.5t49.5 -137.5z" />
    <glyph glyph-name="cedilla" unicode="&#xb8;" horiz-adv-x="534" 
d="M92 -172l88 184h129l-51 -92q84 -5 140.5 -54t56.5 -138q0 -246 -299 -246q-73 0 -111 16l-33 135q60 -18 109 -18q53 0 82.5 27.5t29.5 72.5q0 54 -32 83.5t-109 29.5z" />
    <glyph glyph-name="onesuperior" unicode="&#xb9;" horiz-adv-x="538" 
d="M420 1516l-2 -9v-829q0 -28 1.5 -43t9.5 -38.5t27.5 -44t51.5 -40.5h-447q32 20 52 40.5t27.5 44t9.5 39t2 42.5v485l-111 -51l16 195q1 0 6.5 3.5t14 8t18.5 8.5l78 39q136 72 188 107l56 43v-3z" />
    <glyph glyph-name="ordmasculine" unicode="&#xba;" horiz-adv-x="696" 
d="M649 1159q0 -79 -24 -137.5t-66.5 -91.5t-94.5 -48.5t-116 -15.5q-62 0 -113 15.5t-92.5 48.5t-64.5 91.5t-23 137.5q0 154 81.5 224.5t211.5 70.5q63 0 115.5 -16t95 -49t66.5 -92t24 -138zM408 1159q0 137 -58 137q-57 0 -57 -137t57 -137q58 0 58 137z" />
    <glyph glyph-name="guillemotright" unicode="&#xbb;" horiz-adv-x="905" 
d="M469 489v-145l-387 -317v176l176 213l-176 207v182zM850 489v-145l-387 -317v176l176 213l-176 207v182z" />
    <glyph glyph-name="onequarter" unicode="&#xbc;" horiz-adv-x="1701" 
d="M684 0h-250l594 1434h250zM449 1413l-3 -8v-830q0 -27 2 -42.5t9.5 -39t27.5 -43.5t52 -40h-449q32 20 51.5 40t27.5 43.5t9.5 39t1.5 42.5v486q-102 -45 -108 -51l16 194q4 3 58 29t124.5 64t118.5 71l59 45v-2zM1487 1004v-658q70 15 114.5 40.5t59.5 47.5l-84 -287
q-43 11 -90 17q0 -37 1.5 -57t13 -50.5t34.5 -56.5h-367q33 37 41.5 74.5t8.5 91.5v2h-304l17 158l422 678h133zM1090 334h129v203z" />
    <glyph glyph-name="onehalf" unicode="&#xbd;" horiz-adv-x="1824" 
d="M1692 0h-562l19 172l86 119q33 47 84 115t75 101t51 77t37.5 77.5t10.5 67.5q0 86 -66 86q-67 0 -126.5 -57.5t-129.5 -167.5v356q4 0 15.5 -6t21.5 -6q15 0 37.5 13t45.5 29t71 29t108 13q57 0 104.5 -13.5t86 -43t60.5 -81t22 -122.5q0 -86 -41.5 -172.5t-111.5 -170
t-199 -212.5l-7 -6h76q116 0 203.5 19t114.5 44zM674 0h-250l594 1434h250zM438 1413l-2 -8v-830q0 -27 1.5 -42.5t9.5 -39t27.5 -43.5t51.5 -40h-448q32 20 51.5 40t27.5 43.5t9.5 39t1.5 42.5v486q-103 -45 -109 -51l17 194q4 3 58 29t124.5 64t118.5 71l59 45v-2z" />
    <glyph glyph-name="threequarters" unicode="&#xbe;" horiz-adv-x="1880" 
d="M1440 430q-81 0 -137 -39v254q17 -17 52 -27t72 -10q53 0 88 32.5t35 90.5q0 57 -32 85t-80 28q-39 0 -73 -21t-52.5 -44.5t-48.5 -69.5v286q1 0 7.5 -6t20.5 -6q9 0 71.5 17.5t123.5 17.5q143 0 230 -72.5t87 -193.5q0 -155 -131 -217q78 -24 115 -77.5t37 -154.5
q0 -157 -89 -237t-251 -80q-119 0 -189 30q-12 3 -32 -14v328q74 -152 180 -152q119 0 119 131q0 57 -36 89t-87 32zM623 410h-562l19 172l86 118q33 46 84.5 114.5t74.5 101.5t50.5 77.5t38 78t10.5 67.5q0 86 -66 86q-67 0 -126 -58t-130 -168v357q4 0 15.5 -6.5
t21.5 -6.5q15 0 37.5 13t45.5 29t71 29t108 13q57 0 104.5 -13.5t86 -43t60.5 -81t22 -122.5q0 -86 -41.5 -172.5t-111.5 -170t-199 -212.5l-7 -6h76q116 0 203.5 19.5t114.5 44.5zM780 0h-250l594 1434h250z" />
    <glyph glyph-name="questiondown" unicode="&#xbf;" horiz-adv-x="860" 
d="M369 371h262q0 -89 -17 -159.5t-44.5 -115.5t-60.5 -82t-65.5 -66.5t-60 -59t-44.5 -70.5t-17 -92q0 -66 37.5 -105t103.5 -39q171 0 342 273v-433q-7 0 -22.5 9.5t-32.5 9.5q-24 0 -68 -19t-109 -38t-141 -19q-207 0 -297 92.5t-90 274.5q0 86 18 153.5t46.5 110.5
t63 77.5t69 63t63 59t46.5 75t18 100.5zM319 649q0 77 50.5 134t126.5 57q73 0 122.5 -57t49.5 -134q0 -81 -49 -138.5t-123 -57.5q-77 0 -127 57.5t-50 138.5z" />
    <glyph glyph-name="Agrave" unicode="&#xc0;" horiz-adv-x="1347" 
d="M887 0q17 86 -47 287h-412q-35 -106 -49 -171.5t-4 -115.5h-393q42 30 88 111t137 299l444 1038l27 18l446 -1015q97 -225 150.5 -323t103.5 -128h-491zM625 887l-129 -395h270zM741 1534l-471 197l121 221l416 -303z" />
    <glyph glyph-name="Aacute" unicode="&#xc1;" horiz-adv-x="1347" 
d="M887 0q17 86 -47 287h-412q-35 -106 -49 -171.5t-4 -115.5h-393q42 30 88 111t137 299l444 1038l27 18l446 -1015q97 -225 150.5 -323t103.5 -128h-491zM625 887l-129 -395h270zM1087 1731l-471 -195l-63 113l414 303z" />
    <glyph glyph-name="Acircumflex" unicode="&#xc2;" horiz-adv-x="1347" 
d="M887 0q17 86 -47 287h-412q-35 -106 -49 -171.5t-4 -115.5h-393q42 30 88 111t137 299l444 1038l27 18l446 -1015q97 -225 150.5 -323t103.5 -128h-491zM625 887l-129 -395h270zM926 1526l-267 145l-235 -145l-62 114l312 304l311 -304z" />
    <glyph glyph-name="Atilde" unicode="&#xc3;" horiz-adv-x="1347" 
d="M887 0q17 86 -47 287h-412q-35 -106 -49 -171.5t-4 -115.5h-393q42 30 88 111t137 299l444 1038l27 18l446 -1015q97 -225 150.5 -323t103.5 -128h-491zM625 887l-129 -395h270zM528 1866q66 0 177.5 -40t146.5 -40q26 0 36.5 17t10.5 63h117q0 -189 -37 -259.5
t-135 -70.5q-72 0 -182.5 40t-145.5 40q-30 0 -43.5 -17t-13.5 -63h-113q0 184 43.5 257t138.5 73z" />
    <glyph glyph-name="Adieresis" unicode="&#xc4;" horiz-adv-x="1347" 
d="M643 1718q0 -77 -50 -133.5t-126 -56.5t-125 56.5t-49 133.5q0 82 49 139.5t125 57.5t126 -58t50 -139zM1057 1718q0 -77 -50 -133.5t-126 -56.5q-73 0 -122.5 56.5t-49.5 133.5q0 81 49 139t123 58q76 0 126 -58t50 -139zM887 0q17 86 -47 287h-412q-35 -106 -49 -171.5
t-4 -115.5h-393q42 30 88 111t137 299l444 1038l27 18l446 -1015q97 -225 150.5 -323t103.5 -128h-491zM625 887l-129 -395h270z" />
    <glyph glyph-name="Aring" unicode="&#xc5;" horiz-adv-x="1347" 
d="M887 0q17 86 -47 287h-412q-35 -106 -49 -171.5t-4 -115.5h-393q42 30 88 111t137 299l444 1038l27 18l446 -1015q97 -225 150.5 -323t103.5 -128h-491zM625 887l-129 -395h270zM948 1757q0 -56 -22.5 -99t-61 -68t-85.5 -37.5t-101 -12.5t-101 12.5t-85 37.5t-60 68
t-22 99q0 74 39 124t97.5 71.5t131.5 21.5q114 0 192 -54.5t78 -162.5zM737 1757q0 88 -57 88q-30 0 -44.5 -20t-14.5 -68q0 -88 59 -88q57 0 57 88z" />
    <glyph glyph-name="AE" unicode="&#xc6;" horiz-adv-x="1665" 
d="M709 0q34 37 50.5 81.5t18.5 72.5t2 82v51h-336q-30 -63 -56 -144t-26 -143h-387q35 22 62.5 53.5t76 117.5t119.5 239l469 1024h777v-299q-57 94 -236 94h-137v-359h135q147 0 238 60v-344q-89 59 -238 59h-135v-409h86q385 0 465 92l-148 -328h-800zM532 492h248v579z
" />
    <glyph glyph-name="Ccedilla" unicode="&#xc7;" horiz-adv-x="1234" 
d="M600 -172l74 156q-93 9 -174 36q-198 66 -313 241t-115 458q0 152 36 277t97.5 208.5t145 141t176 83t192.5 25.5q89 0 167 -20t124 -40t59 -20q39 0 59 33v-455q-77 119 -166 181.5t-206 62.5q-161 0 -250.5 -123t-89.5 -348q0 -237 100 -361t299 -124q217 0 377 137
l-74 -316q-51 -35 -141 -59q-85 -19 -178 -22l-33 -60q84 -5 140.5 -54t56.5 -138q0 -246 -299 -246q-73 0 -111 16l-33 135q60 -18 109 -18q53 0 82.5 27.5t29.5 72.5q0 54 -32 83.5t-109 29.5z" />
    <glyph glyph-name="Egrave" unicode="&#xc8;" horiz-adv-x="1032" 
d="M76 0q34 37 50.5 81.5t18.5 72.5t2 82v962q0 54 -2 82t-18.5 72.5t-50.5 81.5h770v-299q-20 30 -47.5 50t-61.5 29t-63 12t-66 3h-135v-359h135q147 0 238 60v-344q-89 59 -238 59h-135v-409h86q392 0 463 92l-145 -328h-801zM537 1536l-471 197l120 221l416 -303z" />
    <glyph glyph-name="Eacute" unicode="&#xc9;" horiz-adv-x="1032" 
d="M76 0q34 37 50.5 81.5t18.5 72.5t2 82v962q0 54 -2 82t-18.5 72.5t-50.5 81.5h770v-299q-20 30 -47.5 50t-61.5 29t-63 12t-66 3h-135v-359h135q147 0 238 60v-344q-89 59 -238 59h-135v-409h86q392 0 463 92l-145 -328h-801zM885 1735l-471 -195l-64 113l414 303z" />
    <glyph glyph-name="Ecircumflex" unicode="&#xca;" horiz-adv-x="1032" 
d="M76 0q34 37 50.5 81.5t18.5 72.5t2 82v962q0 54 -2 82t-18.5 72.5t-50.5 81.5h770v-299q-20 30 -47.5 50t-61.5 29t-63 12t-66 3h-135v-359h135q147 0 238 60v-344q-89 59 -238 59h-135v-409h86q392 0 463 92l-145 -328h-801zM719 1530l-266 145l-236 -145l-61 115
l311 303l311 -303z" />
    <glyph glyph-name="Edieresis" unicode="&#xcb;" horiz-adv-x="1032" 
d="M473 870h135q147 0 238 60v-344q-89 59 -238 59h-135v-409h86q389 0 463 92l-145 -328h-801q34 37 50.5 81.5t18.5 72.5t2 82v962q0 54 -2 82t-18.5 72.5t-50.5 81.5h770v-299q-20 30 -47.5 50t-61.5 29t-63 12t-66 3h-135v-359zM868 1722q0 -77 -50 -133.5t-126 -56.5
q-74 0 -124 56.5t-50 133.5q0 81 50 139t124 58q76 0 126 -58t50 -139zM420 1722q0 -77 -50 -133.5t-126 -56.5t-125 56.5t-49 133.5q0 82 49 139.5t125 57.5t126 -58t50 -139z" />
    <glyph glyph-name="Igrave" unicode="&#xcc;" horiz-adv-x="622" 
d="M473 1198v-962q0 -53 2.5 -81.5t19.5 -73t52 -81.5h-471q34 37 50.5 81.5t18.5 72.5t2 82v962q0 54 -2 82t-18.5 72.5t-50.5 81.5h471q-35 -37 -52 -81.5t-19.5 -73t-2.5 -81.5zM373 1532l-471 197l121 221l415 -303z" />
    <glyph glyph-name="Iacute" unicode="&#xcd;" horiz-adv-x="622" 
d="M473 1198v-962q0 -53 2.5 -81.5t19.5 -73t52 -81.5h-471q34 37 50.5 81.5t18.5 72.5t2 82v962q0 54 -2 82t-18.5 72.5t-50.5 81.5h471q-35 -37 -52 -81.5t-19.5 -73t-2.5 -81.5zM721 1729l-471 -195l-64 113l414 303z" />
    <glyph glyph-name="Icircumflex" unicode="&#xce;" horiz-adv-x="622" 
d="M473 1198v-962q0 -53 2.5 -81.5t19.5 -73t52 -81.5h-471q34 37 50.5 81.5t18.5 72.5t2 82v962q0 54 -2 82t-18.5 72.5t-50.5 81.5h471q-35 -37 -52 -81.5t-19.5 -73t-2.5 -81.5zM555 1524l-266 145l-236 -145l-61 114l311 304l311 -304z" />
    <glyph glyph-name="Idieresis" unicode="&#xcf;" horiz-adv-x="620" 
d="M473 1198v-962q0 -53 2.5 -81.5t19 -73t50.5 -81.5h-469q34 37 50.5 81.5t18.5 72.5t2 82v962q0 54 -2 82t-18.5 72.5t-50.5 81.5h469q-34 -37 -50.5 -81.5t-19 -73t-2.5 -81.5zM705 1716q0 -77 -50.5 -133.5t-126.5 -56.5q-74 0 -124 56.5t-50 133.5q0 81 50 139t124 58
q77 0 127 -58t50 -139zM256 1716q0 -77 -50 -133.5t-126 -56.5t-125 56.5t-49 133.5q0 82 49 139.5t125 57.5t126 -58t50 -139z" />
    <glyph glyph-name="Eth" unicode="&#xd0;" horiz-adv-x="1447" 
d="M135 0q34 37 50.5 81.5t19 73t2.5 81.5v362h-170v223h170v377q0 53 -2.5 81.5t-19 73t-50.5 81.5h471l-2 -2q172 -6 311 -52t244 -132.5t162 -224.5t57 -318q0 -174 -57 -307.5t-162 -217.5t-244 -129t-311 -51h-469zM535 821h208v-223h-208v-403h20q75 0 142 16.5
t129 55t107 96t72 145t27 197.5q0 113 -27 205t-71.5 152.5t-105.5 101t-127 58t-138 17.5h-28v-418z" />
    <glyph glyph-name="Ntilde" unicode="&#xd1;" horiz-adv-x="1327" 
d="M1163 -20l-766 987v-731q0 -41 1 -60.5t7 -54t21 -63.5t41 -58h-389q32 37 48 81t18.5 73.5t2.5 81.5v962q0 50 -2.5 79.5t-18.5 74.5t-48 82h360l496 -656v420q0 53 -2.5 81.5t-19 73t-50.5 81.5h393q-35 -37 -52 -81.5t-19 -72.5t-2 -82v-1200zM514 1868
q66 0 177.5 -40t146.5 -40q26 0 36.5 17t10.5 63h116q0 -189 -37 -259.5t-135 -70.5q-72 0 -182 40t-145 40q-31 0 -44.5 -17t-13.5 -63h-112q0 184 43.5 257t138.5 73z" />
    <glyph glyph-name="Ograve" unicode="&#xd2;" horiz-adv-x="1470" 
d="M1403 717q0 -175 -50.5 -315.5t-140.5 -232.5t-211.5 -140.5t-265.5 -48.5q-142 0 -263 48.5t-210.5 140t-140.5 232.5t-51 316t51 316t140.5 232.5t210.5 140t263 48.5q144 0 265.5 -48.5t211.5 -140.5t140.5 -232.5t50.5 -315.5zM1057 717q0 232 -86.5 360.5
t-235.5 128.5q-148 0 -234.5 -128.5t-86.5 -360.5t86.5 -362t234.5 -130q149 0 235.5 129.5t86.5 362.5zM795 1534l-471 197l120 221l416 -303z" />
    <glyph glyph-name="Oacute" unicode="&#xd3;" horiz-adv-x="1470" 
d="M1403 717q0 -175 -50.5 -315.5t-140.5 -232.5t-211.5 -140.5t-265.5 -48.5q-142 0 -263 48.5t-210.5 140t-140.5 232.5t-51 316t51 316t140.5 232.5t210.5 140t263 48.5q144 0 265.5 -48.5t211.5 -140.5t140.5 -232.5t50.5 -315.5zM1057 717q0 232 -86.5 360.5
t-235.5 128.5q-148 0 -234.5 -128.5t-86.5 -360.5t86.5 -362t234.5 -130q149 0 235.5 129.5t86.5 362.5zM1143 1731l-471 -195l-64 113l414 303z" />
    <glyph glyph-name="Ocircumflex" unicode="&#xd4;" horiz-adv-x="1470" 
d="M1403 717q0 -175 -50.5 -315.5t-140.5 -232.5t-211.5 -140.5t-265.5 -48.5q-142 0 -263 48.5t-210.5 140t-140.5 232.5t-51 316t51 316t140.5 232.5t210.5 140t263 48.5q144 0 265.5 -48.5t211.5 -140.5t140.5 -232.5t50.5 -315.5zM1057 717q0 232 -86.5 360.5
t-235.5 128.5q-148 0 -234.5 -128.5t-86.5 -360.5t86.5 -362t234.5 -130q149 0 235.5 129.5t86.5 362.5zM979 1526l-266 145l-236 -145l-61 114l311 304l311 -304z" />
    <glyph glyph-name="Otilde" unicode="&#xd5;" horiz-adv-x="1470" 
d="M1403 717q0 -175 -50.5 -315.5t-140.5 -232.5t-211.5 -140.5t-265.5 -48.5q-142 0 -263 48.5t-210.5 140t-140.5 232.5t-51 316t51 316t140.5 232.5t210.5 140t263 48.5q144 0 265.5 -48.5t211.5 -140.5t140.5 -232.5t50.5 -315.5zM1057 717q0 232 -86.5 360.5
t-235.5 128.5q-148 0 -234.5 -128.5t-86.5 -360.5t86.5 -362t234.5 -130q149 0 235.5 129.5t86.5 362.5zM582 1866q66 0 177 -40t146 -40q26 0 36.5 17t10.5 63h117q0 -189 -37 -259.5t-135 -70.5q-72 0 -182.5 40t-145.5 40q-30 0 -43.5 -17t-13.5 -63h-113
q0 183 43.5 256.5t139.5 73.5z" />
    <glyph glyph-name="Odieresis" unicode="&#xd6;" horiz-adv-x="1470" 
d="M696 1718q0 -77 -50 -133.5t-126 -56.5t-125 56.5t-49 133.5q0 82 49 139.5t125 57.5t126 -58t50 -139zM1110 1718q0 -77 -50 -133.5t-126 -56.5q-73 0 -122.5 56.5t-49.5 133.5q0 81 49 139t123 58q76 0 126 -58t50 -139zM1403 717q0 -175 -50.5 -315.5t-140.5 -232.5
t-211.5 -140.5t-265.5 -48.5q-142 0 -263 48.5t-210.5 140t-140.5 232.5t-51 316t51 316t140.5 232.5t210.5 140t263 48.5q144 0 265.5 -48.5t211.5 -140.5t140.5 -232.5t50.5 -315.5zM1057 717q0 232 -86.5 360.5t-235.5 128.5q-148 0 -234.5 -128.5t-86.5 -360.5
t86.5 -362t234.5 -130q149 0 235.5 129.5t86.5 362.5z" />
    <glyph glyph-name="multiply" unicode="&#xd7;" horiz-adv-x="782" 
d="M713 748l-174 -197l174 -195l-152 -157l-170 188l-168 -188l-151 157l174 195l-174 197l151 157l168 -190l170 190z" />
    <glyph glyph-name="Oslash" unicode="&#xd8;" horiz-adv-x="1470" 
d="M1403 717q0 -175 -50.5 -315.5t-140.5 -232.5t-211.5 -140.5t-265.5 -48.5q-77 0 -143 14q-6 -30 -6 -60q0 -36 16 -73h-467q70 54 105.5 107t66.5 128l8 21l-55 51q-190 203 -190 549q0 175 51 316t140.5 232.5t210.5 140t263 48.5q69 0 133 -12q13 37 13 69
q0 35 -19 78h471q-38 -29 -66 -58t-48 -61t-31 -55t-27 -61l-14 -33q40 -28 63 -57q193 -196 193 -547zM1057 717q0 172 -45 282l-326 -770q32 -4 49 -4q149 0 235.5 129.5t86.5 362.5zM414 717q0 -161 41 -273l317 760q-12 2 -37 2q-148 0 -234.5 -128.5t-86.5 -360.5z" />
    <glyph glyph-name="Ugrave" unicode="&#xd9;" horiz-adv-x="1288" 
d="M1155 1198v-717q0 -122 -43.5 -220t-116.5 -158t-163.5 -91.5t-190.5 -31.5q-108 0 -199.5 31.5t-160.5 92t-107.5 157t-38.5 220.5v369h2v348q0 54 -2 82t-18.5 72.5t-50.5 81.5h471q-35 -37 -52 -81.5t-19.5 -73t-2.5 -81.5v-399h-2v-297q0 -260 184 -260t184 260v696
q0 54 -2 82t-18.5 72.5t-50.5 81.5h469q-34 -37 -50.5 -81.5t-19 -73t-2.5 -81.5zM711 1534l-471 197l120 221l416 -303z" />
    <glyph glyph-name="Uacute" unicode="&#xda;" horiz-adv-x="1288" 
d="M1155 1198v-717q0 -122 -43.5 -220t-116.5 -158t-163.5 -91.5t-190.5 -31.5q-108 0 -199.5 31.5t-160.5 92t-107.5 157t-38.5 220.5v369h2v348q0 54 -2 82t-18.5 72.5t-50.5 81.5h471q-35 -37 -52 -81.5t-19.5 -73t-2.5 -81.5v-399h-2v-297q0 -260 184 -260t184 260v696
q0 54 -2 82t-18.5 72.5t-50.5 81.5h469q-34 -37 -50.5 -81.5t-19 -73t-2.5 -81.5zM1057 1731l-471 -195l-64 113l414 303z" />
    <glyph glyph-name="Ucircumflex" unicode="&#xdb;" horiz-adv-x="1288" 
d="M1155 1198v-717q0 -122 -43.5 -220t-116.5 -158t-163.5 -91.5t-190.5 -31.5q-108 0 -199.5 31.5t-160.5 92t-107.5 157t-38.5 220.5v369h2v348q0 54 -2 82t-18.5 72.5t-50.5 81.5h471q-35 -37 -52 -81.5t-19.5 -73t-2.5 -81.5v-399h-2v-297q0 -260 184 -260t184 260v696
q0 54 -2 82t-18.5 72.5t-50.5 81.5h469q-34 -37 -50.5 -81.5t-19 -73t-2.5 -81.5zM895 1526l-266 145l-236 -145l-61 114l311 304l311 -304z" />
    <glyph glyph-name="Udieresis" unicode="&#xdc;" horiz-adv-x="1288" 
d="M1155 1198v-717q0 -122 -43.5 -220t-116.5 -158t-163.5 -91.5t-190.5 -31.5q-108 0 -199.5 31.5t-160.5 92t-107.5 157t-38.5 220.5v369h2v348q0 54 -2 82t-18.5 72.5t-50.5 81.5h471q-35 -37 -52 -81.5t-19.5 -73t-2.5 -81.5v-399h-2v-297q0 -260 184 -260t184 260v696
q0 54 -2 82t-18.5 72.5t-50.5 81.5h469q-34 -37 -50.5 -81.5t-19 -73t-2.5 -81.5zM1026 1718q0 -77 -50 -133.5t-126 -56.5q-74 0 -124 56.5t-50 133.5q0 81 50 139t124 58q76 0 126 -58t50 -139zM610 1718q0 -77 -49 -133.5t-125 -56.5t-125 56.5t-49 133.5q0 82 49 139.5
t125 57.5t125 -57.5t49 -139.5z" />
    <glyph glyph-name="Yacute" unicode="&#xdd;" horiz-adv-x="1226" 
d="M1006 1102l-220 -471v-395q0 -53 2.5 -81.5t19 -73t50.5 -81.5h-469q34 37 50.5 81.5t19 73t2.5 81.5v335l-238 488q-14 29 -37.5 80.5t-33.5 71.5t-28 55.5t-29.5 52t-29.5 40.5t-36.5 41t-42.5 34h491q-12 -30 -12 -64q0 -71 53 -172l146 -307l124 268q50 102 50 193
q0 48 -15 82h396q-61 -46 -96.5 -104t-104.5 -203q-8 -16 -12 -25zM1069 1731l-471 -195l-63 113l413 303z" />
    <glyph glyph-name="Thorn" unicode="&#xde;" horiz-adv-x="1269" 
d="M147 233v965q0 54 -2 82t-18.5 72.5t-50.5 81.5h471q-35 -37 -52 -81.5t-19.5 -73t-2.5 -81.5v-14h123q311 0 463.5 -114.5t152.5 -364.5q0 -234 -155 -355t-461 -121h-123q0 -52 2.5 -80t19.5 -70.5t52 -80.5h-471q34 37 50.5 81.5t18.5 72t2 81.5zM600 989
q-55 0 -127 -10v-551q46 -4 64 -4h55q139 0 201.5 64.5t62.5 216.5q0 156 -61.5 220t-194.5 64z" />
    <glyph glyph-name="germandbls" unicode="&#xdf;" horiz-adv-x="1202" 
d="M535 -4v350q54 -78 147 -138.5t158 -60.5q45 0 45 43q0 21 -18.5 40.5t-48.5 36.5t-66 35.5t-72 43t-66 54t-48.5 72.5t-18.5 95q0 51 19 102t46 93.5t54 85.5t46 95t19 104q0 79 -40 130.5t-120 51.5q-155 0 -155 -223v-768q0 -54 2 -82.5t18.5 -73.5t50.5 -82h-454
q34 37 50.5 82t18.5 73.5t2 82.5v770q0 222 114.5 334t338.5 112t336.5 -104.5t112.5 -282.5q0 -72 -17.5 -131t-42 -97t-49 -69.5t-42 -62t-17.5 -60.5q0 -36 25 -64t62 -45.5t81 -43t81 -54t62 -80.5t25 -120t-25 -119.5t-70 -81.5t-101 -44.5t-124 -14.5q-83 0 -163 22.5
t-95 22.5q-19 0 -32.5 -7.5t-20 -14.5t-8.5 -7z" />
    <glyph glyph-name="agrave" unicode="&#xe0;" horiz-adv-x="905" 
d="M795 236q0 -39 1.5 -60.5t9.5 -55t27.5 -62.5t51.5 -58h-355l-26 80q-51 -100 -211 -100q-119 0 -178.5 52.5t-59.5 143.5q0 58 24 103.5t63 73t85.5 49t93.5 37t86 31.5t63 38.5t24 52.5q0 66 -76 66q-71 0 -156.5 -50.5t-134.5 -105.5v338q15 -31 39 -31q3 0 94.5 20.5
t175.5 20.5q188 0 273.5 -85t85.5 -245v-253zM424 156q27 0 46.5 27t23.5 83v103q-19 -19 -56 -43.5t-55 -46t-18 -54.5t17 -51t42 -18zM496 940l-471 197l120 221l416 -303z" />
    <glyph glyph-name="aacute" unicode="&#xe1;" horiz-adv-x="905" 
d="M795 236q0 -39 1.5 -60.5t9.5 -55t27.5 -62.5t51.5 -58h-355l-26 80q-51 -100 -211 -100q-119 0 -178.5 52.5t-59.5 143.5q0 58 24 103.5t63 73t85.5 49t93.5 37t86 31.5t63 38.5t24 52.5q0 66 -76 66q-71 0 -156.5 -50.5t-134.5 -105.5v338q15 -31 39 -31q3 0 94.5 20.5
t175.5 20.5q188 0 273.5 -85t85.5 -245v-253zM424 156q27 0 46.5 27t23.5 83v103q-19 -19 -56 -43.5t-55 -46t-18 -54.5t17 -51t42 -18zM844 1137l-471 -195l-64 113l414 303z" />
    <glyph glyph-name="acircumflex" unicode="&#xe2;" horiz-adv-x="905" 
d="M795 236q0 -39 1.5 -60.5t9.5 -55t27.5 -62.5t51.5 -58h-355l-26 80q-51 -100 -211 -100q-119 0 -178.5 52.5t-59.5 143.5q0 58 24 103.5t63 73t85.5 49t93.5 37t86 31.5t63 38.5t24 52.5q0 66 -76 66q-71 0 -156.5 -50.5t-134.5 -105.5v338q15 -31 39 -31q3 0 94.5 20.5
t175.5 20.5q188 0 273.5 -85t85.5 -245v-253zM678 932l-266 145l-236 -145l-61 115l311 303l311 -303zM424 156q27 0 46.5 27t23.5 83v103q-19 -19 -56 -43.5t-55 -46t-18 -54.5t17 -51t42 -18z" />
    <glyph glyph-name="atilde" unicode="&#xe3;" horiz-adv-x="905" 
d="M795 236q0 -39 1.5 -60.5t9.5 -55t27.5 -62.5t51.5 -58h-355l-26 80q-51 -100 -211 -100q-119 0 -178.5 52.5t-59.5 143.5q0 58 24 103.5t63 73t85.5 49t93.5 37t86 31.5t63 38.5t24 52.5q0 66 -76 66q-71 0 -156.5 -50.5t-134.5 -105.5v338q15 -31 39 -31q3 0 94.5 20.5
t175.5 20.5q188 0 273.5 -85t85.5 -245v-253zM424 156q27 0 46.5 27t23.5 83v103q-19 -19 -56 -43.5t-55 -46t-18 -54.5t17 -51t42 -18zM283 1270q66 0 177 -40t146 -40q26 0 36.5 17t10.5 63h117q0 -189 -37 -259.5t-135 -70.5q-72 0 -182.5 40t-145.5 40q-30 0 -43.5 -17
t-13.5 -63h-113q0 183 43.5 256.5t139.5 73.5z" />
    <glyph glyph-name="adieresis" unicode="&#xe4;" horiz-adv-x="905" 
d="M494 561q0 66 -76 66q-74 0 -157.5 -50t-133.5 -106v338q15 -31 39 -31q3 0 94.5 20.5t175.5 20.5q188 0 273.5 -85t85.5 -245v-253q0 -39 1.5 -60.5t9.5 -55t27.5 -62.5t51.5 -58h-355l-28 80q-49 -100 -209 -100q-119 0 -178.5 52.5t-59.5 143.5q0 58 24 103.5t63 73
t85.5 49t93.5 37t86 31.5t63 38.5t24 52.5zM395 1124q0 -77 -50 -133.5t-126 -56.5t-125 56.5t-49 133.5q0 82 49 139.5t125 57.5t126 -58t50 -139zM809 1124q0 -77 -50 -133.5t-126 -56.5q-72 0 -122 57t-50 133q0 81 49.5 139t122.5 58q76 0 126 -58t50 -139zM422 156
q28 0 48 26.5t24 83.5v103q-19 -19 -56 -43.5t-55 -46t-18 -54.5q0 -34 16 -51.5t41 -17.5z" />
    <glyph glyph-name="aring" unicode="&#xe5;" horiz-adv-x="905" 
d="M795 236q0 -39 1.5 -60.5t9.5 -55t27.5 -62.5t51.5 -58h-355l-26 80q-51 -100 -211 -100q-119 0 -178.5 52.5t-59.5 143.5q0 58 24 103.5t63 73t85.5 49t93.5 37t86 31.5t63 38.5t24 52.5q0 66 -76 66q-71 0 -156.5 -50.5t-134.5 -105.5v338q15 -31 39 -31q3 0 94.5 20.5
t175.5 20.5q188 0 273.5 -85t85.5 -245v-253zM424 156q27 0 46.5 27t23.5 83v103q-19 -19 -56 -43.5t-55 -46t-18 -54.5t17 -51t42 -18zM700 1163q0 -56 -22.5 -99t-61 -68t-85.5 -37.5t-101 -12.5t-101 12.5t-85 37.5t-60 68t-22 99q0 74 39 124t97.5 71.5t131.5 21.5
q114 0 192 -54.5t78 -162.5zM489 1163q0 88 -57 88q-30 0 -44.5 -20t-14.5 -68q0 -88 59 -88q57 0 57 88z" />
    <glyph glyph-name="ae" unicode="&#xe6;" horiz-adv-x="1292" 
d="M1227 350h-424q8 -83 53.5 -128.5t147.5 -45.5q116 0 231 39l-64 -205q-82 -30 -297 -30q-193 0 -301 120q-25 -50 -88 -85t-174 -35q-129 0 -192.5 52.5t-63.5 143.5q0 58 24 103.5t63 73t85.5 49t93.5 37t86 31.5t63 38.5t24 52.5q0 66 -76 66q-71 0 -156.5 -50.5
t-134.5 -105.5v338q15 -31 39 -31q3 0 94.5 20.5t175.5 20.5q143 0 228 -51q89 51 213 51q171 0 262.5 -97.5t91.5 -272.5zM870 641q-62 0 -71 -147h151q0 59 -20 103t-60 44zM424 156q27 0 46.5 27t23.5 83q-14 72 -15 90q-14 -13 -50 -37.5t-50 -43.5t-14 -50
q0 -33 17 -51t42 -18z" />
    <glyph glyph-name="ccedilla" unicode="&#xe7;" horiz-adv-x="747" 
d="M311 -172l74 158q-141 15 -225 102q-107 107 -107 307t105 312t286 112q52 0 89 -9.5t56 -18.5t29 -9q16 0 30 14l14 13v-317q-66 124 -162 124q-61 0 -94 -54.5t-33 -153.5q0 -209 166 -209q85 0 176 39l-64 -228q-41 -18 -92 -24l-49 -4l-33 -62q84 -5 140.5 -54
t56.5 -138q0 -246 -299 -246q-73 0 -111 16l-33 135q60 -18 109 -18q53 0 83 27.5t30 72.5q0 113 -142 113z" />
    <glyph glyph-name="egrave" unicode="&#xe8;" horiz-adv-x="864" 
d="M801 350h-426q8 -82 53.5 -128t144.5 -46q114 0 236 39l-64 -205q-82 -30 -296 -30q-184 0 -290 107.5t-106 307.5q0 201 108 312.5t290 111.5q171 0 262.5 -97.5t91.5 -272.5zM444 641q-62 0 -71 -147h149q0 60 -19.5 103.5t-58.5 43.5zM512 940l-471 197l121 221
l416 -303z" />
    <glyph glyph-name="eacute" unicode="&#xe9;" horiz-adv-x="864" 
d="M801 350h-426q8 -82 53.5 -128t144.5 -46q114 0 236 39l-64 -205q-82 -30 -296 -30q-184 0 -290 107.5t-106 307.5q0 201 108 312.5t290 111.5q171 0 262.5 -97.5t91.5 -272.5zM444 641q-62 0 -71 -147h149q0 60 -19.5 103.5t-58.5 43.5zM860 1137l-471 -195l-63 113
l413 303z" />
    <glyph glyph-name="ecircumflex" unicode="&#xea;" horiz-adv-x="864" 
d="M801 350h-426q8 -82 53.5 -128t144.5 -46q114 0 236 39l-64 -205q-82 -30 -296 -30q-184 0 -290 107.5t-106 307.5q0 201 108 312.5t290 111.5q171 0 262.5 -97.5t91.5 -272.5zM444 641q-62 0 -71 -147h149q0 60 -19.5 103.5t-58.5 43.5zM698 932l-266 145l-235 -145
l-62 115l311 303l312 -303z" />
    <glyph glyph-name="edieresis" unicode="&#xeb;" horiz-adv-x="864" 
d="M414 1124q0 -77 -50 -133.5t-126 -56.5t-125.5 56.5t-49.5 133.5q0 81 49.5 139t125.5 58t126 -58t50 -139zM827 1124q0 -77 -50 -133.5t-126 -56.5q-73 0 -122.5 56.5t-49.5 133.5q0 81 49 139t123 58q76 0 126 -58t50 -139zM801 350h-426q8 -82 53.5 -128t144.5 -46
q114 0 236 39l-64 -205q-82 -30 -296 -30q-184 0 -290 107.5t-106 307.5q0 201 108 312.5t290 111.5q171 0 262.5 -97.5t91.5 -272.5zM444 641q-62 0 -71 -147h149q0 60 -19.5 103.5t-58.5 43.5z" />
    <glyph glyph-name="igrave" unicode="&#xec;" horiz-adv-x="520" 
d="M416 799v-563q0 -54 2 -82t18.5 -72.5t50.5 -81.5h-444q34 37 50.5 81.5t19 73t2.5 81.5v327q0 38 -1.5 59.5t-9.5 55t-27.5 63t-51.5 58.5h391zM330 940l-471 197l121 221l415 -303z" />
    <glyph glyph-name="iacute" unicode="&#xed;" horiz-adv-x="520" 
d="M416 799v-563q0 -54 2 -82t18.5 -72.5t50.5 -81.5h-444q34 37 50.5 81.5t19 73t2.5 81.5v327q0 38 -1.5 59.5t-9.5 55t-27.5 63t-51.5 58.5h391zM676 1137l-471 -195l-64 113l414 303z" />
    <glyph glyph-name="icircumflex" unicode="&#xee;" horiz-adv-x="520" 
d="M416 799v-563q0 -54 2 -82t18.5 -72.5t50.5 -81.5h-444q34 37 50.5 81.5t19 73t2.5 81.5v327q0 38 -1.5 59.5t-9.5 55t-27.5 63t-51.5 58.5h391zM514 932l-266 145l-236 -145l-61 115l311 303l311 -303z" />
    <glyph glyph-name="idieresis" unicode="&#xef;" horiz-adv-x="520" 
d="M229 1126q0 -79 -50 -135.5t-124 -56.5q-76 0 -125 56t-49 136q0 81 49 138t125 57q74 0 124 -57t50 -138zM645 1126q0 -80 -49.5 -136t-126.5 -56q-74 0 -123 56.5t-49 135.5q0 81 49 138t123 57q77 0 126.5 -57t49.5 -138zM416 799v-563q0 -54 2 -82t18.5 -72.5
t50.5 -81.5h-444q34 37 50.5 81.5t19 73t2.5 81.5v327q0 38 -1.5 59.5t-9.5 55t-27.5 63t-51.5 58.5h391z" />
    <glyph glyph-name="eth" unicode="&#xf0;" horiz-adv-x="1060" 
d="M909 1231l-75 -39q170 -210 170 -555q0 -94 -11.5 -178.5t-45.5 -175t-87.5 -155t-144 -106.5t-209.5 -42q-113 0 -201.5 37.5t-142.5 103t-81.5 149.5t-27.5 181q0 115 38.5 207.5t101 147.5t134 83.5t144.5 28.5q132 0 191 -103q-21 153 -93 244l-180 -90l-63 168
l82 41q-71 26 -168 26q-61 0 -113 -8l279 322q8 -5 12 -32.5t8 -33.5q151 -54 266 -133l150 76zM514 174q82 0 115.5 57t40.5 209q4 147 -45.5 223t-128.5 76q-58 0 -92.5 -43t-46 -106.5t-11.5 -155.5q0 -137 35 -198.5t133 -61.5z" />
    <glyph glyph-name="ntilde" unicode="&#xf1;" horiz-adv-x="987" 
d="M416 236q0 -54 2 -82t18.5 -72.5t50.5 -81.5h-444q34 37 50.5 81.5t19 73t2.5 81.5v327q0 38 -1.5 59.5t-9.5 55t-27.5 63t-51.5 58.5h391v-121q87 83 142 112t112 29q50 0 88 -16t70 -54t48.5 -108.5t16.5 -171.5v-254q0 -66 13.5 -116t58.5 -99h-445q45 49 58.5 99
t13.5 116v256q0 133 -74 133q-52 0 -94 -59l-8 -13v-296zM360 1272q66 0 177.5 -40t146.5 -40q26 0 36.5 17t10.5 63h117q0 -189 -37 -259.5t-135 -70.5q-72 0 -182.5 40t-145.5 40q-30 0 -43.5 -17t-13.5 -63h-113q0 184 43.5 257t138.5 73z" />
    <glyph glyph-name="ograve" unicode="&#xf2;" 
d="M866 397q0 -109 -31 -191t-87 -130.5t-128.5 -72t-160.5 -23.5t-160 23.5t-127.5 72.5t-86 130.5t-30.5 190.5q0 215 110.5 318.5t293.5 103.5q88 0 160.5 -24t128.5 -73.5t87 -132t31 -192.5zM573 397q0 110 -29 167t-83 57q-52 0 -82.5 -58t-30.5 -166t30.5 -165.5
t82.5 -57.5q54 0 83 56.5t29 166.5zM524 940l-471 197l121 221l416 -303z" />
    <glyph glyph-name="oacute" unicode="&#xf3;" 
d="M866 397q0 -109 -31 -191t-87 -130.5t-128.5 -72t-160.5 -23.5t-160 23.5t-127.5 72.5t-86 130.5t-30.5 190.5q0 215 110.5 318.5t293.5 103.5q88 0 160.5 -24t128.5 -73.5t87 -132t31 -192.5zM573 397q0 110 -29 167t-83 57q-52 0 -82.5 -58t-30.5 -166t30.5 -165.5
t82.5 -57.5q54 0 83 56.5t29 166.5zM870 1137l-471 -195l-63 113l414 303z" />
    <glyph glyph-name="ocircumflex" unicode="&#xf4;" 
d="M866 397q0 -109 -31 -191t-87 -130.5t-128.5 -72t-160.5 -23.5t-160 23.5t-127.5 72.5t-86 130.5t-30.5 190.5q0 215 110.5 318.5t293.5 103.5q88 0 160.5 -24t128.5 -73.5t87 -132t31 -192.5zM573 397q0 110 -29 167t-83 57q-52 0 -82.5 -58t-30.5 -166t30.5 -165.5
t82.5 -57.5q54 0 83 56.5t29 166.5zM707 932l-267 145l-235 -145l-62 115l312 303l311 -303z" />
    <glyph glyph-name="otilde" unicode="&#xf5;" 
d="M866 397q0 -109 -31 -191t-87 -130.5t-128.5 -72t-160.5 -23.5t-160 23.5t-127.5 72.5t-86 130.5t-30.5 190.5q0 215 110.5 318.5t293.5 103.5q88 0 160.5 -24t128.5 -73.5t87 -132t31 -192.5zM573 397q0 110 -29 167t-83 57q-52 0 -82.5 -58t-30.5 -166t30.5 -165.5
t82.5 -57.5q54 0 83 56.5t29 166.5zM311 1272q66 0 177.5 -40t146.5 -40q26 0 36.5 17t10.5 63h117q0 -189 -37 -259.5t-135 -70.5q-72 0 -182.5 40t-145.5 40q-30 0 -43.5 -17t-13.5 -63h-113q0 184 43.5 257t138.5 73z" />
    <glyph glyph-name="odieresis" unicode="&#xf6;" 
d="M424 1124q0 -77 -50 -133.5t-126 -56.5t-125 56.5t-49 133.5q0 82 49 139.5t125 57.5t126 -58t50 -139zM838 1124q0 -77 -50 -133.5t-126 -56.5q-72 0 -122.5 57t-50.5 133q0 80 50 138.5t123 58.5q76 0 126 -58t50 -139zM866 397q0 -109 -31 -191t-87 -130.5t-128.5 -72
t-160.5 -23.5t-160 23.5t-127.5 72.5t-86 130.5t-30.5 190.5q0 215 110.5 318.5t293.5 103.5q88 0 160.5 -24t128.5 -73.5t87 -132t31 -192.5zM573 397q0 110 -29 167t-83 57q-52 0 -82.5 -58t-30.5 -166t30.5 -165.5t82.5 -57.5q54 0 83 56.5t29 166.5z" />
    <glyph glyph-name="divide" unicode="&#xf7;" horiz-adv-x="806" 
d="M580 170q0 -77 -50.5 -133.5t-126.5 -56.5t-125 56.5t-49 133.5q0 82 49 139.5t125 57.5q77 0 127 -58t50 -139zM580 893q0 -80 -50 -136.5t-127 -56.5q-76 0 -125 56.5t-49 136.5q0 81 49 137.5t125 56.5q77 0 127 -56.5t50 -137.5zM752 418h-695v223h695v-223z" />
    <glyph glyph-name="oslash" unicode="&#xf8;" 
d="M866 397q0 -109 -31 -191t-87 -130.5t-128.5 -72t-160.5 -23.5q-50 0 -105 10l-12 -33q-44 -94 -16 -156h-234q29 26 52 56.5t31.5 47.5t25.5 52l30 74q-33 20 -61 45q-115 109 -115 321q0 215 110.5 318.5t293.5 103.5q50 0 108 -10l17 37q14 31 20 51t8.5 51t-10.5 53
h232q-27 -24 -48 -51.5t-29.5 -44t-22.5 -48.5q-3 -7 -5 -11l-37 -84q30 -15 56 -41q118 -108 118 -324zM348 397q0 -36 4 -86l133 305q-20 5 -24 5q-52 0 -82.5 -58t-30.5 -166zM573 397q0 45 -6 80l-131 -301q8 -2 25 -2q54 0 83 56.5t29 166.5z" />
    <glyph glyph-name="ugrave" unicode="&#xf9;" horiz-adv-x="1005" 
d="M408 328q0 -133 73 -133q47 0 92 59l23 29v280q0 38 -1.5 59.5t-9.5 55t-27.5 63t-51.5 58.5h389v-563q0 -39 1.5 -60.5t9.5 -55t27.5 -62.5t51.5 -58h-352l-37 109v24q-96 -92 -152 -122.5t-116 -30.5q-49 0 -87 16t-69.5 54t-48.5 108.5t-17 171.5v233q0 38 -1.5 59.5
t-9.5 55t-27.5 63t-51.5 58.5h392v-471zM565 940l-471 197l121 221l416 -303z" />
    <glyph glyph-name="uacute" unicode="&#xfa;" horiz-adv-x="1005" 
d="M408 328q0 -133 73 -133q47 0 92 59l23 29v280q0 38 -1.5 59.5t-9.5 55t-27.5 63t-51.5 58.5h389v-563q0 -39 1.5 -60.5t9.5 -55t27.5 -62.5t51.5 -58h-352l-37 109v24q-96 -92 -152 -122.5t-116 -30.5q-49 0 -87 16t-69.5 54t-48.5 108.5t-17 171.5v233q0 38 -1.5 59.5
t-9.5 55t-27.5 63t-51.5 58.5h392v-471zM913 1137l-471 -195l-63 113l414 303z" />
    <glyph glyph-name="ucircumflex" unicode="&#xfb;" horiz-adv-x="1005" 
d="M408 328q0 -133 73 -133q47 0 92 59l23 29v280q0 38 -1.5 59.5t-9.5 55t-27.5 63t-51.5 58.5h389v-563q0 -39 1.5 -60.5t9.5 -55t27.5 -62.5t51.5 -58h-352l-37 109v24q-96 -92 -152 -122.5t-116 -30.5q-49 0 -87 16t-69.5 54t-48.5 108.5t-17 171.5v233q0 38 -1.5 59.5
t-9.5 55t-27.5 63t-51.5 58.5h392v-471zM748 932l-267 145l-235 -145l-62 115l312 303l311 -303z" />
    <glyph glyph-name="udieresis" unicode="&#xfc;" horiz-adv-x="1005" 
d="M408 328q0 -133 73 -133q47 0 92 59l23 29v280q0 38 -1.5 59.5t-9.5 55t-27.5 63t-51.5 58.5h389v-563q0 -39 1.5 -60.5t9.5 -55t27.5 -62.5t51.5 -58h-352l-37 109v24q-96 -92 -152 -122.5t-116 -30.5q-49 0 -87 16t-69.5 54t-48.5 108.5t-17 171.5v254q-1 45 -5.5 73
t-25 67.5t-59.5 74.5h392v-471zM463 1124q0 -77 -50 -133.5t-126 -56.5q-72 0 -122 57t-50 133q0 81 49.5 139t122.5 58q76 0 126 -58t50 -139zM879 1124q0 -77 -50.5 -133.5t-126.5 -56.5q-73 0 -122.5 56.5t-49.5 133.5q0 81 49 139t123 58q77 0 127 -58t50 -139z" />
    <glyph glyph-name="yacute" unicode="&#xfd;" horiz-adv-x="1005" 
d="M72 -164q104 0 183 64t146 182l-200 383q-19 36 -50 95.5t-43 82t-33.5 57t-40.5 56t-44 43.5h444q-8 -21 -8.5 -46.5t3 -46t13.5 -49.5t17.5 -46.5t21.5 -47.5l74 -168l80 168q33 71 33 146q0 37 -17 90h371q-42 -36 -78.5 -86t-55.5 -84.5t-67 -128.5l-196 -400
q-65 -130 -124.5 -224.5t-111 -153t-104.5 -93t-99.5 -47t-101.5 -12.5q-42 0 -96 14v266q41 -14 84 -14zM969 1137l-471 -195l-64 113l414 303z" />
    <glyph glyph-name="thorn" unicode="&#xfe;" horiz-adv-x="1026" 
d="M88 -195v1250q0 53 -2.5 81.5t-19 72.5t-50.5 81h471q-35 -37 -52 -81.5t-19 -72t-2 -81.5v-400q46 80 104.5 122t149.5 42q140 0 221.5 -105.5t81.5 -305.5v-13q0 -200 -81.5 -307.5t-221.5 -107.5q-91 0 -150 41t-104 120v-336q0 -54 2 -81.5t19 -72t52 -81.5h-471
q34 37 50.5 81t19 72.5t2.5 81.5zM547 604q-66 0 -133 -82v-246q66 -81 133 -81q104 0 104 198v17q0 194 -104 194z" />
    <glyph glyph-name="ydieresis" unicode="&#xff;" horiz-adv-x="1005" 
d="M72 -164q104 0 183 64t146 182l-200 383q-19 36 -50 95.5t-43 82t-33.5 57t-40.5 56t-44 43.5h444q-8 -21 -8.5 -46.5t3 -46t13.5 -49.5t17.5 -46.5t21.5 -47.5l74 -168l80 168q33 71 33 146q0 37 -17 90h371q-42 -36 -78.5 -86t-55.5 -84.5t-67 -128.5l-196 -400
q-65 -130 -124.5 -224.5t-111 -153t-104.5 -93t-99.5 -47t-101.5 -12.5q-42 0 -96 14v266q41 -14 84 -14zM522 1124q0 -77 -50 -133.5t-126 -56.5t-125 56.5t-49 133.5q0 82 49 139.5t125 57.5t126 -58t50 -139zM936 1124q0 -77 -49 -133.5t-125 -56.5t-125 56.5t-49 133.5
q0 82 49 139.5t125 57.5t125 -57.5t49 -139.5z" />
    <glyph glyph-name="Amacron" unicode="&#x100;" horiz-adv-x="1347" 
d="M887 0q17 86 -47 287h-412q-35 -106 -49 -171.5t-4 -115.5h-393q42 30 88 111t137 299l444 1038l27 18l446 -1015q97 -225 150.5 -323t103.5 -128h-491zM625 887l-129 -395h270zM979 1528h-600v223h600v-223z" />
    <glyph glyph-name="amacron" unicode="&#x101;" horiz-adv-x="905" 
d="M795 236q0 -39 1.5 -60.5t9.5 -55t27.5 -62.5t51.5 -58h-355l-26 80q-51 -100 -211 -100q-119 0 -178.5 52.5t-59.5 143.5q0 58 24 103.5t63 73t85.5 49t93.5 37t86 31.5t63 38.5t24 52.5q0 66 -76 66q-71 0 -156.5 -50.5t-134.5 -105.5v338q15 -31 39 -31q3 0 94.5 20.5
t175.5 20.5q188 0 273.5 -85t85.5 -245v-253zM424 156q27 0 46.5 27t23.5 83v103q-19 -19 -56 -43.5t-55 -46t-18 -54.5t17 -51t42 -18zM733 934h-600v223h600v-223z" />
    <glyph glyph-name="Abreve" unicode="&#x102;" horiz-adv-x="1347" 
d="M887 0q17 86 -47 287h-412q-35 -106 -49 -171.5t-4 -115.5h-393q42 30 88 111t137 299l444 1038l27 18l446 -1015q97 -225 150.5 -323t103.5 -128h-491zM625 887l-129 -395h270zM811 1855h154q0 -82 -24 -145t-65.5 -100t-92 -55.5t-107.5 -18.5t-107 18.5t-90.5 55.5
t-64 100t-23.5 145h154q0 -108 133 -108q63 0 98 27.5t35 80.5z" />
    <glyph glyph-name="abreve" unicode="&#x103;" horiz-adv-x="905" 
d="M795 236q0 -39 1.5 -60.5t9.5 -55t27.5 -62.5t51.5 -58h-355l-26 80q-51 -100 -211 -100q-119 0 -178.5 52.5t-59.5 143.5q0 58 24 103.5t63 73t85.5 49t93.5 37t86 31.5t63 38.5t24 52.5q0 66 -76 66q-71 0 -156.5 -50.5t-134.5 -105.5v338q15 -31 39 -31q3 0 94.5 20.5
t175.5 20.5q188 0 273.5 -85t85.5 -245v-253zM424 156q27 0 46.5 27t23.5 83v103q-19 -19 -56 -43.5t-55 -46t-18 -54.5t17 -51t42 -18zM565 1262h154q0 -159 -84 -239.5t-205 -80.5q-57 0 -107 18.5t-90.5 56t-64 100.5t-23.5 145h154q0 -54 35 -81.5t98 -27.5t98 28t35 81
z" />
    <glyph glyph-name="Aogonek" unicode="&#x104;" horiz-adv-x="1376" 
d="M887 0q17 86 -47 287h-412q-35 -106 -49 -171.5t-4 -115.5h-393q42 30 88 111t137 299l444 1038l27 18l446 -1015q97 -225 150.5 -323t103.5 -128h-139q-80 -80 -109.5 -129t-29.5 -92q0 -70 67 -70q81 0 156 78l-72 -233q-73 -56 -176 -56q-105 0 -160 52t-55 149
q0 88 44 157t140 144h-157zM625 887l-129 -395h270z" />
    <glyph glyph-name="aogonek" unicode="&#x105;" horiz-adv-x="905" 
d="M424 -301q0 88 44 157t140 144h-78l-26 80q-51 -100 -211 -100q-119 0 -178.5 52.5t-59.5 143.5q0 58 24 103.5t63 73t85.5 49t93.5 37t86 31.5t63 38.5t24 52.5q0 66 -76 66q-71 0 -156.5 -50.5t-134.5 -105.5v338q15 -31 39 -31q3 0 94.5 20.5t175.5 20.5
q188 0 273.5 -85t85.5 -245v-253q0 -39 1.5 -60.5t9.5 -55t27.5 -62.5t51.5 -58h-82q-80 -80 -109.5 -129t-29.5 -92q0 -70 67 -70q81 0 156 78l-72 -233q-73 -56 -176 -56q-105 0 -160 52t-55 149zM424 156q27 0 46.5 27t23.5 83v103q-19 -19 -56 -43.5t-55 -46t-18 -54.5
t17 -51t42 -18z" />
    <glyph glyph-name="Cacute" unicode="&#x106;" horiz-adv-x="1234" 
d="M756 1196q-161 0 -250.5 -123t-89.5 -348q0 -237 100 -361t299 -124q217 0 377 137l-74 -316q-51 -36 -143.5 -58.5t-206.5 -22.5q-116 0 -218 26t-190.5 83.5t-152 142.5t-99.5 209.5t-36 277.5q0 152 36 277t97.5 208.5t145 141t176 83t192.5 25.5q89 0 167 -20
t124 -40t59 -20q39 0 59 33v-455q-77 119 -166 181.5t-206 62.5zM1128 1735l-471 -195l-63 113l414 303z" />
    <glyph glyph-name="cacute" unicode="&#x107;" horiz-adv-x="747" 
d="M500 616q-61 0 -94 -54.5t-33 -153.5q0 -209 166 -209q85 0 176 39l-64 -228q-66 -30 -182 -30q-202 0 -309 108t-107 307q0 200 105 312t286 112q52 0 89 -9.5t56 -18.5t29 -9q16 0 30 14l14 13v-317q-66 124 -162 124zM858 1137l-471 -195l-63 113l413 303z" />
    <glyph glyph-name="Ccircumflex" unicode="&#x108;" horiz-adv-x="1234" 
d="M756 1196q-161 0 -250.5 -123t-89.5 -348q0 -237 100 -361t299 -124q217 0 377 137l-74 -316q-51 -36 -143.5 -58.5t-206.5 -22.5q-116 0 -218 26t-190.5 83.5t-152 142.5t-99.5 209.5t-36 277.5q0 152 36 277t97.5 208.5t145 141t176 83t192.5 25.5q89 0 167 -20
t124 -40t59 -20q39 0 59 33v-455q-77 119 -166 181.5t-206 62.5zM965 1528l-267 145l-235 -145l-62 114l312 304l311 -304z" />
    <glyph glyph-name="ccircumflex" unicode="&#x109;" horiz-adv-x="747" 
d="M500 616q-61 0 -94 -54.5t-33 -153.5q0 -209 166 -209q85 0 176 39l-64 -228q-66 -30 -182 -30q-202 0 -309 108t-107 307q0 200 105 312t286 112q52 0 89 -9.5t56 -18.5t29 -9q16 0 30 14l14 13v-317q-66 124 -162 124zM692 932l-266 145l-236 -145l-61 115l311 303
l312 -303z" />
    <glyph glyph-name="Cdotaccent" unicode="&#x10a;" horiz-adv-x="1234" 
d="M895 1735q0 -80 -49.5 -135.5t-126.5 -55.5q-76 0 -125 55.5t-49 135.5q0 81 49 138.5t125 57.5t126 -57.5t50 -138.5zM756 1196q-161 0 -250.5 -123t-89.5 -348q0 -237 100 -361t299 -124q217 0 377 137l-74 -316q-51 -36 -143.5 -58.5t-206.5 -22.5q-116 0 -218 26
t-190.5 83.5t-152 142.5t-99.5 209.5t-36 277.5q0 152 36 277t97.5 208.5t145 141t176 83t192.5 25.5q89 0 167 -20t124 -40t59 -20q39 0 59 33v-455q-77 119 -166 181.5t-206 62.5z" />
    <glyph glyph-name="cdotaccent" unicode="&#x10b;" horiz-adv-x="747" 
d="M621 1137q0 -77 -50.5 -134t-126.5 -57t-125 56.5t-49 134.5q0 81 49 138.5t125 57.5q77 0 127 -57.5t50 -138.5zM500 616q-61 0 -94 -54.5t-33 -153.5q0 -209 166 -209q85 0 176 39l-64 -228q-66 -30 -182 -30q-202 0 -309 108t-107 307q0 200 105 312t286 112
q52 0 89 -9.5t56 -18.5t29 -9q16 0 30 14l14 13v-317q-66 124 -162 124z" />
    <glyph glyph-name="Ccaron" unicode="&#x10c;" horiz-adv-x="1234" 
d="M756 1196q-161 0 -250.5 -123t-89.5 -348q0 -237 100 -361t299 -124q217 0 377 137l-74 -316q-51 -36 -143.5 -58.5t-206.5 -22.5q-116 0 -218 26t-190.5 83.5t-152 142.5t-99.5 209.5t-36 277.5q0 152 36 277t97.5 208.5t145 141t176 83t192.5 25.5q89 0 167 -20
t124 -40t59 -20q39 0 59 33v-455q-77 119 -166 181.5t-206 62.5zM465 1948l252 -140l250 140l61 -115l-311 -303l-311 303z" />
    <glyph glyph-name="ccaron" unicode="&#x10d;" horiz-adv-x="747" 
d="M500 616q-61 0 -94 -54.5t-33 -153.5q0 -209 166 -209q85 0 176 39l-64 -228q-66 -30 -182 -30q-202 0 -309 108t-107 307q0 200 105 312t286 112q52 0 89 -9.5t56 -18.5t29 -9q16 0 30 14l14 13v-317q-66 124 -162 124zM193 1350l251 -140l250 140l62 -115l-312 -303
l-311 303z" />
    <glyph glyph-name="Dcaron" unicode="&#x10e;" horiz-adv-x="1388" 
d="M545 1432q172 -6 311 -52t244 -132.5t162 -224.5t57 -318q0 -174 -57 -307.5t-162 -217.5t-244 -129t-311 -51h-469q34 37 50.5 81.5t18.5 72.5t2 82v962q0 54 -2 82t-18.5 72.5t-50.5 81.5h471zM473 195h21q96 0 178.5 27.5t151.5 85t109 159.5t40 238q0 113 -27 205
t-71.5 152.5t-105.5 101t-127 58t-138 17.5h-31v-1044zM385 1942l252 -140l250 140l61 -115l-311 -303l-311 303z" />
    <glyph glyph-name="dcaron" unicode="&#x10f;" horiz-adv-x="1413" 
d="M866 1423v-1187q0 -41 1 -60.5t7 -54t21 -63.5t41 -58h-336l-20 90q-83 -110 -220 -110q-142 0 -223.5 107t-81.5 308v13q0 200 81.5 305.5t223.5 105.5q124 0 203 -92l2 201q0 172 -19 257t-61 130zM479 195q46 0 84 32v344q-39 33 -84 33q-104 0 -104 -194v-17
q0 -198 104 -198zM1372 1313q0 -259 -299 -443l-51 95q81 41 121.5 93.5t40.5 98.5q0 27 -15 46.5t-37 33.5t-44 29t-37 41.5t-15 62.5q0 68 44.5 117t115.5 49q81 0 128.5 -58t47.5 -165z" />
    <glyph glyph-name="Dcroat" unicode="&#x110;" horiz-adv-x="1404" 
d="M559 1432q173 -6 312 -52t244.5 -132.5t162.5 -224.5t57 -318q0 -140 -37.5 -254t-105.5 -195t-165 -137.5t-214 -85t-254 -33.5h-467q34 37 50.5 81.5t19 73t2.5 81.5v391h-111v223h111v348q0 53 -2.5 81.5t-19 73t-50.5 81.5h469zM653 627h-164v-432h21
q96 0 178.5 27.5t151.5 85t109 159.5t40 238q0 113 -27 205t-71.5 152.5t-105.5 101t-127 58t-138 17.5h-31v-389h164v-223z" />
    <glyph glyph-name="dcroat" unicode="&#x111;" horiz-adv-x="964" 
d="M1006 905h-138v-669q0 -41 1 -60.5t7 -54t21 -63.5t41 -58h-336l-22 90q-83 -110 -218 -110q-142 0 -223.5 105.5t-81.5 305.5v12q0 201 81.5 308.5t223.5 107.5q121 0 201 -90l2 176h-268v223h258q-13 126 -68 187l381 108v-295h138v-223zM481 195q39 0 82 30v346
q-39 33 -82 33q-104 0 -104 -198v-17q0 -194 104 -194z" />
    <glyph glyph-name="Emacron" unicode="&#x112;" horiz-adv-x="1032" 
d="M76 0q34 37 50.5 81.5t18.5 72.5t2 82v962q0 54 -2 82t-18.5 72.5t-50.5 81.5h770v-299q-20 30 -47.5 50t-61.5 29t-63 12t-66 3h-135v-359h135q147 0 238 60v-344q-89 59 -238 59h-135v-409h86q392 0 463 92l-145 -328h-801zM774 1530h-600v223h600v-223z" />
    <glyph glyph-name="emacron" unicode="&#x113;" horiz-adv-x="864" 
d="M801 350h-426q8 -82 53.5 -128t144.5 -46q114 0 236 39l-64 -205q-82 -30 -296 -30q-184 0 -290 107.5t-106 307.5q0 201 108 312.5t290 111.5q171 0 262.5 -97.5t91.5 -272.5zM444 641q-62 0 -71 -147h149q0 60 -19.5 103.5t-58.5 43.5zM752 934h-600v223h600v-223z" />
    <glyph glyph-name="Ebreve" unicode="&#x114;" horiz-adv-x="1032" 
d="M76 0q34 37 50.5 81.5t18.5 72.5t2 82v962q0 54 -2 82t-18.5 72.5t-50.5 81.5h770v-299q-20 30 -47.5 50t-61.5 29t-63 12t-66 3h-135v-359h135q147 0 238 60v-344q-89 59 -238 59h-135v-409h86q392 0 463 92l-145 -328h-801zM606 1860h154q0 -159 -84 -239.5t-205 -80.5
q-57 0 -107 18.5t-90.5 56t-64 100.5t-23.5 145h154q0 -54 35 -81.5t98 -27.5t98 28t35 81z" />
    <glyph glyph-name="ebreve" unicode="&#x115;" horiz-adv-x="864" 
d="M801 350h-426q8 -82 53.5 -128t144.5 -46q114 0 236 39l-64 -205q-82 -30 -296 -30q-184 0 -290 107.5t-106 307.5q0 201 108 312.5t290 111.5q171 0 262.5 -97.5t91.5 -272.5zM444 641q-62 0 -71 -147h149q0 60 -19.5 103.5t-58.5 43.5zM584 1262h153q0 -82 -24 -145
t-65 -100.5t-91.5 -56t-107.5 -18.5t-107 18.5t-90.5 56t-64 100.5t-23.5 145h153q0 -54 35.5 -81.5t98.5 -27.5t98 28t35 81z" />
    <glyph glyph-name="Edotaccent" unicode="&#x116;" horiz-adv-x="1032" 
d="M76 0q34 37 50.5 81.5t18.5 72.5t2 82v962q0 54 -2 82t-18.5 72.5t-50.5 81.5h770v-299q-20 30 -47.5 50t-61.5 29t-63 12t-66 3h-135v-359h135q147 0 238 60v-344q-89 59 -238 59h-135v-409h86q392 0 463 92l-145 -328h-801zM647 1735q0 -77 -50 -134t-126 -57
q-72 0 -123 57.5t-51 133.5q0 80 50.5 138t123.5 58q76 0 126 -57.5t50 -138.5z" />
    <glyph glyph-name="edotaccent" unicode="&#x117;" horiz-adv-x="864" 
d="M627 1137q0 -76 -51 -133.5t-125 -57.5q-76 0 -125.5 57t-49.5 134q0 81 49.5 138.5t125.5 57.5q74 0 125 -58t51 -138zM801 350h-426q8 -82 53.5 -128t144.5 -46q114 0 236 39l-64 -205q-82 -30 -296 -30q-184 0 -290 107.5t-106 307.5q0 201 108 312.5t290 111.5
q171 0 262.5 -97.5t91.5 -272.5zM444 641q-62 0 -71 -147h149q0 60 -19.5 103.5t-58.5 43.5z" />
    <glyph glyph-name="Eogonek" unicode="&#x118;" horiz-adv-x="1032" 
d="M76 0q34 37 50.5 81.5t18.5 72.5t2 82v962q0 54 -2 82t-18.5 72.5t-50.5 81.5h770v-299q-20 30 -47.5 50t-61.5 29t-63 12t-66 3h-135v-359h135q147 0 238 60v-344q-89 59 -238 59h-135v-409h86q392 0 463 92l-145 -328h-3q-80 -80 -109.5 -129t-29.5 -92q0 -70 68 -70
q80 0 155 78l-71 -233q-73 -56 -176 -56q-105 0 -160 52t-55 149q0 88 44 157t140 144h-604z" />
    <glyph glyph-name="eogonek" unicode="&#x119;" horiz-adv-x="864" 
d="M367 -291q0 78 35.5 143t109.5 128h-63q-184 0 -290 107.5t-106 307.5q0 201 108 312.5t290 111.5q171 0 262.5 -97.5t91.5 -272.5l-4 -99h-426q8 -82 53.5 -128t144.5 -46q114 0 236 39l-64 -205q-80 -80 -109.5 -129t-29.5 -92q0 -70 68 -70q80 0 155 78l-71 -233
q-73 -56 -176 -56q-105 0 -160 52t-55 149zM444 641q-62 0 -71 -147h149q0 60 -19.5 103.5t-58.5 43.5z" />
    <glyph glyph-name="Ecaron" unicode="&#x11a;" horiz-adv-x="1032" 
d="M76 0q34 37 50.5 81.5t18.5 72.5t2 82v962q0 54 -2 82t-18.5 72.5t-50.5 81.5h770v-299q-20 30 -47.5 50t-61.5 29t-63 12t-66 3h-135v-359h135q147 0 238 60v-344q-89 59 -238 59h-135v-409h86q392 0 463 92l-145 -328h-801zM219 1948l252 -140l250 140l61 -115
l-311 -303l-311 303z" />
    <glyph glyph-name="ecaron" unicode="&#x11b;" horiz-adv-x="864" 
d="M801 350h-426q8 -82 53.5 -128t144.5 -46q114 0 236 39l-64 -205q-82 -30 -296 -30q-184 0 -290 107.5t-106 307.5q0 201 108 312.5t290 111.5q171 0 262.5 -97.5t91.5 -272.5zM444 641q-62 0 -71 -147h149q0 60 -19.5 103.5t-58.5 43.5zM199 1350l252 -140l249 140
l62 -115l-311 -303l-312 303z" />
    <glyph glyph-name="Gcircumflex" unicode="&#x11c;" horiz-adv-x="1292" 
d="M1171 385v-362q-189 -41 -360 -41q-339 0 -540 194.5t-201 540.5q0 174 53 315t144.5 232.5t213.5 140.5t262 49q69 0 133 -12.5t100.5 -27.5t69 -27.5t46.5 -12.5q20 0 40 15.5t21 15.5v-455q-90 134 -182 190t-201 56q-173 0 -264.5 -123.5t-91.5 -353.5
q0 -477 399 -477q27 0 33 2v141q0 53 -2.5 82.5t-19 75t-50.5 82.5h471q-35 -37 -52 -82.5t-19.5 -75t-2.5 -82.5zM991 1526l-266 145l-236 -145l-61 114l311 304l312 -304z" />
    <glyph glyph-name="gcircumflex" unicode="&#x11d;" horiz-adv-x="942" 
d="M823 498q0 -158 -95 -237t-277 -79q-45 0 -61.5 -5.5t-16.5 -22.5q0 -27 31 -35t102 -10q135 -9 188 -19q269 -52 269 -280q0 -153 -120.5 -239.5t-359.5 -86.5q-212 0 -318 65.5t-106 190.5q0 114 99 186q-58 45 -58 119q0 115 156 168q-180 74 -180 287
q0 158 96.5 238.5t278.5 80.5q88 0 155 -20h318v-187h-117q16 -59 16 -114zM475 -152q-71 5 -94 9q-40 -22 -63 -46t-23 -61q0 -49 41 -73.5t149 -24.5q87 0 136 13.5t64 33t15 51.5q0 41 -49.5 66t-175.5 32zM555 500q0 88 -28.5 131t-77.5 43t-77 -43.5t-28 -132.5
q0 -88 28 -131t77 -43t77.5 43.5t28.5 132.5zM698 932l-266 145l-235 -145l-62 115l311 303l312 -303z" />
    <glyph glyph-name="Gbreve" unicode="&#x11e;" horiz-adv-x="1292" 
d="M1171 385v-362q-189 -41 -360 -41q-339 0 -540 194.5t-201 540.5q0 174 53 315t144.5 232.5t213.5 140.5t262 49q69 0 133 -12.5t100.5 -27.5t69 -27.5t46.5 -12.5q20 0 40 15.5t21 15.5v-455q-90 134 -182 190t-201 56q-173 0 -264.5 -123.5t-91.5 -353.5
q0 -477 399 -477q27 0 33 2v141q0 53 -2.5 82.5t-19 75t-50.5 82.5h471q-35 -37 -52 -82.5t-19.5 -75t-2.5 -82.5zM879 1855h153q0 -82 -24 -145t-65.5 -100t-92 -55.5t-107.5 -18.5t-106.5 18.5t-90 55.5t-64 100t-23.5 145h153q0 -108 133 -108q63 0 98.5 27.5t35.5 80.5z
" />
    <glyph glyph-name="gbreve" unicode="&#x11f;" horiz-adv-x="942" 
d="M823 498q0 -158 -95 -237t-277 -79q-45 0 -61.5 -5.5t-16.5 -22.5q0 -27 31 -35t102 -10q135 -9 188 -19q269 -52 269 -280q0 -153 -120.5 -239.5t-359.5 -86.5q-212 0 -318 65.5t-106 190.5q0 114 99 186q-58 45 -58 119q0 115 156 168q-180 74 -180 287
q0 158 96.5 238.5t278.5 80.5q88 0 155 -20h318v-187h-117q16 -59 16 -114zM475 -152q-71 5 -94 9q-40 -22 -63 -46t-23 -61q0 -49 41 -73.5t149 -24.5q87 0 136 13.5t64 33t15 51.5q0 41 -49.5 66t-175.5 32zM555 500q0 88 -28.5 131t-77.5 43t-77 -43.5t-28 -132.5
q0 -88 28 -131t77 -43t77.5 43.5t28.5 132.5zM586 1262h153q0 -82 -24 -145t-65 -100.5t-91.5 -56t-107.5 -18.5t-107 18.5t-90.5 56t-64 100.5t-23.5 145h153q0 -54 35.5 -81.5t98.5 -27.5t98 28t35 81z" />
    <glyph glyph-name="Gdotaccent" unicode="&#x120;" horiz-adv-x="1292" 
d="M920 1731q0 -77 -50.5 -134t-126.5 -57t-125 56.5t-49 134.5q0 81 49 138.5t125 57.5q77 0 127 -57.5t50 -138.5zM1171 385v-362q-189 -41 -360 -41q-339 0 -540 194.5t-201 540.5q0 174 53 315t144.5 232.5t213.5 140.5t262 49q69 0 133 -12.5t100.5 -27.5t69 -27.5
t46.5 -12.5q20 0 40 15.5t21 15.5v-455q-90 134 -182 190t-201 56q-173 0 -264.5 -123.5t-91.5 -353.5q0 -477 399 -477q27 0 33 2v141q0 53 -2.5 82.5t-19 75t-50.5 82.5h471q-35 -37 -52 -82.5t-19.5 -75t-2.5 -82.5z" />
    <glyph glyph-name="gdotaccent" unicode="&#x121;" horiz-adv-x="942" 
d="M627 1137q0 -77 -50 -134t-126 -57t-125.5 57t-49.5 134q0 81 49.5 138.5t125.5 57.5t126 -57.5t50 -138.5zM823 498q0 -158 -95 -237t-277 -79q-45 0 -61.5 -5.5t-16.5 -22.5q0 -27 31 -35t102 -10q135 -9 188 -19q269 -52 269 -280q0 -153 -120.5 -239.5t-359.5 -86.5
q-212 0 -318 65.5t-106 190.5q0 114 99 186q-58 45 -58 119q0 115 156 168q-180 74 -180 287q0 158 96.5 238.5t278.5 80.5q88 0 155 -20h318v-187h-117q16 -59 16 -114zM475 -152q-71 5 -94 9q-40 -22 -63 -46t-23 -61q0 -49 41 -73.5t149 -24.5q87 0 136 13.5t64 33
t15 51.5q0 41 -49.5 66t-175.5 32zM555 500q0 88 -28.5 131t-77.5 43t-77 -43.5t-28 -132.5q0 -88 28 -131t77 -43t77.5 43.5t28.5 132.5z" />
    <glyph glyph-name="Gcommaaccent" unicode="&#x122;" horiz-adv-x="1292" 
d="M1171 385v-362q-189 -41 -360 -41q-339 0 -540 194.5t-201 540.5q0 174 53 315t144.5 232.5t213.5 140.5t262 49q69 0 133 -12.5t100.5 -27.5t69 -27.5t46.5 -12.5q20 0 40 15.5t21 15.5v-455q-90 134 -182 190t-201 56q-173 0 -264.5 -123.5t-91.5 -353.5
q0 -477 399 -477q27 0 33 2v141q0 53 -2.5 82.5t-19 75t-50.5 82.5h471q-35 -37 -52 -82.5t-19.5 -75t-2.5 -82.5z" />
    <glyph glyph-name="gcommaaccent" unicode="&#x123;" horiz-adv-x="942" 
d="M823 498q0 -158 -95 -237t-277 -79q-45 0 -61.5 -5.5t-16.5 -22.5q0 -27 31 -35t102 -10q135 -9 188 -19q269 -52 269 -280q0 -153 -120.5 -239.5t-359.5 -86.5q-212 0 -318 65.5t-106 190.5q0 114 99 186q-58 45 -58 119q0 115 156 168q-180 74 -180 287
q0 158 96.5 238.5t278.5 80.5q88 0 155 -20h318v-187h-117q16 -59 16 -114zM475 -152q-71 5 -94 9q-40 -22 -63 -46t-23 -61q0 -49 41 -73.5t149 -24.5q87 0 136 13.5t64 33t15 51.5q0 41 -49.5 66t-175.5 32zM555 500q0 88 -28.5 131t-77.5 43t-77 -43.5t-28 -132.5
q0 -88 28 -131t77 -43t77.5 43.5t28.5 132.5zM348 1063q0 194 225 334l39 -70q-62 -33 -92.5 -72t-30.5 -73q0 -24 17.5 -42.5t39 -29.5t39 -34t17.5 -56q0 -51 -33.5 -88t-87.5 -37q-62 0 -97.5 43.5t-35.5 124.5z" />
    <glyph glyph-name="Hcircumflex" unicode="&#x124;" horiz-adv-x="1404" 
d="M860 0q34 37 50.5 81.5t19 73t2.5 81.5v370h-459v-370q0 -53 2.5 -81.5t19.5 -73t52 -81.5h-471q34 37 50.5 81.5t18.5 72.5t2 82v962q0 54 -2 82t-18.5 72.5t-50.5 81.5h471q-35 -37 -52 -81.5t-19.5 -73t-2.5 -81.5v-367h459v367q0 53 -2.5 81.5t-19 73t-50.5 81.5h469
q-34 -37 -50.5 -81.5t-19 -73t-2.5 -81.5v-962q0 -53 2.5 -81.5t19 -73t50.5 -81.5h-469zM963 1524l-267 145l-235 -145l-62 114l312 304l311 -304z" />
    <glyph glyph-name="hcircumflex" unicode="&#x125;" horiz-adv-x="978" 
d="M406 236q0 -54 2 -82t18.5 -72.5t50.5 -81.5h-444q34 37 50.5 81.5t18.5 72.5t2 82v843q0 41 -1.5 61.5t-8 54.5t-23.5 62.5t-46 57.5l381 108v-747q89 85 143.5 114t112.5 29q50 0 88 -16t70 -54t48.5 -108.5t16.5 -171.5v-254q0 -67 13 -116.5t58 -98.5h-446
q34 37 50.5 81.5t19 73t2.5 81.5v235q0 133 -74 133q-44 0 -92 -59l-10 -15v-294zM483 1481l-266 145l-235 -145l-62 114l311 303l312 -303z" />
    <glyph glyph-name="Hbar" unicode="&#x126;" horiz-adv-x="1425" 
d="M1270 1198v-16h94v-224h-94v-722q0 -54 2 -82t18.5 -72.5t50.5 -81.5h-471q35 37 52 81.5t19.5 73t2.5 81.5v370h-459v-370q0 -53 2.5 -81.5t19.5 -73t52 -81.5h-471q34 37 50.5 81.5t19 73t2.5 81.5v722h-105v224h105v16q0 53 -2.5 81.5t-19 73t-50.5 81.5h471
q-35 -37 -52 -81.5t-19.5 -73t-2.5 -81.5v-16h459v16q0 53 -2.5 81.5t-19.5 73t-52 81.5h471q-34 -37 -50.5 -81.5t-18.5 -72.5t-2 -82zM485 958v-127h459v127h-459z" />
    <glyph glyph-name="hbar" unicode="&#x127;" horiz-adv-x="978" 
d="M555 989h-149v-313q89 85 143.5 114t112.5 29q50 0 88 -16t70 -54t48.5 -108.5t16.5 -171.5v-254q0 -67 13 -116.5t58 -98.5h-446q34 37 50.5 81.5t19 73t2.5 81.5v235q0 133 -74 133q-44 0 -92 -59l-10 -15v-294q0 -54 2 -82t18.5 -72.5t50.5 -81.5h-444
q34 37 50.5 81.5t18.5 72.5t2 82v753h-149v223h135q-28 66 -65 103l381 108v-211h149v-223z" />
    <glyph glyph-name="Itilde" unicode="&#x128;" horiz-adv-x="622" 
d="M473 1198v-962q0 -53 2.5 -81.5t19.5 -73t52 -81.5h-471q34 37 50.5 81.5t18.5 72.5t2 82v962q0 54 -2 82t-18.5 72.5t-50.5 81.5h471q-35 -37 -52 -81.5t-19.5 -73t-2.5 -81.5zM160 1864q66 0 177 -40t146 -40q26 0 36.5 17t10.5 63h117q0 -189 -37 -259.5t-135 -70.5
q-72 0 -182.5 40t-145.5 40q-30 0 -43.5 -17t-13.5 -63h-113q0 183 43.5 256.5t139.5 73.5z" />
    <glyph glyph-name="itilde" unicode="&#x129;" horiz-adv-x="520" 
d="M416 799v-563q0 -54 2 -82t18.5 -72.5t50.5 -81.5h-444q34 37 50.5 81.5t19 73t2.5 81.5v327q0 38 -1.5 59.5t-9.5 55t-27.5 63t-51.5 58.5h391zM117 1272q66 0 177 -40t146 -40q26 0 36.5 17t10.5 63h117q0 -189 -37 -259.5t-135 -70.5q-72 0 -182.5 40t-145.5 40
q-30 0 -43.5 -17t-13.5 -63h-113q0 183 43.5 256.5t139.5 73.5z" />
    <glyph glyph-name="Imacron" unicode="&#x12a;" horiz-adv-x="622" 
d="M473 1198v-962q0 -53 2.5 -81.5t19.5 -73t52 -81.5h-471q34 37 50.5 81.5t18.5 72.5t2 82v962q0 54 -2 82t-18.5 72.5t-50.5 81.5h471q-35 -37 -52 -81.5t-19.5 -73t-2.5 -81.5zM612 1526h-600v223h600v-223z" />
    <glyph glyph-name="imacron" unicode="&#x12b;" horiz-adv-x="520" 
d="M416 799v-563q0 -54 2 -82t18.5 -72.5t50.5 -81.5h-444q34 37 50.5 81.5t19 73t2.5 81.5v327q0 38 -1.5 59.5t-9.5 55t-27.5 63t-51.5 58.5h391zM567 934h-600v223h600v-223z" />
    <glyph glyph-name="Ibreve" unicode="&#x12c;" horiz-adv-x="622" 
d="M473 1198v-962q0 -53 2.5 -81.5t19.5 -73t52 -81.5h-471q34 37 50.5 81.5t18.5 72.5t2 82v962q0 54 -2 82t-18.5 72.5t-50.5 81.5h471q-35 -37 -52 -81.5t-19.5 -73t-2.5 -81.5zM442 1853h154q0 -82 -24 -145t-65.5 -100t-92 -55.5t-107.5 -18.5t-106.5 18.5t-90 55.5
t-64 100t-23.5 145h153q0 -108 133 -108q63 0 98 27.5t35 80.5z" />
    <glyph glyph-name="ibreve" unicode="&#x12d;" horiz-adv-x="520" 
d="M416 799v-563q0 -54 2 -82t18.5 -72.5t50.5 -81.5h-444q34 37 50.5 81.5t19 73t2.5 81.5v327q0 38 -1.5 59.5t-9.5 55t-27.5 63t-51.5 58.5h391zM399 1262h154q0 -159 -84 -239.5t-205 -80.5q-57 0 -106.5 18.5t-90 56t-64 100.5t-23.5 145h153q0 -54 35 -81.5t98 -27.5
t98 28t35 81z" />
    <glyph glyph-name="Iogonek" unicode="&#x12e;" horiz-adv-x="622" 
d="M47 -301q0 88 44 157t140 144h-155q34 37 50.5 81.5t18.5 72.5t2 82v962q0 54 -2 82t-18.5 72.5t-50.5 81.5h471q-35 -37 -52 -81.5t-19.5 -73t-2.5 -81.5v-962q0 -53 2.5 -81.5t19.5 -73t52 -81.5h-121q-80 -80 -109.5 -129t-29.5 -92q0 -70 67 -70q81 0 156 78
l-72 -233q-73 -56 -176 -56q-105 0 -160 52t-55 149z" />
    <glyph glyph-name="iogonek" unicode="&#x12f;" horiz-adv-x="520" 
d="M35 -301q0 88 44 157t140 144h-176q34 37 50.5 81.5t19 73t2.5 81.5v327q0 38 -1.5 59.5t-9.5 55t-27.5 63t-51.5 58.5h391v-563q0 -54 2 -82t18.5 -72.5t50.5 -81.5h-73q-80 -80 -110 -129t-30 -92q0 -70 68 -70q81 0 156 78l-72 -233q-73 -56 -176 -56q-105 0 -160 52
t-55 149zM432 1169q0 -79 -49.5 -134.5t-126.5 -55.5q-76 0 -125 55t-49 135q0 82 49 139.5t125 57.5t126 -58t50 -139z" />
    <glyph glyph-name="Idotaccent" unicode="&#x130;" horiz-adv-x="622" 
d="M473 1198v-962q0 -53 2.5 -81.5t19.5 -73t52 -81.5h-471q34 37 50.5 81.5t18.5 72.5t2 82v962q0 54 -2 82t-18.5 72.5t-50.5 81.5h471q-35 -37 -52 -81.5t-19.5 -73t-2.5 -81.5zM483 1731q0 -80 -50 -136.5t-126 -56.5q-73 0 -122.5 57t-49.5 136q0 80 49.5 137t122.5 57
q77 0 126.5 -56.5t49.5 -137.5z" />
    <glyph glyph-name="dotlessi" unicode="&#x131;" horiz-adv-x="520" 
d="M416 799v-563q0 -54 2 -82t18.5 -72.5t50.5 -81.5h-444q34 37 50.5 81.5t19 73t2.5 81.5v327q0 38 -1.5 59.5t-9.5 55t-27.5 63t-51.5 58.5h391z" />
    <glyph glyph-name="IJ" unicode="&#x132;" horiz-adv-x="1716" 
d="M1583 1198v-649q0 -152 -38 -264t-107 -177.5t-157 -96.5t-196 -31q-65 0 -117.5 10.5t-79.5 21.5t-30 11q-6 0 -14 -8t-14 -17l-5 -8v497q49 -151 100.5 -209.5t131.5 -58.5q34 0 62 8.5t54 31.5t44 59.5t29 96t11 138.5v645q0 54 -2 82t-18.5 72.5t-50.5 81.5h471
q-35 -37 -52 -81.5t-19.5 -73t-2.5 -81.5zM473 1198v-962q0 -53 2.5 -81.5t19.5 -73t52 -81.5h-471q34 37 50.5 81.5t18.5 72.5t2 82v962q0 54 -2 82t-18.5 72.5t-50.5 81.5h471q-35 -37 -52 -81.5t-19.5 -73t-2.5 -81.5z" />
    <glyph glyph-name="ij" unicode="&#x133;" horiz-adv-x="1017" 
d="M559 -244q25 0 47.5 29t22.5 94v684q0 38 -1.5 59.5t-9.5 55t-27.5 63t-51.5 58.5h391v-873q0 -183 -78.5 -280t-216.5 -97q-57 0 -115.5 17.5t-62.5 17.5q-24 0 -27 -14v342q64 -156 129 -156zM416 236q0 -54 2 -82t18.5 -72.5t50.5 -81.5h-444q34 37 50.5 81.5t19 73
t2.5 81.5v327q0 38 -1.5 59.5t-9.5 55t-27.5 63t-51.5 58.5h391v-563zM948 1169q0 -79 -49.5 -134.5t-126.5 -55.5q-76 0 -125 55t-49 135q0 82 49 139.5t125 57.5t126 -58t50 -139zM436 1169q0 -79 -49.5 -134.5t-126.5 -55.5q-74 0 -123 55.5t-49 134.5q0 81 49 139
t123 58q76 0 126 -58t50 -139z" />
    <glyph glyph-name="Jcircumflex" unicode="&#x134;" horiz-adv-x="942" 
d="M811 1198v-649q0 -151 -38.5 -263.5t-107.5 -178t-157.5 -96.5t-196.5 -31q-65 0 -117.5 10.5t-79.5 21.5t-30 11q-8 0 -19.5 -16.5t-13.5 -16.5v497q50 -153 99.5 -210.5t132.5 -57.5q34 0 62 8.5t54 31.5t44 59.5t29 96t11 138.5v645q0 54 -2 82t-18.5 72.5t-50.5 81.5
h471q-34 -37 -50.5 -81.5t-19 -73t-2.5 -81.5zM897 1526l-266 145l-236 -145l-61 114l311 304l311 -304z" />
    <glyph glyph-name="jcircumflex" unicode="&#x135;" horiz-adv-x="495" 
d="M41 -244q23 0 45.5 29.5t22.5 93.5v684q0 38 -2 60t-10 55t-28 62.5t-53 58.5h392v-871q0 -86 -19.5 -154t-50.5 -109t-72 -68t-80.5 -37.5t-79.5 -10.5q-43 0 -97.5 12.5t-59.5 12.5q-7 0 -19.5 -5t-19.5 -5v346q26 -66 60.5 -110t70.5 -44zM506 932l-266 145l-236 -145
l-61 115l311 303l311 -303z" />
    <glyph glyph-name="Kcommaaccent" unicode="&#x136;" horiz-adv-x="1472" 
d="M473 1198v-328q146 47 272 238l39 57q71 103 88 172q13 52 0 97h416q-36 -23 -69 -55t-65.5 -75t-53 -71.5t-54.5 -82.5t-45 -71l-47 -69q-127 -182 -282 -244q130 -48 237.5 -147.5t237.5 -272.5q122 -162 203 -217t180 -55q-74 -47 -160.5 -70.5t-159.5 -23.5
q-115 0 -225 79.5t-244 276.5l-88 129q-35 49 -56 75t-55 54.5t-69 40.5v-399q0 -53 2.5 -81.5t19.5 -73t52 -81.5h-471q34 37 50.5 81.5t18.5 72.5t2 82v962q0 54 -2 82t-18.5 72.5t-50.5 81.5h471q-35 -37 -52 -81.5t-19.5 -73t-2.5 -81.5zM944 -262q0 -78 -46.5 -143.5
t-123.5 -112.5l-31 59q88 58 88 115q0 18 -11.5 32t-26 22.5t-26 26.5t-11.5 44q0 39 23.5 67.5t62.5 28.5q45 0 73.5 -37t28.5 -102z" />
    <glyph glyph-name="kcommaaccent" unicode="&#x137;" horiz-adv-x="987" 
d="M406 236q0 -54 2 -82t18.5 -72.5t50.5 -81.5h-444q34 37 50.5 81.5t18.5 72.5t2 82v843q0 41 -1.5 61.5t-8 54.5t-23.5 62.5t-46 57.5l381 108v-927l57 67q110 136 112 236h357q-103 -56 -171.5 -112.5t-125.5 -123.5l-10 -12l206 -315q115 -178 193 -236h-412l-186 324
l-20 -25v-63zM657 -262q0 -78 -46.5 -143.5t-123.5 -112.5l-30 59q88 58 88 115q0 18 -12 32t-26 22.5t-26 26.5t-12 44q0 39 23.5 67.5t62.5 28.5q45 0 73.5 -37t28.5 -102z" />
    <glyph glyph-name="Lacute" unicode="&#x139;" horiz-adv-x="1013" 
d="M473 1198v-962h86q392 0 463 92l-145 -328h-801q34 37 50.5 81.5t18.5 72.5t2 82v962q0 54 -2 82t-18.5 72.5t-50.5 81.5h471q-35 -37 -52 -81.5t-19.5 -73t-2.5 -81.5zM723 1731l-471 -195l-64 113l414 303z" />
    <glyph glyph-name="lacute" unicode="&#x13a;" horiz-adv-x="509" 
d="M406 236q0 -54 2 -82t18.5 -72.5t50.5 -81.5h-444q34 37 50.5 81.5t18.5 72.5t2 82v843q0 41 -1.5 61.5t-8 54.5t-23.5 62.5t-46 57.5l381 108v-1187zM676 1731l-471 -195l-64 113l414 303z" />
    <glyph glyph-name="Lcommaaccent" unicode="&#x13b;" horiz-adv-x="1013" 
d="M473 1198v-962h86q392 0 463 92l-145 -328h-801q34 37 50.5 81.5t18.5 72.5t2 82v962q0 54 -2 82t-18.5 72.5t-50.5 81.5h471q-35 -37 -52 -81.5t-19.5 -73t-2.5 -81.5zM633 -262q0 -78 -46.5 -143.5t-123.5 -112.5l-31 59q88 58 88 115q0 18 -12 32t-26 22.5t-26 26.5
t-12 44q0 39 23.5 67.5t62.5 28.5q45 0 74 -37t29 -102z" />
    <glyph glyph-name="lcommaaccent" unicode="&#x13c;" horiz-adv-x="509" 
d="M406 236q0 -54 2 -82t18.5 -72.5t50.5 -81.5h-444q34 37 50.5 81.5t18.5 72.5t2 82v843q0 41 -1.5 61.5t-8 54.5t-23.5 62.5t-46 57.5l381 108v-1187zM371 -262q0 -78 -46.5 -143.5t-123.5 -112.5l-31 59q88 58 88 115q0 18 -12 32t-26 22.5t-26 26.5t-12 44
q0 39 23.5 67.5t62.5 28.5q45 0 74 -37t29 -102z" />
    <glyph glyph-name="Lcaron" unicode="&#x13d;" horiz-adv-x="1034" 
d="M473 1198v-962h86q392 0 463 92l-145 -328h-801q34 37 50.5 81.5t18.5 72.5t2 82v962q0 54 -2 82t-18.5 72.5t-50.5 81.5h471q-35 -37 -52 -81.5t-19.5 -73t-2.5 -81.5zM969 1313q0 -259 -299 -443l-52 95q81 41 121.5 93.5t40.5 98.5q0 32 -23 56t-50.5 38t-50.5 44.5
t-23 74.5q0 68 44.5 117t115.5 49q81 0 128.5 -58t47.5 -165z" />
    <glyph glyph-name="lcaron" unicode="&#x13e;" horiz-adv-x="509" 
d="M406 236q0 -54 2 -82t18.5 -72.5t50.5 -81.5h-444q34 37 50.5 81.5t18.5 72.5t2 82v843q0 41 -1.5 61.5t-8 54.5t-23.5 62.5t-46 57.5l381 108v-1187zM811 1313q0 -259 -299 -443l-51 95q81 41 121.5 93.5t40.5 98.5q0 27 -15 46.5t-37 33.5t-44 29t-37 41.5t-15 62.5
q0 68 44.5 117t115.5 49q81 0 128.5 -58t47.5 -165z" />
    <glyph glyph-name="Ldot" unicode="&#x13f;" horiz-adv-x="1019" 
d="M877 0h-801q34 37 50.5 81.5t18.5 72.5t2 82v962q0 54 -2 82t-18.5 72.5t-50.5 81.5h471q-35 -37 -52 -81.5t-19.5 -73t-2.5 -81.5v-962h86q392 0 463 92zM971 586q0 -80 -50 -136.5t-126 -56.5q-74 0 -123 57t-49 136q0 81 49 137.5t123 56.5q77 0 126.5 -56.5
t49.5 -137.5z" />
    <glyph glyph-name="ldot" unicode="&#x140;" horiz-adv-x="804" 
d="M831 586q0 -80 -50 -136.5t-126 -56.5q-74 0 -123 57t-49 136q0 81 49 137.5t123 56.5q77 0 126.5 -56.5t49.5 -137.5zM406 236q0 -54 2 -82t18.5 -72.5t50.5 -81.5h-444q34 37 50.5 81.5t18.5 72.5t2 82v843q0 41 -1.5 61.5t-8 54.5t-23.5 62.5t-46 57.5l381 108v-1187z
" />
    <glyph glyph-name="Lslash" unicode="&#x141;" horiz-adv-x="1026" 
d="M487 1198v-340l254 199v-277l-254 -198v-346h86q392 0 463 92l-147 -328h-799q34 37 50.5 81.5t19 73t2.5 81.5v90l-43 -33l-10 270l53 41v594q0 53 -2.5 81.5t-19 73t-50.5 81.5h471q-35 -37 -52 -81.5t-19.5 -73t-2.5 -81.5z" />
    <glyph glyph-name="lslash" unicode="&#x142;" horiz-adv-x="673" 
d="M502 236q0 -54 2 -82t18.5 -72.5t50.5 -81.5h-444q34 37 50.5 81.5t19 73t2.5 81.5v165l-140 -108l-10 270l150 117v399q0 53 -2.5 81.5t-21.5 73t-56 81.5l381 108v-510l182 144v-277l-182 -143v-401z" />
    <glyph glyph-name="Nacute" unicode="&#x143;" horiz-adv-x="1327" 
d="M1163 -20l-766 987v-731q0 -41 1 -60.5t7 -54t21 -63.5t41 -58h-389q32 37 48 81t18.5 73.5t2.5 81.5v962q0 50 -2.5 79.5t-18.5 74.5t-48 82h360l496 -656v420q0 53 -2.5 81.5t-19 73t-50.5 81.5h393q-35 -37 -52 -81.5t-19 -72.5t-2 -82v-1200zM1075 1735l-471 -195
l-63 113l413 303z" />
    <glyph glyph-name="nacute" unicode="&#x144;" horiz-adv-x="987" 
d="M416 236q0 -54 2 -82t18.5 -72.5t50.5 -81.5h-444q34 37 50.5 81.5t19 73t2.5 81.5v327q0 38 -1.5 59.5t-9.5 55t-27.5 63t-51.5 58.5h391v-121q87 83 142 112t112 29q50 0 88 -16t70 -54t48.5 -108.5t16.5 -171.5v-254q0 -66 13.5 -116t58.5 -99h-445q45 49 58.5 99
t13.5 116v256q0 133 -74 133q-52 0 -94 -59l-8 -13v-296zM920 1137l-471 -195l-64 113l414 303z" />
    <glyph glyph-name="Ncommaaccent" unicode="&#x145;" horiz-adv-x="1327" 
d="M1163 -20l-766 987v-731q0 -41 1 -60.5t7 -54t21 -63.5t41 -58h-389q32 37 48 81t18.5 73.5t2.5 81.5v962q0 50 -2.5 79.5t-18.5 74.5t-48 82h360l496 -656v420q0 53 -2.5 81.5t-19 73t-50.5 81.5h393q-35 -37 -52 -81.5t-19 -72.5t-2 -82v-1200zM850 -262
q0 -78 -46.5 -143.5t-123.5 -112.5l-31 59q88 58 88 115q0 18 -11.5 32t-26 22.5t-26 26.5t-11.5 44q0 39 23.5 67.5t62.5 28.5q45 0 73.5 -37t28.5 -102z" />
    <glyph glyph-name="ncommaaccent" unicode="&#x146;" horiz-adv-x="987" 
d="M416 236q0 -54 2 -82t18.5 -72.5t50.5 -81.5h-444q34 37 50.5 81.5t19 73t2.5 81.5v327q0 38 -1.5 59.5t-9.5 55t-27.5 63t-51.5 58.5h391v-121q87 83 142 112t112 29q50 0 88 -16t70 -54t48.5 -108.5t16.5 -171.5v-254q0 -66 13.5 -116t58.5 -99h-445q45 49 58.5 99
t13.5 116v256q0 133 -74 133q-52 0 -94 -59l-8 -13v-296zM612 -262q0 -78 -46.5 -143.5t-123.5 -112.5l-30 59q88 58 88 115q0 18 -12 32t-26 22.5t-26 26.5t-12 44q0 39 23.5 67.5t62.5 28.5q45 0 73.5 -37t28.5 -102z" />
    <glyph glyph-name="Ncaron" unicode="&#x147;" horiz-adv-x="1327" 
d="M1163 -20l-766 987v-731q0 -41 1 -60.5t7 -54t21 -63.5t41 -58h-389q32 37 48 81t18.5 73.5t2.5 81.5v962q0 50 -2.5 79.5t-18.5 74.5t-48 82h360l496 -656v420q0 53 -2.5 81.5t-19 73t-50.5 81.5h393q-35 -37 -52 -81.5t-19 -72.5t-2 -82v-1200zM410 1948l252 -140
l249 140l62 -115l-311 -303l-312 303z" />
    <glyph glyph-name="ncaron" unicode="&#x148;" horiz-adv-x="987" 
d="M416 236q0 -54 2 -82t18.5 -72.5t50.5 -81.5h-444q34 37 50.5 81.5t19 73t2.5 81.5v327q0 38 -1.5 59.5t-9.5 55t-27.5 63t-51.5 58.5h391v-121q87 83 142 112t112 29q50 0 88 -16t70 -54t48.5 -108.5t16.5 -171.5v-254q0 -66 13.5 -116t58.5 -99h-445q45 49 58.5 99
t13.5 116v256q0 133 -74 133q-52 0 -94 -59l-8 -13v-296zM256 1350l252 -140l250 140l61 -115l-311 -303l-311 303z" />
    <glyph glyph-name="napostrophe" unicode="&#x149;" horiz-adv-x="987" 
d="M416 236q0 -54 2 -82t18.5 -72.5t50.5 -81.5h-444q34 37 50.5 81.5t19 73t2.5 81.5v327q0 38 -1.5 59.5t-9.5 55t-27.5 63t-51.5 58.5h391v-121q87 83 142 112t112 29q50 0 88 -16t70 -54t48.5 -108.5t16.5 -171.5v-254q0 -66 13.5 -116t58.5 -99h-445q45 49 58.5 99
t13.5 116v256q0 133 -74 133q-52 0 -94 -59l-8 -13v-296zM348 1366q0 -198 -233 -342l-39 72q63 33 94 73.5t31 75.5q0 21 -11.5 37t-28.5 26.5t-33.5 22t-28 32t-11.5 48.5q0 53 34 91t89 38q63 0 100 -45.5t37 -128.5z" />
    <glyph glyph-name="Omacron" unicode="&#x14c;" horiz-adv-x="1470" 
d="M1403 717q0 -175 -50.5 -315.5t-140.5 -232.5t-211.5 -140.5t-265.5 -48.5q-142 0 -263 48.5t-210.5 140t-140.5 232.5t-51 316t51 316t140.5 232.5t210.5 140t263 48.5q144 0 265.5 -48.5t211.5 -140.5t140.5 -232.5t50.5 -315.5zM1057 717q0 232 -86.5 360.5
t-235.5 128.5q-148 0 -234.5 -128.5t-86.5 -360.5t86.5 -362t234.5 -130q149 0 235.5 129.5t86.5 362.5zM1034 1528h-600v223h600v-223z" />
    <glyph glyph-name="omacron" unicode="&#x14d;" 
d="M866 397q0 -109 -31 -191t-87 -130.5t-128.5 -72t-160.5 -23.5t-160 23.5t-127.5 72.5t-86 130.5t-30.5 190.5q0 215 110.5 318.5t293.5 103.5q88 0 160.5 -24t128.5 -73.5t87 -132t31 -192.5zM573 397q0 110 -29 167t-83 57q-52 0 -82.5 -58t-30.5 -166t30.5 -165.5
t82.5 -57.5q54 0 83 56.5t29 166.5zM762 934h-600v223h600v-223z" />
    <glyph glyph-name="Obreve" unicode="&#x14e;" horiz-adv-x="1470" 
d="M1403 717q0 -175 -50.5 -315.5t-140.5 -232.5t-211.5 -140.5t-265.5 -48.5q-142 0 -263 48.5t-210.5 140t-140.5 232.5t-51 316t51 316t140.5 232.5t210.5 140t263 48.5q144 0 265.5 -48.5t211.5 -140.5t140.5 -232.5t50.5 -315.5zM1057 717q0 232 -86.5 360.5
t-235.5 128.5q-148 0 -234.5 -128.5t-86.5 -360.5t86.5 -362t234.5 -130q149 0 235.5 129.5t86.5 362.5zM864 1855h154q0 -82 -24 -145t-65.5 -100t-92 -55.5t-107.5 -18.5t-107 18.5t-90.5 55.5t-64 100t-23.5 145h154q0 -108 133 -108q63 0 98 27.5t35 80.5z" />
    <glyph glyph-name="obreve" unicode="&#x14f;" 
d="M866 397q0 -109 -31 -191t-87 -130.5t-128.5 -72t-160.5 -23.5t-160 23.5t-127.5 72.5t-86 130.5t-30.5 190.5q0 215 110.5 318.5t293.5 103.5q88 0 160.5 -24t128.5 -73.5t87 -132t31 -192.5zM573 397q0 110 -29 167t-83 57q-52 0 -82.5 -58t-30.5 -166t30.5 -165.5
t82.5 -57.5q54 0 83 56.5t29 166.5zM594 1262h154q0 -159 -84 -239.5t-205 -80.5q-57 0 -107 18.5t-90.5 56t-64 100.5t-23.5 145h154q0 -54 35 -81.5t98 -27.5t98 28t35 81z" />
    <glyph glyph-name="Ohungarumlaut" unicode="&#x150;" horiz-adv-x="1470" 
d="M1403 717q0 -175 -50.5 -315.5t-140.5 -232.5t-211.5 -140.5t-265.5 -48.5q-142 0 -263 48.5t-210.5 140t-140.5 232.5t-51 316t51 316t140.5 232.5t210.5 140t263 48.5q144 0 265.5 -48.5t211.5 -140.5t140.5 -232.5t50.5 -315.5zM1057 717q0 232 -86.5 360.5
t-235.5 128.5q-148 0 -234.5 -128.5t-86.5 -360.5t86.5 -362t234.5 -130q149 0 235.5 129.5t86.5 362.5zM997 1784l-450 -254l-66 112l414 304zM1376 1784l-450 -254l-64 112l412 304z" />
    <glyph glyph-name="ohungarumlaut" unicode="&#x151;" 
d="M866 397q0 -109 -31 -191t-87 -130.5t-128.5 -72t-160.5 -23.5t-160 23.5t-127.5 72.5t-86 130.5t-30.5 190.5q0 215 110.5 318.5t293.5 103.5q88 0 160.5 -24t128.5 -73.5t87 -132t31 -192.5zM573 397q0 110 -29 167t-83 57q-52 0 -82.5 -58t-30.5 -166t30.5 -165.5
t82.5 -57.5q54 0 83 56.5t29 166.5zM725 1190l-451 -254l-65 113l414 303zM1104 1190l-451 -254l-63 113l411 303z" />
    <glyph glyph-name="OE" unicode="&#x152;" horiz-adv-x="1972" 
d="M1014 0q27 30 35 49q-22 -13 -50 -22q-121 -47 -264 -47q-142 0 -263 48.5t-210.5 140t-140.5 232.5t-51 316t51 316t140.5 232.5t210.5 140t263 48.5q145 0 264 -49q23 -8 50 -23q-18 33 -35 52h770v-299q-20 30 -47.5 50t-61.5 29t-63 12t-66 3h-135v-359h135
q147 0 238 60v-344q-89 59 -238 59h-135v-409h86q392 0 463 92l-148 -328h-798zM1057 717q0 232 -86.5 360.5t-235.5 128.5q-148 0 -234.5 -128.5t-86.5 -360.5t86.5 -362t234.5 -130q149 0 235.5 129.5t86.5 362.5z" />
    <glyph glyph-name="oe" unicode="&#x153;" horiz-adv-x="1359" 
d="M1294 350h-426q8 -82 54 -128t145 -46q114 0 236 39l-64 -205q-82 -30 -297 -30q-145 0 -237 63q-48 -28 -87 -41q-77 -22 -159 -22q-88 0 -160 23.5t-127.5 72.5t-86 130.5t-30.5 190.5q0 215 110.5 318.5t293.5 103.5q85 0 159 -24q45 -14 89 -43q35 24 75 39
q76 28 162 28q171 0 262.5 -97.5t91.5 -272.5zM543 229q9 15 16 39q-12 59 -12 127q0 69 12 127q-6 21 -16 41q-27 58 -82 58q-52 0 -82.5 -58t-30.5 -166t30.5 -165.5t82.5 -57.5q55 0 82 55zM938 641q-63 0 -72 -147h150q0 60 -19.5 103.5t-58.5 43.5z" />
    <glyph glyph-name="Racute" unicode="&#x154;" horiz-adv-x="1347" 
d="M1118 -20q-91 0 -166.5 67t-175.5 236l-37 59q-68 117 -133 179.5t-117 62.5h-16v-348q0 -53 2.5 -81.5t19.5 -73t52 -81.5h-471q34 37 50.5 81.5t18.5 72.5t2 82v962q0 54 -2 82t-18.5 72.5t-50.5 81.5h426q253 0 397.5 -115t144.5 -301q0 -262 -266 -348
q81 -32 189.5 -141.5t195.5 -245.5q66 -101 135.5 -155t128.5 -54q-72 -47 -158.5 -70.5t-150.5 -23.5zM473 791q12 -3 25 -3h24q97 0 146 55t49 156q0 209 -195 209q-21 0 -49 -4v-413zM991 1731l-471 -195l-63 113l413 303z" />
    <glyph glyph-name="racute" unicode="&#x155;" horiz-adv-x="765" 
d="M416 236q0 -54 2 -82t18.5 -72.5t50.5 -81.5h-444q34 37 50.5 81.5t19 73t2.5 81.5v327q0 38 -1.5 59.5t-9.5 55t-27.5 63t-51.5 58.5h391v-158q87 106 150 142t153 36v-354q-37 37 -95 67.5t-102 30.5q-47 -3 -73 -37l-33 -37v-253zM827 1137l-471 -195l-63 113l414 303
z" />
    <glyph glyph-name="Rcommaaccent" unicode="&#x156;" horiz-adv-x="1347" 
d="M1118 -20q-91 0 -166.5 67t-175.5 236l-37 59q-68 117 -133 179.5t-117 62.5h-16v-348q0 -53 2.5 -81.5t19.5 -73t52 -81.5h-471q34 37 50.5 81.5t18.5 72.5t2 82v962q0 54 -2 82t-18.5 72.5t-50.5 81.5h426q253 0 397.5 -115t144.5 -301q0 -262 -266 -348
q81 -32 189.5 -141.5t195.5 -245.5q66 -101 135.5 -155t128.5 -54q-72 -47 -158.5 -70.5t-150.5 -23.5zM473 791q12 -3 25 -3h24q97 0 146 55t49 156q0 209 -195 209q-21 0 -49 -4v-413zM797 -262q0 -78 -46.5 -143.5t-123.5 -112.5l-31 59q88 58 88 115q0 18 -12 32
t-26 22.5t-26 26.5t-12 44q0 39 23.5 67.5t62.5 28.5q45 0 74 -37t29 -102z" />
    <glyph glyph-name="rcommaaccent" unicode="&#x157;" horiz-adv-x="765" 
d="M416 236q0 -54 2 -82t18.5 -72.5t50.5 -81.5h-444q34 37 50.5 81.5t19 73t2.5 81.5v327q0 38 -1.5 59.5t-9.5 55t-27.5 63t-51.5 58.5h391v-158q87 106 150 142t153 36v-354q-37 37 -95 67.5t-102 30.5q-47 -3 -73 -37l-33 -37v-253zM352 -262q0 -78 -46.5 -143.5
t-123.5 -112.5l-30 59q88 58 88 115q0 18 -12 32t-26 22.5t-26 26.5t-12 44q0 39 23.5 67.5t62.5 28.5q45 0 73.5 -37t28.5 -102z" />
    <glyph glyph-name="Rcaron" unicode="&#x158;" horiz-adv-x="1347" 
d="M1118 -20q-91 0 -166.5 67t-175.5 236l-37 59q-68 117 -133 179.5t-117 62.5h-16v-348q0 -53 2.5 -81.5t19.5 -73t52 -81.5h-471q34 37 50.5 81.5t18.5 72.5t2 82v962q0 54 -2 82t-18.5 72.5t-50.5 81.5h426q253 0 397.5 -115t144.5 -301q0 -262 -266 -348
q81 -32 189.5 -141.5t195.5 -245.5q66 -101 135.5 -155t128.5 -54q-72 -47 -158.5 -70.5t-150.5 -23.5zM328 1944l252 -140l249 140l62 -115l-311 -303l-312 303zM473 791q12 -3 25 -3h24q97 0 146 55t49 156q0 209 -195 209q-21 0 -49 -4v-413z" />
    <glyph glyph-name="rcaron" unicode="&#x159;" horiz-adv-x="765" 
d="M416 236q0 -54 2 -82t18.5 -72.5t50.5 -81.5h-444q34 37 50.5 81.5t19 73t2.5 81.5v327q0 38 -1.5 59.5t-9.5 55t-27.5 63t-51.5 58.5h391v-158q87 106 150 142t153 36v-354q-37 37 -95 67.5t-102 30.5q-47 -3 -73 -37l-33 -37v-253zM162 1350l252 -140l250 140l61 -115
l-311 -303l-312 303z" />
    <glyph glyph-name="Sacute" unicode="&#x15a;" horiz-adv-x="954" 
d="M96 4v549q68 -148 166 -235t201 -87q62 0 101.5 32.5t39.5 90.5q0 45 -27.5 85t-71.5 73t-97 67.5t-106 78t-97 94.5t-71.5 126.5t-27.5 165.5q0 194 106.5 302t293.5 108q63 0 116 -12t80.5 -26t51.5 -26t37 -12q14 0 27.5 5t21.5 9l8 5v-453q-27 47 -62 92.5
t-78.5 90.5t-93.5 72.5t-96 27.5q-48 0 -81.5 -31.5t-33.5 -89.5q0 -49 27 -90t71 -72.5t96.5 -63.5t105 -73.5t96.5 -92t71 -128t27 -174.5q0 -199 -108.5 -315.5t-299.5 -116.5q-99 0 -202 30l-72 21q-33 10 -49 10q-19 0 -35 -9.5t-25 -18.5t-10 -9zM913 1731l-471 -195
l-63 113l414 303z" />
    <glyph glyph-name="sacute" unicode="&#x15b;" horiz-adv-x="759" 
d="M68 -4v348q54 -75 148 -136t157 -61q45 0 45 41q0 26 -25 49t-62.5 40t-81.5 43t-81.5 55t-62.5 79.5t-25 114.5q0 115 78.5 182.5t232.5 67.5q73 0 140 -17.5t77 -17.5q17 0 28 7t17 14.5t9 7.5v-317q-48 58 -125 106.5t-129 48.5q-22 0 -29.5 -9t-7.5 -28
q0 -20 18.5 -37.5t48.5 -32.5t66 -32t72 -41.5t66 -55t48.5 -78.5t18.5 -106q0 -127 -90 -189t-232 -62q-83 0 -163 22.5t-95 22.5q-26 0 -43 -14.5t-18 -14.5zM803 1137l-471 -195l-64 113l414 303z" />
    <glyph glyph-name="Scircumflex" unicode="&#x15c;" horiz-adv-x="954" 
d="M96 4v549q68 -148 166 -235t201 -87q62 0 101.5 32.5t39.5 90.5q0 45 -27.5 85t-71.5 73t-97 67.5t-106 78t-97 94.5t-71.5 126.5t-27.5 165.5q0 194 106.5 302t293.5 108q63 0 116 -12t80.5 -26t51.5 -26t37 -12q14 0 27.5 5t21.5 9l8 5v-453q-27 47 -62 92.5
t-78.5 90.5t-93.5 72.5t-96 27.5q-48 0 -81.5 -31.5t-33.5 -89.5q0 -49 27 -90t71 -72.5t96.5 -63.5t105 -73.5t96.5 -92t71 -128t27 -174.5q0 -199 -108.5 -315.5t-299.5 -116.5q-99 0 -202 30l-72 21q-33 10 -49 10q-19 0 -35 -9.5t-25 -18.5t-10 -9zM752 1526l-267 145
l-235 -145l-62 114l312 304l311 -304z" />
    <glyph glyph-name="scircumflex" unicode="&#x15d;" horiz-adv-x="759" 
d="M68 -4v348q54 -75 148 -136t157 -61q45 0 45 41q0 26 -25 49t-62.5 40t-81.5 43t-81.5 55t-62.5 79.5t-25 114.5q0 115 78.5 182.5t232.5 67.5q73 0 140 -17.5t77 -17.5q17 0 28 7t17 14.5t9 7.5v-317q-48 58 -125 106.5t-129 48.5q-22 0 -29.5 -9t-7.5 -28
q0 -20 18.5 -37.5t48.5 -32.5t66 -32t72 -41.5t66 -55t48.5 -78.5t18.5 -106q0 -127 -90 -189t-232 -62q-83 0 -163 22.5t-95 22.5q-26 0 -43 -14.5t-18 -14.5zM637 932l-266 145l-236 -145l-61 115l311 303l311 -303z" />
    <glyph glyph-name="Scedilla" unicode="&#x15e;" horiz-adv-x="954" 
d="M289 -172l78 164l-80 18l-72 21q-33 10 -49 10q-19 0 -35 -9.5t-25 -18.5t-10 -9v549q68 -148 166 -235t201 -87q62 0 101.5 32.5t39.5 90.5q0 45 -27.5 85t-71.5 73t-97 67.5t-106 78t-97 94.5t-71.5 126.5t-27.5 165.5q0 194 106.5 302t293.5 108q63 0 116 -12
t80.5 -26t51.5 -26t37 -12q14 0 27.5 5t21.5 9l8 5v-453q-27 47 -62 92.5t-78.5 90.5t-93.5 72.5t-96 27.5q-48 0 -81.5 -31.5t-33.5 -89.5q0 -49 27 -90t71 -72.5t96.5 -63.5t105 -73.5t96.5 -92t71 -128t27 -174.5q0 -199 -108.5 -315.5t-299.5 -116.5h-2l-32 -60
q84 -5 140 -54t56 -138q0 -246 -299 -246q-72 0 -110 16l-33 135q60 -18 108 -18q53 0 83 27.5t30 72.5q0 54 -32 83.5t-109 29.5z" />
    <glyph glyph-name="scedilla" unicode="&#x15f;" horiz-adv-x="759" 
d="M231 -172l74 158l-12 2q-38 6 -90.5 21.5t-73.5 15.5q-26 0 -43 -14.5t-18 -14.5v348q54 -75 148 -136t157 -61q45 0 45 41q0 26 -25 49t-62.5 40t-81.5 43t-81.5 55t-62.5 79.5t-25 114.5q0 115 78.5 182.5t232.5 67.5q73 0 140 -17.5t77 -17.5q17 0 28 7t17 14.5t9 7.5
v-317q-48 58 -125 106.5t-129 48.5q-22 0 -29.5 -9t-7.5 -28q0 -20 18.5 -37.5t48.5 -32.5t66 -32t72 -41.5t66 -55t48.5 -78.5t18.5 -106q0 -97 -53 -155.5t-146 -81.5q-38 -9 -80 -12l-33 -62q84 -5 140.5 -54t56.5 -138q0 -246 -299 -246q-73 0 -111 16l-32 135
q60 -18 108 -18q53 0 83 27.5t30 72.5q0 113 -142 113z" />
    <glyph glyph-name="Scaron" unicode="&#x160;" horiz-adv-x="954" 
d="M96 4v549q68 -148 166 -235t201 -87q62 0 101.5 32.5t39.5 90.5q0 45 -27.5 85t-71.5 73t-97 67.5t-106 78t-97 94.5t-71.5 126.5t-27.5 165.5q0 194 106.5 302t293.5 108q63 0 116 -12t80.5 -26t51.5 -26t37 -12q14 0 27.5 5t21.5 9l8 5v-453q-27 47 -62 92.5
t-78.5 90.5t-93.5 72.5t-96 27.5q-48 0 -81.5 -31.5t-33.5 -89.5q0 -49 27 -90t71 -72.5t96.5 -63.5t105 -73.5t96.5 -92t71 -128t27 -174.5q0 -199 -108.5 -315.5t-299.5 -116.5q-99 0 -202 30l-72 21q-33 10 -49 10q-19 0 -35 -9.5t-25 -18.5t-10 -9zM252 1944l252 -140
l250 140l61 -115l-311 -303l-311 303z" />
    <glyph glyph-name="scaron" unicode="&#x161;" horiz-adv-x="759" 
d="M68 -4v348q54 -75 148 -136t157 -61q45 0 45 41q0 26 -25 49t-62.5 40t-81.5 43t-81.5 55t-62.5 79.5t-25 114.5q0 115 78.5 182.5t232.5 67.5q73 0 140 -17.5t77 -17.5q17 0 28 7t17 14.5t9 7.5v-317q-48 58 -125 106.5t-129 48.5q-22 0 -29.5 -9t-7.5 -28
q0 -20 18.5 -37.5t48.5 -32.5t66 -32t72 -41.5t66 -55t48.5 -78.5t18.5 -106q0 -127 -90 -189t-232 -62q-83 0 -163 22.5t-95 22.5q-26 0 -43 -14.5t-18 -14.5zM137 1350l252 -140l250 140l61 -115l-311 -303l-311 303z" />
    <glyph glyph-name="Tcommaaccent" unicode="&#x162;" horiz-adv-x="1079" 
d="M1004 1462l63 -344q-12 26 -101 48t-192 22h-49v-952q0 -53 2.5 -81.5t19 -73t50.5 -81.5h-469q34 37 50.5 81.5t18.5 72.5t2 82v952h-28q-147 0 -248.5 -21.5t-114.5 -48.5l66 344q82 -28 299 -28h399q138 0 232 28zM645 -262q0 -78 -46.5 -143.5t-123.5 -112.5l-31 59
q88 58 88 115q0 18 -11.5 32t-26 22.5t-26 26.5t-11.5 44q0 39 23.5 67.5t62.5 28.5q45 0 73.5 -37t28.5 -102z" />
    <glyph glyph-name="tcommaaccent" unicode="&#x163;" horiz-adv-x="622" 
d="M43 618v140l102 43l195 237h70v-239h161v-181h-161v-323q0 -71 20 -95t70 -24q47 0 92 19l-45 -187q-52 -28 -152 -28q-284 0 -284 290v348h-68zM512 -262q0 -78 -46.5 -143.5t-123.5 -112.5l-31 59q88 58 88 115q0 18 -11.5 32t-26 22.5t-26 26.5t-11.5 44
q0 39 23.5 67.5t62.5 28.5q45 0 73.5 -37t28.5 -102z" />
    <glyph glyph-name="Tcaron" unicode="&#x164;" horiz-adv-x="1079" 
d="M1004 1462l63 -344q-12 26 -101 48t-192 22h-49v-952q0 -53 2.5 -81.5t19 -73t50.5 -81.5h-469q34 37 50.5 81.5t18.5 72.5t2 82v952h-28q-147 0 -248.5 -21.5t-114.5 -48.5l66 344q82 -28 299 -28h399q138 0 232 28zM309 1942l252 -140l250 140l61 -115l-311 -303
l-311 303z" />
    <glyph glyph-name="tcaron" unicode="&#x165;" horiz-adv-x="622" 
d="M43 618v140l102 43l195 237h70v-239h161v-181h-161v-323q0 -71 20 -95t70 -24q47 0 92 19l-45 -187q-52 -28 -152 -28q-284 0 -284 290v348h-68zM762 1198q0 -186 -215 -319l-37 67q58 30 87.5 68t29.5 71q0 23 -16.5 40t-37 26.5t-37 32t-16.5 55.5q0 49 31.5 84
t83.5 35q60 0 93.5 -41.5t33.5 -118.5z" />
    <glyph glyph-name="Tbar" unicode="&#x166;" horiz-adv-x="1085" 
d="M864 674h-137v-438q0 -53 2.5 -81.5t19 -73t50.5 -81.5h-469q34 37 50.5 81.5t18.5 72.5t2 82v438h-137v223h137v291h-28q-147 0 -248.5 -21.5t-114.5 -48.5l66 344q82 -28 299 -28h424q120 2 207 28l63 -344q-12 26 -101 48t-192 22h-49v-291h137v-223z" />
    <glyph glyph-name="tbar" unicode="&#x167;" horiz-adv-x="630" 
d="M49 618v140l103 43l194 237h70v-239h162v-181h-162v-43h157v-182h-157v-98q0 -71 20 -95t70 -24q47 0 92 19l-45 -187q-52 -28 -152 -28q-284 0 -284 290v123h-74v182h74v43h-68z" />
    <glyph glyph-name="Utilde" unicode="&#x168;" horiz-adv-x="1288" 
d="M1155 1198v-717q0 -122 -43.5 -220t-116.5 -158t-163.5 -91.5t-190.5 -31.5q-108 0 -199.5 31.5t-160.5 92t-107.5 157t-38.5 220.5v369h2v348q0 54 -2 82t-18.5 72.5t-50.5 81.5h471q-35 -37 -52 -81.5t-19.5 -73t-2.5 -81.5v-399h-2v-297q0 -260 184 -260t184 260v696
q0 54 -2 82t-18.5 72.5t-50.5 81.5h469q-34 -37 -50.5 -81.5t-19 -73t-2.5 -81.5zM498 1866q66 0 177 -40t146 -40q26 0 36.5 17t10.5 63h117q0 -189 -37 -259.5t-135 -70.5q-72 0 -182.5 40t-145.5 40q-30 0 -43.5 -17t-13.5 -63h-113q0 183 43.5 256.5t139.5 73.5z" />
    <glyph glyph-name="utilde" unicode="&#x169;" horiz-adv-x="1005" 
d="M408 328q0 -133 73 -133q47 0 92 59l23 29v280q0 38 -1.5 59.5t-9.5 55t-27.5 63t-51.5 58.5h389v-563q0 -39 1.5 -60.5t9.5 -55t27.5 -62.5t51.5 -58h-352l-37 109v24q-96 -92 -152 -122.5t-116 -30.5q-49 0 -87 16t-69.5 54t-48.5 108.5t-17 171.5v233q0 38 -1.5 59.5
t-9.5 55t-27.5 63t-51.5 58.5h392v-471zM352 1272q66 0 177.5 -40t146.5 -40q26 0 36.5 17t10.5 63h117q0 -189 -37 -259.5t-135 -70.5q-72 0 -182.5 40t-145.5 40q-30 0 -43.5 -17t-13.5 -63h-113q0 184 43.5 257t138.5 73z" />
    <glyph glyph-name="Umacron" unicode="&#x16a;" horiz-adv-x="1288" 
d="M1155 1198v-717q0 -122 -43.5 -220t-116.5 -158t-163.5 -91.5t-190.5 -31.5q-108 0 -199.5 31.5t-160.5 92t-107.5 157t-38.5 220.5v369h2v348q0 54 -2 82t-18.5 72.5t-50.5 81.5h471q-35 -37 -52 -81.5t-19.5 -73t-2.5 -81.5v-399h-2v-297q0 -260 184 -260t184 260v696
q0 54 -2 82t-18.5 72.5t-50.5 81.5h469q-34 -37 -50.5 -81.5t-19 -73t-2.5 -81.5zM948 1528h-600v223h600v-223z" />
    <glyph glyph-name="umacron" unicode="&#x16b;" horiz-adv-x="1005" 
d="M408 328q0 -133 73 -133q47 0 92 59l23 29v280q0 38 -1.5 59.5t-9.5 55t-27.5 63t-51.5 58.5h389v-563q0 -39 1.5 -60.5t9.5 -55t27.5 -62.5t51.5 -58h-352l-37 109v24q-96 -92 -152 -122.5t-116 -30.5q-49 0 -87 16t-69.5 54t-48.5 108.5t-17 171.5v233q0 38 -1.5 59.5
t-9.5 55t-27.5 63t-51.5 58.5h392v-471zM803 934h-600v223h600v-223z" />
    <glyph glyph-name="Ubreve" unicode="&#x16c;" horiz-adv-x="1288" 
d="M1155 1198v-717q0 -122 -43.5 -220t-116.5 -158t-163.5 -91.5t-190.5 -31.5q-108 0 -199.5 31.5t-160.5 92t-107.5 157t-38.5 220.5v369h2v348q0 54 -2 82t-18.5 72.5t-50.5 81.5h471q-35 -37 -52 -81.5t-19.5 -73t-2.5 -81.5v-399h-2v-297q0 -260 184 -260t184 260v696
q0 54 -2 82t-18.5 72.5t-50.5 81.5h469q-34 -37 -50.5 -81.5t-19 -73t-2.5 -81.5zM780 1855h154q0 -82 -24 -145t-65.5 -100t-92 -55.5t-107.5 -18.5t-107 18.5t-90.5 55.5t-64 100t-23.5 145h154q0 -108 133 -108q63 0 98 27.5t35 80.5z" />
    <glyph glyph-name="ubreve" unicode="&#x16d;" horiz-adv-x="1005" 
d="M408 328q0 -133 73 -133q47 0 92 59l23 29v280q0 38 -1.5 59.5t-9.5 55t-27.5 63t-51.5 58.5h389v-563q0 -39 1.5 -60.5t9.5 -55t27.5 -62.5t51.5 -58h-352l-37 109v24q-96 -92 -152 -122.5t-116 -30.5q-49 0 -87 16t-69.5 54t-48.5 108.5t-17 171.5v233q0 38 -1.5 59.5
t-9.5 55t-27.5 63t-51.5 58.5h392v-471zM635 1262h153q0 -82 -24 -145t-65 -100.5t-91.5 -56t-107.5 -18.5t-107 18.5t-90.5 56t-64 100.5t-23.5 145h154q0 -54 35 -81.5t98 -27.5t98 28t35 81z" />
    <glyph glyph-name="Uring" unicode="&#x16e;" horiz-adv-x="1288" 
d="M1155 1198v-717q0 -122 -43.5 -220t-116.5 -158t-163.5 -91.5t-190.5 -31.5q-108 0 -199.5 31.5t-160.5 92t-107.5 157t-38.5 220.5v369h2v348q0 54 -2 82t-18.5 72.5t-50.5 81.5h471q-35 -37 -52 -81.5t-19.5 -73t-2.5 -81.5v-399h-2v-297q0 -260 184 -260t184 260v696
q0 54 -2 82t-18.5 72.5t-50.5 81.5h469q-34 -37 -50.5 -81.5t-19 -73t-2.5 -81.5zM918 1757q0 -109 -78 -163t-193 -54q-54 0 -101 12.5t-85 37.5t-60 68t-22 99q0 74 39 124t97.5 71.5t131.5 21.5q115 0 193 -54.5t78 -162.5zM707 1757q0 88 -58 88q-30 0 -44.5 -20
t-14.5 -68q0 -88 59 -88q58 0 58 88z" />
    <glyph glyph-name="uring" unicode="&#x16f;" horiz-adv-x="1005" 
d="M408 328q0 -133 73 -133q47 0 92 59l23 29v280q0 38 -1.5 59.5t-9.5 55t-27.5 63t-51.5 58.5h389v-563q0 -39 1.5 -60.5t9.5 -55t27.5 -62.5t51.5 -58h-352l-37 109v24q-96 -92 -152 -122.5t-116 -30.5q-49 0 -87 16t-69.5 54t-48.5 108.5t-17 171.5v233q0 38 -1.5 59.5
t-9.5 55t-27.5 63t-51.5 58.5h392v-471zM770 1163q0 -56 -22.5 -99t-61 -68t-85.5 -37.5t-101 -12.5t-101 12.5t-85.5 37.5t-60.5 68t-22 99q0 108 77.5 162.5t191.5 54.5t192 -54.5t78 -162.5zM559 1163q0 88 -57 88q-30 0 -45 -20t-15 -68q0 -88 60 -88q57 0 57 88z" />
    <glyph glyph-name="Uhungarumlaut" unicode="&#x170;" horiz-adv-x="1288" 
d="M1155 1198v-717q0 -122 -43.5 -220t-116.5 -158t-163.5 -91.5t-190.5 -31.5q-108 0 -199.5 31.5t-160.5 92t-107.5 157t-38.5 220.5v369h2v348q0 54 -2 82t-18.5 72.5t-50.5 81.5h471q-35 -37 -52 -81.5t-19.5 -73t-2.5 -81.5v-399h-2v-297q0 -260 184 -260t184 260v696
q0 54 -2 82t-18.5 72.5t-50.5 81.5h469q-34 -37 -50.5 -81.5t-19 -73t-2.5 -81.5zM913 1784l-450 -254l-66 112l414 304zM1292 1784l-450 -254l-64 112l412 304z" />
    <glyph glyph-name="uhungarumlaut" unicode="&#x171;" horiz-adv-x="1005" 
d="M408 328q0 -133 73 -133q47 0 92 59l23 29v280q0 38 -1.5 59.5t-9.5 55t-27.5 63t-51.5 58.5h389v-563q0 -39 1.5 -60.5t9.5 -55t27.5 -62.5t51.5 -58h-352l-37 109v24q-96 -92 -152 -122.5t-116 -30.5q-49 0 -87 16t-69.5 54t-48.5 108.5t-17 171.5v233q0 38 -1.5 59.5
t-9.5 55t-27.5 63t-51.5 58.5h392v-471zM768 1190l-451 -254l-65 113l414 303zM1147 1190l-451 -254l-63 113l411 303z" />
    <glyph glyph-name="Uogonek" unicode="&#x172;" horiz-adv-x="1288" 
d="M373 -301q0 83 40.5 151t125.5 138q-185 26 -294.5 151.5t-109.5 341.5v369h2v348q0 54 -2 82t-18.5 72.5t-50.5 81.5h471q-35 -37 -52 -81.5t-19.5 -73t-2.5 -81.5v-399h-2v-297q0 -260 184 -260t184 260v696q0 54 -2 82t-18.5 72.5t-50.5 81.5h469q-34 -37 -50.5 -81.5
t-19 -73t-2.5 -81.5v-717q0 -108 -33.5 -197t-92 -149t-132.5 -97t-160 -50q-71 -72 -98 -119t-27 -90q0 -70 68 -70q81 0 156 78l-72 -233q-73 -56 -176 -56q-105 0 -160 52t-55 149z" />
    <glyph glyph-name="uogonek" unicode="&#x173;" horiz-adv-x="1005" 
d="M526 -301q0 88 44.5 157t140.5 144h-78l-37 109v24q-96 -92 -152 -122.5t-116 -30.5q-49 0 -87 16t-69.5 54t-48.5 108.5t-17 171.5v233q0 38 -1.5 59.5t-9.5 55t-27.5 63t-51.5 58.5h392v-471q0 -133 73 -133q47 0 92 59l23 29v280q0 38 -1.5 59.5t-9.5 55t-27.5 63
t-51.5 58.5h389v-563q0 -39 1.5 -60.5t9.5 -55t27.5 -62.5t51.5 -58h-80q-80 -80 -109.5 -129t-29.5 -92q0 -70 68 -70q80 0 155 78l-71 -233q-73 -56 -177 -56q-105 0 -160 52t-55 149z" />
    <glyph glyph-name="Wcircumflex" unicode="&#x174;" horiz-adv-x="1873" 
d="M623 0l-500 1184q-35 87 -68 142.5t-78 107.5h472q-7 -35 -7 -62q0 -83 33 -162l219 -585l131 344l-90 215q-8 19 -25.5 62.5t-24.5 59t-21 43.5t-26.5 47t-29.5 38h451q-8 -31 -8 -62q0 -87 34 -162l207 -546l199 512q33 79 33 161q0 42 -25 97h395
q-55 -48 -93.5 -122.5t-74.5 -174.5l-471 -1157l-22 20l-295 700l-295 -720zM1184 1526l-266 145l-236 -145l-61 114l311 304l311 -304z" />
    <glyph glyph-name="wcircumflex" unicode="&#x175;" horiz-adv-x="1388" 
d="M956 -20l-247 501l-275 -501l-287 587q-24 50 -41.5 81t-48.5 73.5t-69 77.5h422q-11 -25 -11 -58q0 -16 2.5 -31.5t9.5 -36.5l10.5 -31.5t15 -39t14.5 -35.5l57 -151l119 229q-49 87 -79 120q-16 18 -34 34h422q-14 -28 -14 -70q0 -59 47 -162l45 -104l43 104
q39 85 39 160q0 26 -11 72h320q-103 -85 -172 -232zM954 932l-266 145l-235 -145l-62 115l311 303l312 -303z" />
    <glyph glyph-name="Ycircumflex" unicode="&#x176;" horiz-adv-x="1226" 
d="M1006 1102l-220 -471v-395q0 -53 2.5 -81.5t19 -73t50.5 -81.5h-469q34 37 50.5 81.5t19 73t2.5 81.5v335l-238 488q-14 29 -37.5 80.5t-33.5 71.5t-28 55.5t-29.5 52t-29.5 40.5t-36.5 41t-42.5 34h491q-12 -30 -12 -64q0 -71 53 -172l146 -307l124 268q50 102 50 193
q0 48 -15 82h396q-61 -46 -96.5 -104t-104.5 -203q-8 -16 -12 -25zM905 1526l-266 145l-236 -145l-61 114l311 304l312 -304z" />
    <glyph glyph-name="ycircumflex" unicode="&#x177;" horiz-adv-x="1005" 
d="M72 -164q104 0 183 64t146 182l-200 383q-19 36 -50 95.5t-43 82t-33.5 57t-40.5 56t-44 43.5h444q-8 -21 -8.5 -46.5t3 -46t13.5 -49.5t17.5 -46.5t21.5 -47.5l74 -168l80 168q33 71 33 146q0 37 -17 90h371q-42 -36 -78.5 -86t-55.5 -84.5t-67 -128.5l-196 -400
q-65 -130 -124.5 -224.5t-111 -153t-104.5 -93t-99.5 -47t-101.5 -12.5q-42 0 -96 14v266q41 -14 84 -14zM807 932l-266 145l-236 -145l-61 115l311 303l311 -303z" />
    <glyph glyph-name="Ydieresis" unicode="&#x178;" horiz-adv-x="1226" 
d="M623 1718q0 -76 -51.5 -133t-125.5 -57q-76 0 -125 56.5t-49 133.5q0 82 49 139.5t125 57.5q74 0 125.5 -58.5t51.5 -138.5zM1036 1718q0 -77 -50 -133.5t-126 -56.5q-73 0 -122.5 56.5t-49.5 133.5q0 81 49 139t123 58q76 0 126 -58t50 -139zM1006 1102l-220 -471v-395
q0 -53 2.5 -81.5t19 -73t50.5 -81.5h-469q34 37 50.5 81.5t19 73t2.5 81.5v335l-238 488q-14 29 -37.5 80.5t-33.5 71.5t-28 55.5t-29.5 52t-29.5 40.5t-36.5 41t-42.5 34h491q-12 -30 -12 -64q0 -71 53 -172l146 -307l124 268q50 102 50 193q0 48 -15 82h396
q-61 -46 -96.5 -104t-104.5 -203q-8 -16 -12 -25z" />
    <glyph glyph-name="Zacute" unicode="&#x179;" horiz-adv-x="1054" 
d="M76 1434h878l-479 -1186h129q57 0 88 1t86.5 7t94 17.5t86 35.5t88.5 58l-134 -367h-538v-2l-346 2l495 1229h-235q-46 0 -73.5 -4t-66.5 -27.5t-73 -69.5v306zM897 1731l-471 -195l-64 113l414 303z" />
    <glyph glyph-name="zacute" unicode="&#x17a;" horiz-adv-x="847" 
d="M831 799l-6 -4l-364 -621h119q35 0 55 2t50 11t56 30.5t52 56.5l-37 -274h-748l8 4l373 621h-113q-46 0 -73.5 -4t-66.5 -27.5t-73 -69.5l39 275h729zM872 1137l-471 -195l-63 113l414 303z" />
    <glyph glyph-name="Zdotaccent" unicode="&#x17b;" horiz-adv-x="1054" 
d="M662 1731q0 -77 -50.5 -134t-126.5 -57t-125 56.5t-49 134.5q0 81 49 138.5t125 57.5q77 0 127 -57.5t50 -138.5zM76 1434h878l-479 -1186h129q57 0 88 1t86.5 7t94 17.5t86 35.5t88.5 58l-134 -367h-538v-2l-346 2l495 1229h-235q-46 0 -73.5 -4t-66.5 -27.5t-73 -69.5
v306z" />
    <glyph glyph-name="zdotaccent" unicode="&#x17c;" horiz-adv-x="847" 
d="M639 1137q0 -76 -51 -133.5t-125 -57.5q-76 0 -125 56.5t-49 134.5q0 81 49 138.5t125 57.5q74 0 125 -58t51 -138zM831 799l-6 -4l-364 -621h119q35 0 55 2t50 11t56 30.5t52 56.5l-37 -274h-748l8 4l373 621h-113q-46 0 -73.5 -4t-66.5 -27.5t-73 -69.5l39 275h729z
" />
    <glyph glyph-name="Zcaron" unicode="&#x17d;" horiz-adv-x="1054" 
d="M76 1434h878l-479 -1186h129q57 0 88 1t86.5 7t94 17.5t86 35.5t88.5 58l-134 -367h-538v-2l-346 2l495 1229h-235q-46 0 -73.5 -4t-66.5 -27.5t-73 -69.5v306zM233 1944l252 -140l250 140l62 -115l-312 -303l-311 303z" />
    <glyph glyph-name="zcaron" unicode="&#x17e;" horiz-adv-x="847" 
d="M831 799l-6 -4l-364 -621h119q35 0 55 2t50 11t56 30.5t52 56.5l-37 -274h-748l8 4l373 621h-113q-46 0 -73.5 -4t-66.5 -27.5t-73 -69.5l39 275h729zM209 1350l252 -140l250 140l61 -115l-311 -303l-311 303z" />
    <glyph glyph-name="florin" unicode="&#x192;" horiz-adv-x="872" 
d="M176 618v181h105v258q0 99 28.5 174.5t76.5 118t103.5 63.5t116.5 21q46 0 100.5 -12.5t65.5 -12.5q13 0 26 5t19 5v-291q-47 54 -77 76.5t-68 22.5q-90 0 -90 -162v-266h200v-181h-200v-663q0 -81 -19.5 -146t-51 -107.5t-74.5 -71t-88 -40.5t-93 -12q-43 0 -100 12.5
t-68 12.5q-10 0 -23 -5.5t-20 -5.5v289q45 -52 76 -74t67 -22q42 0 67.5 34t25.5 128v671h-105z" />
    <glyph glyph-name="AEacute" unicode="&#x1fc;" horiz-adv-x="1665" 
d="M709 0q34 37 50.5 81.5t18.5 72.5t2 82v51h-336q-30 -63 -56 -144t-26 -143h-387q35 22 62.5 53.5t76 117.5t119.5 239l469 1024h777v-299q-57 94 -236 94h-137v-359h135q147 0 238 60v-344q-89 59 -238 59h-135v-409h86q385 0 465 92l-148 -328h-800zM1339 1724
l-471 -194l-63 112l414 304zM532 492h248v579z" />
    <glyph glyph-name="aeacute" unicode="&#x1fd;" horiz-adv-x="1292" 
d="M1227 350h-424q8 -83 53.5 -128.5t147.5 -45.5q116 0 231 39l-64 -205q-82 -30 -297 -30q-193 0 -301 120q-25 -50 -88 -85t-174 -35q-129 0 -192.5 52.5t-63.5 143.5q0 58 24 103.5t63 73t85.5 49t93.5 37t86 31.5t63 38.5t24 52.5q0 66 -76 66q-71 0 -156.5 -50.5
t-134.5 -105.5v338q15 -31 39 -31q3 0 94.5 20.5t175.5 20.5q143 0 228 -51q89 51 213 51q171 0 262.5 -97.5t91.5 -272.5zM870 641q-62 0 -71 -147h151q0 59 -20 103t-60 44zM424 156q27 0 46.5 27t23.5 83q-14 72 -15 90q-14 -13 -50 -37.5t-50 -43.5t-14 -50
q0 -33 17 -51t42 -18zM1085 1169l-471 -194l-63 112l414 304z" />
    <glyph glyph-name="Oslashacute" unicode="&#x1fe;" horiz-adv-x="1470" 
d="M1403 717q0 -175 -50.5 -315.5t-140.5 -232.5t-211.5 -140.5t-265.5 -48.5q-97 0 -176 20h-291l47 117l-55 51q-190 203 -190 549q0 175 51 316t140.5 232.5t210.5 140t263 48.5q97 0 176 -20h260l-41 -101q45 -31 80 -69q193 -196 193 -547zM1057 717q0 186 -56 307
l-329 -793q30 -6 63 -6q149 0 235.5 129.5t86.5 362.5zM414 717q0 -164 39 -271l313 758q-10 2 -31 2q-148 0 -234.5 -128.5t-86.5 -360.5zM1143 1731l-471 -195l-64 113l414 303z" />
    <glyph glyph-name="oslashacute" unicode="&#x1ff;" 
d="M866 397q0 -109 -31 -191t-87 -130.5t-128.5 -72t-160.5 -23.5q-50 0 -105 10l-12 -33q-44 -94 -16 -156h-234q29 26 52 56.5t31.5 47.5t25.5 52l30 74q-33 20 -61 45q-115 109 -115 321q0 215 110.5 318.5t293.5 103.5q50 0 108 -10l17 37q14 31 20 51t8.5 51t-10.5 53
h232q-27 -24 -48 -51.5t-29.5 -44t-22.5 -48.5q-3 -7 -5 -11l-37 -84q30 -15 56 -41q118 -108 118 -324zM883 1137l-471 -195l-64 113l414 303zM348 397q0 -36 4 -86l133 305q-20 5 -24 5q-52 0 -82.5 -58t-30.5 -166zM573 397q0 45 -6 80l-131 -301q8 -2 25 -2
q54 0 83 56.5t29 166.5z" />
    <glyph glyph-name="Scommaaccent" unicode="&#x218;" horiz-adv-x="954" 
d="M96 4v549q68 -148 166 -235t201 -87q62 0 101.5 32.5t39.5 90.5q0 45 -27.5 85t-71.5 73t-97 67.5t-106 78t-97 94.5t-71.5 126.5t-27.5 165.5q0 194 106.5 302t293.5 108q63 0 116 -12t80.5 -26t51.5 -26t37 -12q14 0 27.5 5t21.5 9l8 5v-453q-27 47 -62 92.5
t-78.5 90.5t-93.5 72.5t-96 27.5q-48 0 -81.5 -31.5t-33.5 -89.5q0 -49 27 -90t71 -72.5t96.5 -63.5t105 -73.5t96.5 -92t71 -128t27 -174.5q0 -199 -108.5 -315.5t-299.5 -116.5q-99 0 -202 30l-72 21q-33 10 -49 10q-19 0 -35 -9.5t-25 -18.5t-10 -9z" />
    <glyph glyph-name="scommaaccent" unicode="&#x219;" horiz-adv-x="759" 
d="M68 -4v348q54 -75 148 -136t157 -61q45 0 45 41q0 26 -25 49t-62.5 40t-81.5 43t-81.5 55t-62.5 79.5t-25 114.5q0 115 78.5 182.5t232.5 67.5q73 0 140 -17.5t77 -17.5q17 0 28 7t17 14.5t9 7.5v-317q-48 58 -125 106.5t-129 48.5q-22 0 -29.5 -9t-7.5 -28
q0 -20 18.5 -37.5t48.5 -32.5t66 -32t72 -41.5t66 -55t48.5 -78.5t18.5 -106q0 -127 -90 -189t-232 -62q-83 0 -163 22.5t-95 22.5q-26 0 -43 -14.5t-18 -14.5zM471 -262q0 -78 -46.5 -143.5t-123.5 -112.5l-31 59q88 58 88 115q0 18 -11.5 32t-26 22.5t-26 26.5t-11.5 44
q0 39 23.5 67.5t62.5 28.5q45 0 73.5 -37t28.5 -102z" />
    <glyph glyph-name="dotlessj" unicode="&#x237;" horiz-adv-x="495" 
d="M41 -244q23 0 45.5 29.5t22.5 93.5v684q0 38 -2 60t-10 55t-28 62.5t-53 58.5h392v-871q0 -86 -19.5 -154t-50.5 -109t-72 -68t-80.5 -37.5t-79.5 -10.5q-43 0 -97.5 12.5t-59.5 12.5q-7 0 -19.5 -5t-19.5 -5v346q26 -66 60.5 -110t70.5 -44z" />
    <glyph glyph-name="apostrophemod" unicode="&#x2bc;" horiz-adv-x="450" 
d="M408 1313q0 -259 -299 -443l-52 95q81 41 121.5 93.5t40.5 98.5q0 32 -23 56t-50.5 38t-50.5 44.5t-23 74.5q0 69 44 117.5t115 48.5q81 0 129 -58t48 -165z" />
    <glyph glyph-name="circumflex" unicode="&#x2c6;" horiz-adv-x="1404" 
d="M856 1014l-266 145l-236 -145l-61 114l311 304l311 -304z" />
    <glyph glyph-name="caron" unicode="&#x2c7;" horiz-adv-x="1536" 
d="M356 1432l252 -140l250 140l62 -115l-312 -303l-311 303z" />
    <glyph glyph-name="breve" unicode="&#x2d8;" horiz-adv-x="1536" 
d="M387 1337h154q0 -82 -24 -145t-65.5 -100t-92 -55.5t-107.5 -18.5t-107 18.5t-90.5 55.5t-64 100t-23.5 145h154q0 -108 133 -108q63 0 98 27.5t35 80.5z" />
    <glyph glyph-name="dotaccent" unicode="&#x2d9;" horiz-adv-x="1536" 
d="M485 1223q0 -80 -49.5 -135.5t-126.5 -55.5q-76 0 -125 55.5t-49 135.5q0 81 49 138.5t125 57.5t126 -57.5t50 -138.5z" />
    <glyph glyph-name="ring" unicode="&#x2da;" horiz-adv-x="522" 
d="M522 1204q0 -56 -22.5 -99t-61 -68t-85.5 -37.5t-101 -12.5t-101 12.5t-85 37.5t-60 68t-22 99q0 74 39 124t97.5 71.5t131.5 21.5q114 0 192 -54.5t78 -162.5zM311 1204q0 88 -57 88q-30 0 -44.5 -20t-14.5 -68q0 -88 59 -88q57 0 57 88z" />
    <glyph glyph-name="ogonek" unicode="&#x2db;" horiz-adv-x="1536" 
d="M84 -301q0 88 44 157t140 144h195q-80 -80 -109.5 -129t-29.5 -92q0 -70 67 -70q81 0 156 78l-72 -233q-73 -56 -176 -56q-105 0 -160 52t-55 149z" />
    <glyph glyph-name="tilde" unicode="&#x2dc;" horiz-adv-x="1523" 
d="M317 1368q66 0 177.5 -40t146.5 -40q26 0 36.5 17t10.5 63h117q0 -189 -37 -259.5t-135 -70.5q-72 0 -182.5 40t-145.5 40q-30 0 -43.5 -17t-13.5 -63h-113q0 184 43.5 257t138.5 73z" />
    <glyph glyph-name="hungarumlaut" unicode="&#x2dd;" horiz-adv-x="1536" 
d="M807 1253l-451 -254l-65 113l414 303zM1186 1253l-451 -254l-63 113l411 303z" />
    <glyph glyph-name="Wgrave" unicode="&#x1e80;" horiz-adv-x="1873" 
d="M623 0l-500 1184q-35 87 -68 142.5t-78 107.5h472q-7 -35 -7 -62q0 -83 33 -162l219 -585l131 344l-90 215q-8 19 -25.5 62.5t-24.5 59t-21 43.5t-26.5 47t-29.5 38h451q-8 -31 -8 -62q0 -87 34 -162l207 -546l199 512q33 79 33 161q0 42 -25 97h395
q-55 -48 -93.5 -122.5t-74.5 -174.5l-471 -1157l-22 20l-295 700l-295 -720zM1001 1534l-471 197l121 221l416 -303z" />
    <glyph glyph-name="wgrave" unicode="&#x1e81;" horiz-adv-x="1388" 
d="M956 -20l-247 501l-275 -501l-287 587q-24 50 -41.5 81t-48.5 73.5t-69 77.5h422q-11 -25 -11 -58q0 -16 2.5 -31.5t9.5 -36.5l10.5 -31.5t15 -39t14.5 -35.5l57 -151l119 229q-49 87 -79 120q-16 18 -34 34h422q-14 -28 -14 -70q0 -59 47 -162l45 -104l43 104
q39 85 39 160q0 26 -11 72h320q-103 -85 -172 -232zM770 940l-471 197l121 221l416 -303z" />
    <glyph glyph-name="Wacute" unicode="&#x1e82;" horiz-adv-x="1873" 
d="M623 0l-500 1184q-35 87 -68 142.5t-78 107.5h472q-7 -35 -7 -62q0 -83 33 -162l219 -585l131 344l-90 215q-8 19 -25.5 62.5t-24.5 59t-21 43.5t-26.5 47t-29.5 38h451q-8 -31 -8 -62q0 -87 34 -162l207 -546l199 512q33 79 33 161q0 42 -25 97h395
q-55 -48 -93.5 -122.5t-74.5 -174.5l-471 -1157l-22 20l-295 700l-295 -720zM1348 1731l-471 -195l-64 113l414 303z" />
    <glyph glyph-name="wacute" unicode="&#x1e83;" horiz-adv-x="1388" 
d="M956 -20l-247 501l-275 -501l-287 587q-24 50 -41.5 81t-48.5 73.5t-69 77.5h422q-11 -25 -11 -58q0 -16 2.5 -31.5t9.5 -36.5l10.5 -31.5t15 -39t14.5 -35.5l57 -151l119 229q-49 87 -79 120q-16 18 -34 34h422q-14 -28 -14 -70q0 -59 47 -162l45 -104l43 104
q39 85 39 160q0 26 -11 72h320q-103 -85 -172 -232zM1118 1137l-471 -195l-63 113l413 303z" />
    <glyph glyph-name="Wdieresis" unicode="&#x1e84;" horiz-adv-x="1873" 
d="M901 1718q0 -77 -50 -133.5t-126 -56.5t-125 56.5t-49 133.5q0 82 49 139.5t125 57.5t126 -58t50 -139zM1315 1718q0 -77 -50 -133.5t-126 -56.5q-72 0 -122 57t-50 133q0 81 49.5 139t122.5 58q76 0 126 -58t50 -139zM623 0l-500 1184q-35 87 -68 142.5t-78 107.5h472
q-7 -35 -7 -62q0 -83 33 -162l219 -585l131 344l-90 215q-8 19 -25.5 62.5t-24.5 59t-21 43.5t-26.5 47t-29.5 38h451q-8 -31 -8 -62q0 -87 34 -162l207 -546l199 512q33 79 33 161q0 42 -25 97h395q-55 -48 -93.5 -122.5t-74.5 -174.5l-471 -1157l-22 20l-295 700
l-295 -720z" />
    <glyph glyph-name="wdieresis" unicode="&#x1e85;" horiz-adv-x="1388" 
d="M670 1124q0 -77 -50 -133.5t-124 -56.5q-76 0 -125 56.5t-49 133.5q0 82 49 139.5t125 57.5q74 0 124 -58t50 -139zM1085 1124q0 -77 -50 -133.5t-126 -56.5q-73 0 -122.5 56.5t-49.5 133.5q0 81 49 139t123 58q76 0 126 -58t50 -139zM956 -20l-247 501l-275 -501
l-287 587q-24 50 -41.5 81t-48.5 73.5t-69 77.5h422q-11 -25 -11 -58q0 -16 2.5 -31.5t9.5 -36.5l10.5 -31.5t15 -39t14.5 -35.5l57 -151l119 229q-49 87 -79 120q-16 18 -34 34h422q-14 -28 -14 -70q0 -59 47 -162l45 -104l43 104q39 85 39 160q0 26 -11 72h320
q-103 -85 -172 -232z" />
    <glyph glyph-name="uni1E9E" unicode="&#x1e9e;" horiz-adv-x="1171" 
d="M76 0q34 37 50.5 81.5t18.5 72.5t2 82v962q0 54 -2 82t-18.5 72.5t-50.5 81.5h977l-201 -625h2q133 -38 195.5 -134t62.5 -257q0 -199 -140.5 -308.5t-416.5 -109.5l-41 195q260 0 260 223q0 129 -65.5 188.5t-176.5 59.5l140 499h-199v-929q0 -53 2.5 -81.5t19.5 -73
t52 -81.5h-471z" />
    <glyph glyph-name="Ygrave" unicode="&#x1ef2;" horiz-adv-x="1226" 
d="M1006 1102l-220 -471v-395q0 -53 2.5 -81.5t19 -73t50.5 -81.5h-469q34 37 50.5 81.5t19 73t2.5 81.5v335l-238 488q-14 29 -37.5 80.5t-33.5 71.5t-28 55.5t-29.5 52t-29.5 40.5t-36.5 41t-42.5 34h491q-12 -30 -12 -64q0 -71 53 -172l146 -307l124 268q50 102 50 193
q0 48 -15 82h396q-61 -46 -96.5 -104t-104.5 -203q-8 -16 -12 -25zM721 1534l-471 197l121 221l415 -303z" />
    <glyph glyph-name="ygrave" unicode="&#x1ef3;" horiz-adv-x="1005" 
d="M72 -164q104 0 183 64t146 182l-200 383q-19 36 -50 95.5t-43 82t-33.5 57t-40.5 56t-44 43.5h444q-8 -21 -8.5 -46.5t3 -46t13.5 -49.5t17.5 -46.5t21.5 -47.5l74 -168l80 168q33 71 33 146q0 37 -17 90h371q-42 -36 -78.5 -86t-55.5 -84.5t-67 -128.5l-196 -400
q-65 -130 -124.5 -224.5t-111 -153t-104.5 -93t-99.5 -47t-101.5 -12.5q-42 0 -96 14v266q41 -14 84 -14zM623 940l-471 197l120 221l416 -303z" />
    <glyph glyph-name="thinspace" unicode="&#x2009;" horiz-adv-x="55" 
 />
    <glyph glyph-name="endash" unicode="&#x2013;" horiz-adv-x="1050" 
d="M967 422h-881v223h881v-223z" />
    <glyph glyph-name="emdash" unicode="&#x2014;" horiz-adv-x="1234" 
d="M1151 383h-1065v223h1065v-223z" />
    <glyph glyph-name="quoteleft" unicode="&#x2018;" horiz-adv-x="454" 
d="M51 1094q0 258 299 442l51 -94q-80 -41 -120.5 -94t-40.5 -99q0 -32 23 -56t50.5 -38t50.5 -44.5t23 -74.5q0 -68 -44.5 -117t-115.5 -49q-81 0 -128.5 58.5t-47.5 165.5z" />
    <glyph glyph-name="quoteright" unicode="&#x2019;" horiz-adv-x="450" 
d="M408 1313q0 -259 -299 -443l-52 95q81 41 121.5 93.5t40.5 98.5q0 32 -23 56t-50.5 38t-50.5 44.5t-23 74.5q0 69 44 117.5t115 48.5q81 0 129 -58t48 -165z" />
    <glyph glyph-name="quotesinglbase" unicode="&#x201a;" horiz-adv-x="464" 
d="M395 143q0 -258 -299 -442l-51 94q81 41 121.5 94t40.5 99q0 27 -15 46.5t-37 33.5t-44 29t-37 41.5t-15 62.5q0 68 44.5 117t115.5 49q81 0 128.5 -58.5t47.5 -165.5z" />
    <glyph glyph-name="quotedblleft" unicode="&#x201c;" horiz-adv-x="880" 
d="M51 1094q0 258 299 442l51 -94q-80 -41 -120.5 -94t-40.5 -99q0 -32 23 -56t50.5 -38t50.5 -44.5t23 -74.5q0 -68 -44.5 -117t-115.5 -49q-81 0 -128.5 58.5t-47.5 165.5zM473 1094q0 258 299 442l51 -94q-80 -41 -120.5 -94t-40.5 -99q0 -32 23 -56t50.5 -38t50.5 -44.5
t23 -74.5q0 -68 -44.5 -117t-115.5 -49q-81 0 -128.5 58.5t-47.5 165.5z" />
    <glyph glyph-name="quotedblright" unicode="&#x201d;" horiz-adv-x="874" 
d="M408 1315q0 -259 -299 -443l-52 95q81 41 121.5 93.5t40.5 98.5q0 32 -23 56t-50.5 38t-50.5 44.5t-23 74.5q0 69 44 117.5t115 48.5q81 0 129 -58t48 -165zM831 1315q0 -259 -299 -443l-51 95q81 41 121.5 93.5t40.5 98.5q0 32 -23 56t-50.5 38t-50.5 44.5t-23 74.5
q0 69 44 117.5t115 48.5q81 0 128.5 -58t47.5 -165z" />
    <glyph glyph-name="quotedblbase" unicode="&#x201e;" horiz-adv-x="886" 
d="M395 143q0 -258 -299 -442l-51 94q81 41 121.5 94t40.5 99q0 27 -15 46.5t-37 33.5t-44 29t-37 41.5t-15 62.5q0 68 44.5 117t115.5 49q81 0 128.5 -58.5t47.5 -165.5zM817 143q0 -258 -299 -442l-51 94q81 41 121.5 94t40.5 99q0 27 -15 46.5t-37 33.5t-44 29t-37 41.5
t-15 62.5q0 68 44.5 117t115.5 49q81 0 128.5 -58.5t47.5 -165.5z" />
    <glyph glyph-name="dagger" unicode="&#x2020;" horiz-adv-x="1245" 
d="M786 1403v-277h177q148 0 239 60v-344q-89 59 -239 59h-177v-1096q0 -53 2.5 -81.5t19.5 -72.5t52 -81h-471q34 37 50.5 81t19 72.5t2.5 81.5v1096h-180q-149 0 -238 -59v344q91 -60 238 -60h180v277q0 53 -2.5 81.5t-19 72.5t-50.5 81h471q-35 -37 -52 -81t-19.5 -72.5
t-2.5 -81.5z" />
    <glyph glyph-name="daggerdbl" unicode="&#x2021;" horiz-adv-x="1337" 
d="M831 1403v-277h179q146 0 237 60v-344q-89 59 -237 59h-179v-491h179q148 0 237 59v-344q-89 59 -237 59h-179v-379q0 -53 2.5 -81.5t19.5 -72.5t52 -81h-471q34 37 50.5 81t19 72.5t2.5 81.5v379h-178q-149 0 -238 -59v344q89 -59 238 -59h178v491h-178q-149 0 -238 -59
v344q91 -60 238 -60h178v277q0 53 -2.5 81.5t-19 72.5t-50.5 81h471q-35 -37 -52 -81t-19.5 -72.5t-2.5 -81.5z" />
    <glyph glyph-name="bullet" unicode="&#x2022;" horiz-adv-x="636" 
d="M532 426q0 -97 -62 -166.5t-153 -69.5t-152 69.5t-61 166.5q0 99 61 170.5t152 71.5t153 -72t62 -170z" />
    <glyph glyph-name="ellipsis" unicode="&#x2026;" horiz-adv-x="1601" 
d="M410 170q0 -77 -50 -133.5t-124 -56.5q-76 0 -125.5 56.5t-49.5 133.5q0 81 49.5 139t125.5 58q74 0 124 -58t50 -139zM975 170q0 -77 -50 -133.5t-126 -56.5q-73 0 -122.5 56.5t-49.5 133.5q0 81 49 139t123 58q76 0 126 -58t50 -139zM1540 170q0 -77 -50 -133.5
t-126 -56.5q-74 0 -124 56.5t-50 133.5q0 81 50 139t124 58q76 0 126 -58t50 -139z" />
    <glyph glyph-name="perthousand" unicode="&#x2030;" horiz-adv-x="2439" 
d="M741 1112q0 -163 -100.5 -250.5t-249.5 -87.5q-71 0 -132.5 21t-110 61.5t-76 106.5t-27.5 149q0 164 99 253t247 89q71 0 133.5 -21.5t111 -63t77 -108t28.5 -149.5zM477 1112q0 70 -21 101.5t-63 31.5t-63 -31.5t-21 -101.5t20.5 -100.5t63.5 -30.5t63.5 30.5
t20.5 100.5zM2392 317q0 -163 -100.5 -250t-249.5 -87q-146 0 -245 87t-99 250q0 162 99.5 252t244.5 90q96 0 173.5 -37t127 -116.5t49.5 -188.5zM2130 317q0 134 -86 134t-86 -134q0 -131 86 -131t86 131zM1628 317q0 -163 -99.5 -250t-248.5 -87q-70 0 -131 21t-110 61.5
t-77 106t-28 148.5q0 162 100.5 252t245.5 90q95 0 172.5 -37t126.5 -116.5t49 -188.5zM1368 317q0 134 -86 134t-86 -134q0 -131 86 -131t86 131zM633 0h-250l594 1434h250z" />
    <glyph glyph-name="guilsinglleft" unicode="&#x2039;" horiz-adv-x="530" 
d="M55 344v145l387 316v-182l-176 -207l176 -213v-176z" />
    <glyph glyph-name="guilsinglright" unicode="&#x203a;" horiz-adv-x="530" 
d="M475 489v-145l-387 -317v176l176 213l-176 207v182z" />
    <glyph glyph-name="fraction" unicode="&#x2044;" horiz-adv-x="522" 
d="M88 0h-250l594 1434h250z" />
    <glyph glyph-name="zerosuperior" unicode="&#x2070;" horiz-adv-x="831" 
d="M774 1014q0 -253 -95.5 -384.5t-264.5 -131.5q-164 0 -259.5 132t-95.5 384t95.5 384t259.5 132q169 0 264.5 -131.5t95.5 -384.5zM498 1014q0 177 -17.5 258.5t-66.5 81.5q-43 0 -61.5 -84t-18.5 -256t18.5 -256t61.5 -84q49 0 66.5 81.5t17.5 258.5z" />
    <glyph glyph-name="foursuperior" unicode="&#x2074;" horiz-adv-x="778" 
d="M588 1516v-658q70 16 115.5 41.5t58.5 46.5l-82 -287q-43 11 -92 17q0 -37 1.5 -57t13 -50.5t34.5 -56.5h-367q23 26 34.5 57.5t13 51.5t1.5 57v2h-301l15 158l422 678h133zM190 846h129v203z" />
    <glyph glyph-name="fivesuperior" unicode="&#x2075;" horiz-adv-x="706" 
d="M78 985l82 531h442v-277q-36 68 -147 68h-144l-16 -127q182 0 268 -90.5t86 -245.5q0 -156 -87 -251t-243 -95q-63 0 -138 15t-79 15q-17 0 -28 -14l-23 299q31 -52 82.5 -87.5t106.5 -35.5q62 0 97.5 33t35.5 94q0 29 -6 51t-24.5 45t-50 38t-86 24.5t-128.5 9.5z" />
    <glyph glyph-name="sixsuperior" unicode="&#x2076;" horiz-adv-x="776" 
d="M518 1305q-113 0 -156 -158q48 31 109 31q116 0 180 -96.5t64 -247.5q0 -336 -330 -336q-176 0 -251 102.5t-75 335.5q0 155 32 271.5t90 186t132.5 103t165.5 33.5q37 0 71.5 -7t55.5 -13.5t25 -6.5q8 0 19.5 13.5t13.5 13.5l41 -301q-93 76 -187 76zM385 1008
q-7 0 -16 -9.5t-19.5 -48.5t-13.5 -102q0 -89 9 -118.5t38 -29.5q28 0 43.5 31t15.5 115q0 162 -57 162z" />
    <glyph glyph-name="sevensuperior" unicode="&#x2077;" horiz-adv-x="688" 
d="M176 758l191 504h-134q-96 0 -141 -9t-55 -32l61 309q3 -6 14.5 -8.5t53 -4t127.5 -1.5h391l-238 -840q-16 -72 -16 -90q0 -40 19 -74h-402q-10 0 4 19q53 74 76 118q27 51 49 109zM37 1221l-2 -11q0 9 2 11z" />
    <glyph glyph-name="eightsuperior" unicode="&#x2078;" horiz-adv-x="763" 
d="M711 811q0 -146 -90 -230.5t-238 -84.5q-149 0 -239.5 84t-90.5 229q0 96 35.5 159t91.5 81q-74 62 -74 198q0 134 80.5 207.5t196.5 73.5t195 -73.5t79 -207.5q0 -137 -73 -198q56 -18 91.5 -80.5t35.5 -157.5zM473 813q0 64 -23.5 103.5t-66.5 39.5t-68.5 -40.5
t-25.5 -102.5t26 -100.5t68 -38.5t66 39t24 100zM326 1247q0 -61 17.5 -92t39.5 -31q23 0 39 31t16 92t-16 89t-39 28q-22 0 -39.5 -28.5t-17.5 -88.5z" />
    <glyph glyph-name="ninesuperior" unicode="&#x2079;" horiz-adv-x="774" 
d="M256 723q110 0 156 158q-48 -31 -109 -31q-116 0 -180 96.5t-64 247.5q0 336 330 336q175 0 250.5 -103.5t75.5 -334.5q0 -155 -32 -271.5t-90 -186t-132.5 -103t-165.5 -33.5q-37 0 -71.5 6.5t-55.5 13t-25 6.5q-8 0 -19 -13t-13 -13l-41 301q93 -76 186 -76zM389 1020
q4 0 9 3.5t12.5 14.5t13.5 28.5t10 49.5t4 74q-1 81 -11 109t-36 28q-28 0 -43.5 -30.5t-15.5 -114.5q0 -162 57 -162z" />
    <glyph glyph-name="zeroinferior" unicode="&#x2080;" horiz-adv-x="835" 
d="M774 92q0 -253 -96 -384.5t-266 -131.5q-163 0 -259 133t-96 383t96 383t259 133q170 0 266 -131.5t96 -384.5zM498 92q0 176 -18.5 258t-67.5 82q-80 0 -80 -340t80 -340q49 0 67.5 82t18.5 258z" />
    <glyph glyph-name="oneinferior" unicode="&#x2081;" horiz-adv-x="540" 
d="M420 594l-2 -8v-830q0 -28 1.5 -43t9.5 -38.5t27.5 -44t51.5 -40.5h-449q32 20 52 40.5t27.5 44t9.5 39t2 42.5v486q-102 -45 -109 -52l16 195q4 3 58 29t124.5 64t118.5 71l60 45v-2z" />
    <glyph glyph-name="twoinferior" unicode="&#x2082;" horiz-adv-x="735" 
d="M610 -410h-561l19 172l86 119q33 47 84 115t75 101t51 77t37.5 77.5t10.5 67.5q0 87 -66 87q-67 0 -126 -58t-130 -168v357q4 0 15.5 -6.5t21.5 -6.5q15 0 37.5 13t45.5 29t71 29t108 13q57 0 104.5 -13.5t86 -43t60.5 -81t22 -122.5q0 -65 -20.5 -126t-69 -130.5
t-107.5 -135.5t-156 -163l-6 -6h76q116 0 203 19t114 44z" />
    <glyph glyph-name="threeinferior" unicode="&#x2083;" horiz-adv-x="696" 
d="M252 20q-82 0 -137 -38v254q17 -17 52.5 -27t72.5 -10q53 0 87.5 32.5t34.5 90.5q0 56 -32 84t-80 28q-39 0 -73 -21t-52.5 -44.5t-48.5 -69.5v287q1 0 7.5 -6.5t20.5 -6.5q9 0 71.5 17.5t123.5 17.5q143 0 230 -72.5t87 -193.5q0 -155 -131 -217q78 -24 115 -77t37 -154
q0 -157 -89.5 -237.5t-250.5 -80.5q-116 0 -188 31q-12 3 -33 -15v328q74 -151 180 -151q119 0 119 131q0 57 -36 88.5t-87 31.5z" />
    <glyph glyph-name="fourinferior" unicode="&#x2084;" horiz-adv-x="780" 
d="M592 594v-657q70 15 114.5 40.5t59.5 47.5l-84 -287q-36 9 -90 16q0 -37 1.5 -57t13 -50.5t34.5 -56.5h-367q33 37 41.5 74.5t8.5 91.5v2h-304l17 158l422 678h133zM195 -76h129v203z" />
    <glyph glyph-name="fiveinferior" unicode="&#x2085;" horiz-adv-x="708" 
d="M76 63l84 531h440v-277q-36 68 -145 68h-125l-17 -127q171 -6 253.5 -96.5t82.5 -239.5q0 -156 -87.5 -251t-244.5 -95q-62 0 -136.5 15.5t-78.5 15.5q-16 0 -28 -15l-23 299q31 -52 82.5 -87t106.5 -35q62 0 96.5 33t34.5 94q0 29 -6 51t-24.5 44.5t-50 37.5t-86 24.5
t-128.5 9.5z" />
    <glyph glyph-name="sixinferior" unicode="&#x2086;" horiz-adv-x="776" 
d="M518 383q-48 0 -87.5 -32t-65.5 -124q50 29 106 29q116 0 180 -96.5t64 -247.5q0 -336 -330 -336q-176 0 -252 102.5t-76 335.5q0 155 32 271.5t90 186t132.5 103t165.5 33.5q37 0 71.5 -6.5t55.5 -13t25 -6.5q8 0 20.5 13t14.5 13l41 -301q-93 76 -187 76zM334 -68
q0 -153 49 -153q28 0 43.5 30.5t15.5 114.5q0 162 -57 162q-48 0 -51 -154z" />
    <glyph glyph-name="seveninferior" unicode="&#x2087;" horiz-adv-x="688" 
d="M31 289l63 321q10 -16 215 -16h373l-238 -840q-18 -61 -18 -90q0 -41 20 -74h-401q-10 0 4 19q53 74 76 118q27 51 49 109l188 504h-131q-101 0 -141 -10.5t-59 -40.5z" />
    <glyph glyph-name="eightinferior" unicode="&#x2088;" horiz-adv-x="761" 
d="M711 -111q0 -146 -90.5 -230.5t-239.5 -84.5q-145 0 -237.5 85t-92.5 228q0 95 36.5 158.5t90.5 81.5q-72 63 -72 199q0 134 80 207t195 73q116 0 195 -73t79 -207q0 -141 -73 -199q57 -18 93 -80.5t36 -157.5zM471 -109q0 64 -23.5 104t-66.5 40q-42 0 -67 -41t-25 -103
t26 -100.5t68 -38.5t65 38.5t23 100.5zM319 315q0 -59 20 -85.5t44 -26.5t41.5 26t17.5 86q0 109 -59 109q-24 0 -44 -25t-20 -84z" />
    <glyph glyph-name="nineinferior" unicode="&#x2089;" horiz-adv-x="776" 
d="M256 -199q48 0 88 32t66 124q-50 -29 -107 -29q-117 0 -179.5 96t-62.5 248q0 336 328 336q177 0 252.5 -103.5t75.5 -334.5q0 -155 -32 -271.5t-90 -186t-132.5 -103t-165.5 -33.5q-37 0 -71.5 7t-55.5 13.5t-25 6.5q-9 0 -20.5 -13.5t-13.5 -13.5l-41 301
q93 -76 186 -76zM440 258q-2 148 -49 148q-27 0 -42 -31t-15 -115q0 -58 8.5 -96.5t20 -53t26.5 -14.5q23 0 34.5 33t16.5 111v18z" />
    <glyph glyph-name="Euro" unicode="&#x20ac;" horiz-adv-x="1341" 
d="M993 664h-489q4 -53 8 -80h469l-115 -205h-276q2 -6 10 -14q101 -125 301 -125q217 0 377 137l-74 -316q-51 -36 -143.5 -58.5t-206.5 -22.5q-302 0 -492 172q-93 87 -149 227h-313l114 205h150l-6 80h-203l115 204h96q17 115 47 187q80 201 237.5 300t354.5 99
q89 0 167 -20t124 -40t59 -20q39 0 59 33v-455q-77 119 -166 181.5t-206 62.5q-162 0 -250 -123q-59 -81 -80 -205h596z" />
    <glyph glyph-name="trademark" unicode="&#x2122;" horiz-adv-x="1464" 
d="M997 809l-153 362v-260q0 -22 1 -34.5t9 -32t23 -35.5h-222q15 16 23 35.5t9 32t1 34.5v432q0 23 -1 35.5t-9 33t-23 38.5h217l150 -365l143 365h203q-14 -18 -21.5 -38.5t-8.5 -33t-1 -35.5v-432q0 -22 1 -34.5t8.5 -32t21.5 -35.5h-233q15 16 22.5 36t8.5 31.5t1 34.5
v277l-159 -389zM600 1462l31 -192q-8 12 -45 20q-45 10 -86 10h-60v-389q0 -22 1 -34.5t8.5 -32t21.5 -35.5h-246q15 16 23 35.5t9 32t1 34.5v389h-47q-61 0 -113 -10q-41 -9 -49 -20l29 192q46 -12 135 -12h317q24 0 70 12z" />
    <glyph glyph-name="minus" unicode="&#x2212;" horiz-adv-x="888" 
d="M793 440h-695v224h695v-224z" />
    <glyph glyph-name="commaaccent" unicode="&#xf6c3;" horiz-adv-x="372" 
d="M270 -262q0 -78 -46.5 -143.5t-123.5 -112.5l-30 59q88 58 88 115q0 18 -12 32t-26 22.5t-26 26.5t-12 44q0 39 23.5 67.5t62.5 28.5q45 0 73.5 -37t28.5 -102z" />
    <glyph glyph-name="zerooldstyle" unicode="&#xf730;" horiz-adv-x="1234" 
d="M1165 543q0 -277 -143.5 -417t-407.5 -140q-259 0 -401.5 140.5t-142.5 416.5q0 274 143 414.5t401 140.5q264 0 407.5 -139.5t143.5 -415.5zM850 543q0 175 -60 268.5t-176 93.5q-112 0 -170.5 -94t-58.5 -268q0 -178 58.5 -271.5t170.5 -93.5q116 0 176 93.5t60 271.5z
" />
    <glyph glyph-name="oneoldstyle" unicode="&#xf731;" horiz-adv-x="649" 
d="M498 1092v-879q0 -36 2 -55t11.5 -50t34 -57t64.5 -51h-528q41 26 66 52t35 56t12 49.5t2 55.5v481q-139 -64 -146 -80l25 240l78 37q78 37 164.5 84t142.5 88z" />
    <glyph glyph-name="twooldstyle" unicode="&#xf732;" horiz-adv-x="899" 
d="M711 0h-658l43 207l54 59q47 52 107 116.5t90 97t65 75t50.5 71t26.5 63t11 71.5q0 127 -88 127q-148 0 -314 -238v371q6 0 21 -8t28 -8q17 0 44 14.5t56 31.5t88 31.5t132 14.5q147 0 245.5 -83t98.5 -231q0 -140 -85.5 -259.5t-293.5 -270.5q160 6 271 25.5t143 48.5z
" />
    <glyph glyph-name="threeoldstyle" unicode="&#xf733;" horiz-adv-x="876" 
d="M324 346q-108 0 -174 -39v287q53 -43 163 -43q88 0 133.5 46.5t45.5 127.5q0 78 -42 125t-114 47q-34 0 -64.5 -10.5t-53 -25.5t-47 -41.5t-39.5 -47t-38 -53.5v342q2 0 12 -8.5t25 -8.5q12 0 108 26t177 26q169 0 265.5 -90.5t96.5 -245.5q0 -221 -180 -303
q34 -13 60 -27.5t56 -40t49.5 -56t32.5 -77t13 -102.5q0 -179 -114 -282t-310 -103q-79 0 -166 19t-90 19q-10 0 -39 -16v389q99 -190 258 -190q70 0 118 45t48 127q0 80 -46.5 132t-143.5 52z" />
    <glyph glyph-name="fouroldstyle" unicode="&#xf734;" horiz-adv-x="1003" 
d="M762 1067v-844q156 30 225 109l-96 -357q-70 18 -129 23v-12q0 -48 2 -73.5t17 -65.5t44 -74h-430q23 26 36.5 52t19 56t7 50t1.5 55v14h-434v184l581 883h156zM229 211h230v352z" />
    <glyph glyph-name="fiveoldstyle" unicode="&#xf735;" horiz-adv-x="872" 
d="M86 410l150 665h512v-327q-32 51 -84.5 68.5t-122.5 17.5h-189l-45 -201h25q238 0 357.5 -116t119.5 -314q0 -196 -114.5 -316t-315.5 -120q-71 0 -148 19t-100 19q-29 0 -55 -16l-31 352q46 -69 112.5 -111t141.5 -42q82 0 139.5 49.5t57.5 136.5q0 42 -10 75t-37.5 64
t-72.5 51.5t-118.5 33t-171.5 12.5z" />
    <glyph glyph-name="sixoldstyle" unicode="&#xf736;" horiz-adv-x="999" 
d="M639 1069q-198 0 -248 -313q88 106 234 106q147 0 224 -114.5t77 -321.5q0 -212 -110 -328t-322 -116q-217 0 -320.5 134.5t-103.5 430.5q0 345 156 553.5t395 208.5q58 0 109.5 -7.5t81 -15.5t36.5 -8q13 0 26 15.5t15 15.5v-351q-64 61 -120 86t-130 25zM502 662
q-49 0 -84 -53t-41 -163q5 -146 31 -207t92 -61q64 0 90 55.5t26 176.5q0 252 -114 252z" />
    <glyph glyph-name="sevenoldstyle" unicode="&#xf737;" horiz-adv-x="931" 
d="M41 930l72 377q9 -9 23.5 -13.5t68.5 -9t149 -4.5h570l-385 -1079q-29 -85 -29 -129q0 -48 20 -82h-481q1 4 13 16.5t31.5 36t43.5 55.5t54 84t57 113l315 702h-252q-135 0 -194 -13.5t-76 -53.5z" />
    <glyph glyph-name="eightoldstyle" unicode="&#xf738;" horiz-adv-x="968" 
d="M909 375q0 -180 -117 -287.5t-309 -107.5q-190 0 -306 107.5t-116 287.5q0 123 52 207t133 108q-117 83 -117 266q0 165 100.5 259t253.5 94q154 0 255.5 -94t101.5 -259q0 -185 -117 -266q82 -24 134 -107.5t52 -207.5zM639 381q0 94 -42 151.5t-114 57.5
q-71 0 -112 -57.5t-41 -151.5q0 -92 41 -147.5t112 -55.5q73 0 114.5 55.5t41.5 147.5zM377 952q0 -87 30.5 -130.5t75.5 -43.5q48 0 78.5 43.5t30.5 130.5t-30.5 129.5t-78.5 42.5q-45 0 -75.5 -42.5t-30.5 -129.5z" />
    <glyph glyph-name="nineoldstyle" unicode="&#xf739;" horiz-adv-x="999" 
d="M358 10q196 0 246 314q-87 -107 -231 -107q-147 0 -224 114.5t-77 321.5q0 212 110 328.5t322 116.5q214 0 319 -135.5t105 -430.5q0 -172 -42 -316t-116 -241t-175 -150.5t-218 -53.5q-58 0 -109.5 7.5t-81 15t-36.5 7.5q-13 0 -26 -15t-15 -15v350q64 -61 119.5 -86
t129.5 -25zM496 418q48 0 82 52.5t40 162.5q-5 146 -30.5 207t-89.5 61t-90.5 -55t-26.5 -176q0 -252 115 -252z" />
    <glyph glyph-name="NULL" horiz-adv-x="0" 
 />
    <glyph glyph-name="A.SC" horiz-adv-x="1155" 
d="M735 0q13 79 -22 174h-353q-40 -105 -28 -174h-340q35 23 70.5 79.5t121.5 233.5l373 777l25 12l379 -758q106 -214 141 -267q39 -59 74 -77h-441zM530 596l-98 -244h205z" />
    <glyph glyph-name="A.sm" horiz-adv-x="1017" 
d="M635 0q12 69 -23 164h-295q-38 -104 -28 -164h-312q34 25 65.5 76t111.5 217l333 725l17 10l344 -709q98 -203 131 -253t63 -66h-407zM457 551l-82 -223h174z" />
    <glyph glyph-name="A.titl" horiz-adv-x="1265" 
d="M815 0q15 92 -37 242h-381q-57 -170 -41 -242h-372q41 26 82 96.5t131 274.5l415 934l23 16l418 -913l35 -75t32.5 -69t28 -59t26.5 -53.5t23.5 -43.5t23.5 -39t22 -29t23 -24.5t23 -15.5h-475zM580 760l-115 -324h240z" />
    <glyph glyph-name="AE.SC" horiz-adv-x="1331" 
d="M559 0q24 27 36.5 59.5t14.5 55.5t2 59h-252q-41 -112 -41 -174h-331q42 24 84 83t123 230l358 762h618v-244q-45 72 -176 72h-98v-231h92q119 0 182 45v-264q-68 45 -182 45h-92v-297h68q135 0 233 16q88 18 115 55l-119 -272h-635zM612 352v400l-176 -400h176z" />
    <glyph glyph-name="Aacute.SC" horiz-adv-x="1155" 
d="M735 0q13 79 -22 174h-353q-40 -105 -28 -174h-340q35 23 70.5 79.5t121.5 233.5l373 777l25 12l379 -758q106 -214 141 -267q39 -59 74 -77h-441zM530 596l-98 -244h205zM985 1378l-471 -194l-63 112l413 303z" />
    <glyph glyph-name="Acircumflex.SC" horiz-adv-x="1155" 
d="M735 0q13 79 -22 174h-353q-40 -105 -28 -174h-340q35 23 70.5 79.5t121.5 233.5l373 777l25 12l379 -758q106 -214 141 -267q39 -59 74 -77h-441zM819 1174l-266 145l-236 -145l-61 114l311 303l312 -303zM530 596l-98 -244h205z" />
    <glyph glyph-name="Adieresis.SC" horiz-adv-x="1155" 
d="M537 1366q0 -77 -50.5 -133.5t-126.5 -56.5q-74 0 -124 56.5t-50 133.5q0 81 50 139t124 58q77 0 127 -58t50 -139zM950 1366q0 -77 -49 -133.5t-125 -56.5q-73 0 -122.5 56.5t-49.5 133.5q0 81 49 139t123 58q76 0 125 -57.5t49 -139.5zM735 0q13 79 -22 174h-353
q-40 -105 -28 -174h-340q35 23 70.5 79.5t121.5 233.5l373 777l25 12l379 -758q106 -214 141 -267q39 -59 74 -77h-441zM530 596l-98 -244h205z" />
    <glyph glyph-name="Agrave.SC" horiz-adv-x="1155" 
d="M735 0q13 79 -22 174h-353q-40 -105 -28 -174h-340q35 23 70.5 79.5t121.5 233.5l373 777l25 12l379 -758q106 -214 141 -267q39 -59 74 -77h-441zM530 596l-98 -244h205zM637 1182l-471 196l121 221l415 -303z" />
    <glyph glyph-name="Aogonek.SC" horiz-adv-x="1155" 
d="M735 0q13 79 -22 174h-353q-40 -105 -28 -174h-340q35 23 70.5 79.5t121.5 233.5l373 777l25 12l379 -758q106 -214 141 -267q39 -59 74 -77h-170q-80 -80 -110 -129t-30 -92q0 -70 68 -70q81 0 156 78l-72 -233q-73 -56 -176 -56q-105 0 -160 52t-55 149q0 88 44 157
t140 144h-76zM530 596l-98 -244h205z" />
    <glyph glyph-name="B.SC" horiz-adv-x="978" 
d="M68 0q27 27 40 61t15 55.5t2 59.5v723q0 38 -2 59.5t-15 55.5t-40 61h342q216 -5 311.5 -70.5t95.5 -211.5q0 -122 -119 -183q121 -30 174.5 -102.5t53.5 -194.5q0 -146 -115 -229.5t-342 -83.5h-401zM631 313q0 95 -47.5 132.5t-145.5 37.5h-26v-319h20q98 0 148.5 34
t50.5 115zM412 643h30q51 0 83 32.5t32 96.5q0 70 -34 103.5t-91 33.5h-20v-266z" />
    <glyph glyph-name="B.titl" horiz-adv-x="1075" 
d="M70 0q31 34 46 74t17 65t2 74v866q0 49 -2 73.5t-17 64t-46 73.5h354q251 0 362 -79t111 -257q0 -148 -141 -223q142 -36 203 -122t61 -232q0 -178 -129 -277.5t-383 -99.5h-438zM702 377q0 117 -56.5 167t-170.5 50h-33v-412h31q229 0 229 195zM442 770h41q59 0 97 41
t38 123q0 89 -40 130.5t-107 41.5q-23 0 -29 -2v-334z" />
    <glyph glyph-name="C.SC" horiz-adv-x="1028" 
d="M623 864q-124 0 -191 -81.5t-67 -239.5q0 -330 276 -330q95 0 193 33.5t149 79.5l-65 -279q-45 -25 -140.5 -44t-189.5 -19q-256 0 -390.5 143t-134.5 405q0 268 143 414t380 146q76 0 140.5 -16t102.5 -32t48 -16q16 0 33 16l18 15v-385q-63 96 -136 143t-169 47z" />
    <glyph glyph-name="C.sm" horiz-adv-x="950" 
d="M573 807q-106 0 -161.5 -76t-55.5 -223q0 -153 61 -231t197 -78q168 0 279 106l-59 -260q-33 -25 -101.5 -42t-154.5 -17q-83 0 -155.5 17.5t-137.5 57t-111 98.5t-73 147.5t-27 197.5q0 110 27 198.5t72 146.5t106 97t125.5 55.5t134.5 16.5q66 0 123.5 -14t90 -28.5
t38.5 -14.5q34 0 51 22v-352q-113 176 -269 176z" />
    <glyph glyph-name="C.titl" horiz-adv-x="1128" 
d="M688 1065q-141 0 -219 -107.5t-78 -304.5q0 -426 352 -426q193 0 347 127l-72 -299q-44 -31 -129.5 -52t-190.5 -21q-104 0 -195.5 23t-172.5 74t-139 127t-91.5 189t-33.5 252q0 138 33.5 251t89.5 188t132.5 126.5t159.5 74t172 22.5q81 0 152 -18t113.5 -36t52.5 -18
q35 0 57 29v-424q-71 110 -152.5 166.5t-187.5 56.5z" />
    <glyph glyph-name="Cacute.SC" horiz-adv-x="1028" 
d="M623 864q-124 0 -191 -81.5t-67 -239.5q0 -330 276 -330q95 0 193 33.5t149 79.5l-65 -279q-45 -25 -140.5 -44t-189.5 -19q-256 0 -390.5 143t-134.5 405q0 268 143 414t380 146q76 0 140.5 -16t102.5 -32t48 -16q16 0 33 16l18 15v-385q-63 96 -136 143t-169 47z
M1008 1378l-471 -194l-64 112l414 303z" />
    <glyph glyph-name="Ccaron.SC" horiz-adv-x="1028" 
d="M623 864q-124 0 -191 -81.5t-67 -239.5q0 -330 276 -330q95 0 193 33.5t149 79.5l-65 -279q-45 -25 -140.5 -44t-189.5 -19q-256 0 -390.5 143t-134.5 405q0 268 143 414t380 146q76 0 140.5 -16t102.5 -32t48 -16q16 0 33 16l18 15v-385q-63 96 -136 143t-169 47z
M346 1591l252 -139l250 139l61 -114l-311 -303l-311 303z" />
    <glyph glyph-name="Ccedilla.SC" horiz-adv-x="1026" 
d="M487 -172l74 156q-239 9 -364 143q-134 146 -134 405q0 268 143 414t380 146q76 0 140.5 -16t102.5 -32t48 -16q16 0 33 16l18 15v-385q-63 96 -136 143t-169 47q-124 0 -191 -81.5t-67 -239.5q0 -330 276 -330q95 0 193 33.5t149 79.5l-65 -279q-44 -23 -138 -45
l-88 -12l-39 -70q84 -5 140.5 -54t56.5 -138q0 -246 -299 -246q-73 0 -111 16l-32 135q60 -18 108 -18q53 0 83 27.5t30 72.5q0 113 -142 113z" />
    <glyph glyph-name="D.SC" horiz-adv-x="1163" 
d="M125 899q0 38 -2 59.5t-15 55.5t-40 61h356q150 0 271.5 -32.5t213.5 -97.5t142.5 -172t50.5 -249q0 -129 -46.5 -228.5t-132 -162.5t-200 -96t-256.5 -37h-399q27 27 40 61t15 55.5t2 59.5v723zM412 604h-6l6 -4v-436h6q60 0 113 10.5t103 36.5t86 65.5t57.5 103
t21.5 144.5q0 106 -32 184.5t-87 121t-116.5 62t-131.5 19.5h-20v-307z" />
    <glyph glyph-name="D.titl" horiz-adv-x="1273" 
d="M135 1079q0 49 -2 73.5t-17 64t-46 73.5h391q166 0 301 -39t236.5 -117t157.5 -205.5t56 -295.5q0 -155 -52 -275.5t-147.5 -197t-223 -116.5t-283.5 -44h-436q31 34 46 74t17 65t2 74v866zM442 721h-4l4 -2v-537h13q68 0 128.5 14.5t116.5 48t96.5 84t64.5 128.5t24 176
q0 127 -36 222t-97 148.5t-132.5 79t-152.5 25.5h-25v-387z" />
    <glyph glyph-name="Dcaron.SC" horiz-adv-x="1165" 
d="M125 899q0 38 -2 59.5t-15 55.5t-40 61h356q150 0 271.5 -32.5t213.5 -97.5t142.5 -172t50.5 -249q0 -129 -46.5 -228.5t-132 -162.5t-200 -96t-256.5 -37h-399q27 27 40 61t15 55.5t2 59.5v723zM412 604h-6l6 -4v-436h6q60 0 113 10.5t103 36.5t86 65.5t57.5 103
t21.5 144.5q0 106 -32 184.5t-87 121t-116.5 62t-131.5 19.5h-20v-307zM350 1591l252 -139l250 139l61 -114l-311 -303l-311 303z" />
    <glyph glyph-name="E.SC" horiz-adv-x="868" 
d="M729 0h-661q27 27 40 61t15 55.5t2 59.5v723q0 38 -2 59.5t-15 55.5t-40 61h639v-244q-47 72 -189 72h-106v-231h100q125 0 195 45v-283q-76 45 -195 45h-100v-278h69q319 0 375 75z" />
    <glyph glyph-name="E.titl" horiz-adv-x="948" 
d="M803 0h-733q31 34 46 74t17 65t2 74v866q0 49 -2 73.5t-17 64t-46 73.5h706v-276q-55 86 -213 86h-121v-309h117q143 0 217 53v-320q-78 56 -217 56h-117v-359h80q179 0 281.5 20t136.5 66z" />
    <glyph glyph-name="Eacute.SC" horiz-adv-x="868" 
d="M729 0h-661q27 27 40 61t15 55.5t2 59.5v723q0 38 -2 59.5t-15 55.5t-40 61h639v-244q-47 72 -189 72h-106v-231h100q125 0 195 45v-283q-76 45 -195 45h-100v-278h69q319 0 375 75zM821 1378l-471 -194l-63 112l413 303z" />
    <glyph glyph-name="Ecaron.SC" horiz-adv-x="868" 
d="M729 0h-661q27 27 40 61t15 55.5t2 59.5v723q0 38 -2 59.5t-15 55.5t-40 61h639v-244q-47 72 -189 72h-106v-231h100q125 0 195 45v-283q-76 45 -195 45h-100v-278h69q319 0 375 75zM160 1591l252 -139l250 139l61 -114l-311 -303l-312 303z" />
    <glyph glyph-name="Ecircumflex.SC" horiz-adv-x="868" 
d="M729 0h-661q27 27 40 61t15 55.5t2 59.5v723q0 38 -2 59.5t-15 55.5t-40 61h639v-244q-47 72 -189 72h-106v-231h100q125 0 195 45v-283q-76 45 -195 45h-100v-278h69q319 0 375 75zM659 1174l-266 145l-235 -145l-62 114l312 303l311 -303z" />
    <glyph glyph-name="Edieresis.SC" horiz-adv-x="868" 
d="M373 1366q0 -77 -50 -133.5t-124 -56.5q-76 0 -125 56.5t-49 133.5q0 82 49 139.5t125 57.5q74 0 124 -58t50 -139zM788 1366q0 -77 -50 -133.5t-126 -56.5q-73 0 -122.5 56.5t-49.5 133.5q0 81 49 139t123 58q76 0 126 -58t50 -139zM729 0h-661q27 27 40 61t15 55.5
t2 59.5v723q0 38 -2 59.5t-15 55.5t-40 61h639v-244q-47 72 -189 72h-106v-231h100q125 0 195 45v-283q-76 45 -195 45h-100v-278h69q319 0 375 75z" />
    <glyph glyph-name="Egrave.SC" horiz-adv-x="868" 
d="M729 0h-661q27 27 40 61t15 55.5t2 59.5v723q0 38 -2 59.5t-15 55.5t-40 61h639v-244q-47 72 -189 72h-106v-231h100q125 0 195 45v-283q-76 45 -195 45h-100v-278h69q319 0 375 75zM473 1182l-471 196l121 221l416 -303z" />
    <glyph glyph-name="Eogonek.SC" horiz-adv-x="868" 
d="M350 -301q0 88 44.5 157t140.5 144h-467q27 27 40 61t15 55.5t2 59.5v723q0 38 -2 59.5t-15 55.5t-40 61h639v-244q-47 72 -189 72h-106v-231h100q125 0 195 45v-283q-76 45 -195 45h-100v-278h69q319 0 375 75l-127 -276q-80 -80 -109.5 -129t-29.5 -92q0 -70 67 -70
q81 0 156 78l-72 -233q-73 -56 -176 -56q-105 0 -160 52t-55 149z" />
    <glyph glyph-name="Euro.tab" 
d="M731 664h-377l6 -80h383l-110 -205h-221q68 -139 237 -139q106 0 183.5 35t142.5 102l-72 -316q-36 -36 -115.5 -58.5t-185.5 -22.5q-187 0 -331 98.5t-212 300.5h-262l109 205h110q-3 11 -4 23t-1 29.5t-1 27.5h-168l109 204h67q14 120 53 219.5t92 166t119.5 113
t135 67t139.5 20.5q60 0 116 -12.5t88.5 -27.5t59 -27.5t33.5 -12.5q39 0 59 33v-455q-73 119 -148.5 181.5t-168.5 62.5q-96 0 -155.5 -84.5t-78.5 -243.5h478z" />
    <glyph glyph-name="F.SC" horiz-adv-x="776" 
d="M412 614h71q121 0 195 45v-284q-80 45 -195 45h-71v-244q0 -38 2 -59.5t15 -55.5t40 -61h-401q27 27 40 61t15 55.5t2 59.5v723q0 38 -2 59.5t-15 55.5t-40 61h639v-244q-47 72 -189 72h-106v-289z" />
    <glyph glyph-name="F.titl" horiz-adv-x="835" 
d="M442 791h82q145 0 219 53v-320q-78 56 -219 56h-82v-367q0 -48 2 -73.5t17.5 -65.5t46.5 -74h-438q31 34 46 74t17 65t2 74v866q0 49 -2 73.5t-17 64t-46 73.5h706v-276q-55 86 -213 86h-121v-309z" />
    <glyph glyph-name="G.SC" horiz-adv-x="1060" 
d="M963 281v-267q-168 -28 -293 -28q-278 0 -443.5 144t-165.5 407q0 132 42.5 238t117 175t173 105.5t212.5 36.5q72 0 134.5 -14.5t100.5 -29t50 -14.5q16 0 35 14l18 13v-385q-73 104 -148.5 146t-160.5 42q-135 0 -204 -82.5t-69 -242.5q0 -324 308 -324l2 -2l4 -2v70
q0 39 -2 61.5t-15.5 56.5t-40.5 62h402q-27 -27 -40 -61.5t-15 -56.5t-2 -62z" />
    <glyph glyph-name="G.titl" horiz-adv-x="1173" 
d="M1065 344v-324q-163 -36 -326 -36q-307 0 -491.5 174.5t-184.5 486.5q0 156 48 283.5t131.5 210t194 126.5t237.5 44q80 0 148.5 -18t110 -36t58.5 -18q14 0 26.5 7.5t20 14.5t9.5 7v-424q-82 121 -166.5 172t-178.5 51q-153 0 -233 -108t-80 -310q0 -418 352 -418h17
v115q0 48 -2 74t-17.5 66.5t-46.5 74.5h438q-31 -34 -46 -74.5t-17 -66t-2 -74.5z" />
    <glyph glyph-name="H.SC" horiz-adv-x="1167" 
d="M1042 600v-424q0 -37 2 -59.5t15.5 -55.5t40.5 -61h-404q28 28 42 61t16 55.5t2 59.5v260h-344v-260q0 -38 2 -59.5t15 -55.5t40 -61h-401q27 27 40 61t15 55.5t2 59.5v723q0 38 -2 59.5t-15 55.5t-40 61h401q-27 -27 -40 -61t-15 -55.5t-2 -59.5v-270h344v270
q0 37 -2 59.5t-16 55.5t-42 61h404q-27 -28 -40.5 -61t-15.5 -55.5t-2 -59.5v-295h-6z" />
    <glyph glyph-name="H.titl" horiz-adv-x="1284" 
d="M70 0q31 34 46 74t17 65t2 74v866q0 49 -2 73.5t-17 64t-46 73.5h438q-31 -34 -46.5 -73t-17.5 -65t-2 -73v-329h398v329q0 46 -2.5 72.5t-17 65.5t-44.5 73h438q-29 -34 -44 -73t-17 -65t-2 -73v-866q0 -48 2 -73.5t17 -65.5t44 -74h-438q23 26 36.5 52t19 56t7 50
t1.5 55v326h-398v-326q0 -48 2 -73.5t17.5 -65.5t46.5 -74h-438z" />
    <glyph glyph-name="I.SC" horiz-adv-x="534" 
d="M412 899v-723q0 -38 2 -59.5t15 -55.5t40 -61h-401q27 27 40 61t15 55.5t2 59.5v723q0 38 -2 59.5t-15 55.5t-40 61h401q-27 -27 -40 -61t-15 -55.5t-2 -59.5z" />
    <glyph glyph-name="I.titl" horiz-adv-x="577" 
d="M70 0q31 34 46 74t17 65t2 74v866q0 49 -2 73.5t-17 64t-46 73.5h438q-31 -34 -46.5 -73t-17.5 -65t-2 -73v-866q0 -48 2 -73.5t17.5 -65.5t46.5 -74h-438z" />
    <glyph glyph-name="Iacute.SC" horiz-adv-x="534" 
d="M412 899v-723q0 -38 2 -59.5t15 -55.5t40 -61h-401q27 27 40 61t15 55.5t2 59.5v723q0 38 -2 59.5t-15 55.5t-40 61h401q-27 -27 -40 -61t-15 -55.5t-2 -59.5zM676 1378l-471 -194l-64 112l414 303z" />
    <glyph glyph-name="Icircumflex.SC" horiz-adv-x="534" 
d="M412 899v-723q0 -38 2 -59.5t15 -55.5t40 -61h-401q27 27 40 61t15 55.5t2 59.5v723q0 38 -2 59.5t-15 55.5t-40 61h401q-27 -27 -40 -61t-15 -55.5t-2 -59.5zM512 1174l-266 145l-236 -145l-61 114l311 303l311 -303z" />
    <glyph glyph-name="Idieresis.SC" horiz-adv-x="534" 
d="M229 1366q0 -77 -50 -133.5t-126 -56.5t-125 56.5t-49 133.5q0 82 49 139.5t125 57.5t126 -58t50 -139zM643 1366q0 -77 -50 -133.5t-126 -56.5q-73 0 -122.5 56.5t-49.5 133.5q0 81 49 139t123 58q76 0 126 -58t50 -139zM412 899v-723q0 -38 2 -59.5t15 -55.5t40 -61
h-401q27 27 40 61t15 55.5t2 59.5v723q0 38 -2 59.5t-15 55.5t-40 61h401q-27 -27 -40 -61t-15 -55.5t-2 -59.5z" />
    <glyph glyph-name="J.SC" horiz-adv-x="800" 
d="M401 899q0 38 -2 59.5t-14.5 55.5t-38.5 61h402q-27 -28 -40.5 -61t-15.5 -55.5t-2 -59.5v-455q0 -102 -22 -182t-59.5 -131.5t-92 -85t-114.5 -47.5t-132 -14q-55 0 -99 8t-66 16t-25 8q-6 0 -12.5 -6.5t-10 -13t-4.5 -6.5v422q41 -126 82 -172.5t111 -46.5
q33 0 58.5 10.5t48.5 36.5t35.5 79.5t12.5 131.5v448z" />
    <glyph glyph-name="J.titl" horiz-adv-x="870" 
d="M440 1079q0 47 -2 73t-17 65t-44 73h438q-29 -34 -44 -73t-17 -65t-2 -73v-571q0 -141 -36 -245t-101 -164t-146 -88.5t-180 -28.5q-60 0 -109 9.5t-74 19t-28 9.5q-8 0 -17.5 -15t-11.5 -15v467q44 -141 91.5 -195.5t121.5 -54.5q37 0 66.5 13t56 44.5t41 94t14.5 153.5
v567z" />
    <glyph glyph-name="K.002" horiz-adv-x="1286" 
d="M473 1198v-403l258 383q2 3 17 27.5t18.5 30.5t16 29t15.5 33t10.5 31t8.5 35t0.5 33t-4.5 37h391q-35 -25 -68 -58.5t-71.5 -83.5t-53.5 -71.5t-57 -81.5l-206 -301l372 -602q4 -7 18 -29.5t19.5 -30.5t19.5 -28t23.5 -30t27 -28t34 -30.5t39.5 -28.5t49 -31h-508
l-291 553l-78 -113v-204q0 -53 2.5 -81.5t19.5 -73t52 -81.5h-471q34 37 50.5 81.5t18.5 72.5t2 82v962q0 54 -2 82t-18.5 72.5t-50.5 81.5h471q-35 -37 -52 -81.5t-19.5 -73t-2.5 -81.5z" />
    <glyph glyph-name="K.SC" horiz-adv-x="1228" 
d="M412 899v-240q93 43 211 187l28 35q52 70 66 123q13 41 4 71h350q-44 -26 -84 -72t-85.5 -113t-59.5 -85l-33 -43q-99 -125 -215 -178q80 -23 139 -64t111 -108l14 -21q118 -147 187.5 -215.5t118 -91.5t114.5 -23q-61 -38 -138 -57.5t-139 -19.5q-104 0 -199.5 59
t-195.5 203l-35 51q-95 132 -159 162v-283q0 -38 2 -59.5t15 -55.5t40 -61h-401q27 27 40 61t15 55.5t2 59.5v723q0 38 -2 59.5t-15 55.5t-40 61h401q-27 -27 -40 -61t-15 -55.5t-2 -59.5z" />
    <glyph glyph-name="K.short" horiz-adv-x="1253" 
d="M473 1198v-305q127 59 232 215l38 57q68 98 86 172q14 58 5 97h372q-32 -23 -61.5 -53t-62.5 -77.5t-47.5 -69t-53 -86t-41.5 -69.5l-43 -69q-86 -129 -186 -193q109 -40 187.5 -152.5t158.5 -314.5q23 -59 43 -101.5t45.5 -86t54 -66t57.5 -22.5q-119 -94 -231 -94
q-116 0 -179 64.5t-126 234.5q-74 207 -133.5 307t-114.5 127v-477q0 -53 2.5 -81.5t19.5 -73t52 -81.5h-471q34 37 50.5 81.5t18.5 72.5t2 82v962q0 54 -2 82t-18.5 72.5t-50.5 81.5h471q-35 -37 -52 -81.5t-19.5 -73t-2.5 -81.5z" />
    <glyph glyph-name="K.titl" horiz-adv-x="1349" 
d="M70 0q31 34 46 74t17 65t2 74v866q0 49 -2 73.5t-17 64t-46 73.5h438q-31 -34 -46.5 -73t-17.5 -65t-2 -73v-297q121 39 242 219l33 50q68 102 78 153q10 49 0 86h385q-26 -18 -53 -44t-47 -49t-46 -59t-39 -55.5t-39 -60t-34 -51.5l-41 -62q-105 -151 -234 -211
q90 -26 156 -76.5t121 -134.5l20 -30q88 -129 151 -206t116.5 -117.5t95 -53t98.5 -12.5q-68 -42 -149.5 -64t-149.5 -22q-112 0 -214 71t-218 246l-43 63q-120 179 -189 205v-354q0 -48 2 -73.5t17.5 -65.5t46.5 -74h-438z" />
    <glyph glyph-name="L.SC" horiz-adv-x="856" 
d="M729 0h-661q27 27 40 61t15 55.5t2 59.5v723q0 38 -2 59.5t-15 55.5t-40 61h401q-27 -27 -40 -61t-15 -55.5t-2 -59.5v-698h69q319 0 375 75z" />
    <glyph glyph-name="L.titl" horiz-adv-x="933" 
d="M442 1079v-858h80q179 0 281.5 20t136.5 66l-137 -307h-733q31 34 46 74t17 65t2 74v866q0 49 -2 73.5t-17 64t-46 73.5h438q-31 -34 -46.5 -73t-17.5 -65t-2 -73z" />
    <glyph glyph-name="Lslash.SC" horiz-adv-x="894" 
d="M764 0h-662q27 28 40.5 61t15.5 55.5t2 59.5v98l-86 -67l-8 270l94 74v348q0 37 -2 59.5t-15.5 55.5t-40.5 61h402q-27 -28 -40.5 -61t-15.5 -55.5t-2 -59.5v-125l250 197v-277l-250 -196v-297h70q319 0 375 75z" />
    <glyph glyph-name="M.SC" horiz-adv-x="1280" 
d="M602 2l-252 569v-395q0 -41 1.5 -60.5t13.5 -54t38 -61.5h-335q27 27 40 61t15 55.5t2 59.5v723q0 38 -2 59.5t-15 55.5t-40 61h338l251 -532l242 532h313q-27 -27 -40 -61t-15 -55.5t-2 -59.5v-297h-4l4 -2v-424q0 -38 2 -59.5t15 -55.5t40 -61h-370q27 27 40 61
t15 55.5t2 59.5v420l-274 -612z" />
    <glyph glyph-name="M.sm" horiz-adv-x="1193" 
d="M561 2l-209 504v-340q0 -40 1 -58t11.5 -50t32.5 -58h-303q23 26 34.5 57.5t13 51.5t1.5 57v674q0 37 -1.5 57t-13 50.5t-34.5 56.5h309l209 -498l199 498h289q-23 -26 -34.5 -56.5t-13 -50.5t-1.5 -57v-279h-4l4 -2v-393q0 -37 1.5 -57t13 -51.5t34.5 -57.5h-336
q24 26 36 57.5t13.5 51.5t1.5 57v375l-235 -555z" />
    <glyph glyph-name="M.titl" horiz-adv-x="1423" 
d="M670 2l-291 705v-494q0 -39 1 -56t6 -48.5t18.5 -57t35.5 -51.5h-370q29 34 44 74t17 65.5t2 73.5v866q0 47 -2 73t-17 65t-44 73h368l293 -708l281 708h342q-31 -34 -46.5 -73t-17.5 -65t-2 -73v-866q0 -48 2 -73.5t17.5 -65.5t46.5 -74h-404q23 26 36.5 52t19 56t7 50
t1.5 55v535l-320 -766z" />
    <glyph glyph-name="N.SC" horiz-adv-x="1099" 
d="M963 -16l-617 710v-518q0 -38 2 -59.5t14.5 -55.5t38.5 -61h-329q26 27 38 61.5t13.5 54t1.5 60.5v723q0 41 -1.5 60.5t-13.5 54t-38 61.5h313l375 -418v242q0 37 -2 59.5t-15.5 55.5t-40.5 61h332q-27 -27 -40 -61t-15 -55.5t-2 -59.5v-901z" />
    <glyph glyph-name="N.titl" horiz-adv-x="1208" 
d="M1063 -18l-692 890v-659q0 -48 2 -73.5t17 -65.5t44 -74h-362q29 34 44 74t17 65.5t2 73.5v866q0 47 -2 73t-17 65t-44 73h338l432 -569v358q0 37 -1 55t-6 48.5t-18.5 56t-36.5 51.5h363q-30 -34 -44.5 -73t-17 -65.5t-2.5 -72.5v-1081z" />
    <glyph glyph-name="Nacute.SC" horiz-adv-x="1099" 
d="M963 -16l-617 710v-518q0 -38 2 -59.5t14.5 -55.5t38.5 -61h-329q26 27 38 61.5t13.5 54t1.5 60.5v723q0 41 -1.5 60.5t-13.5 54t-38 61.5h313l375 -418v242q0 37 -2 59.5t-15.5 55.5t-40.5 61h332q-27 -27 -40 -61t-15 -55.5t-2 -59.5v-901zM977 1378l-471 -194l-64 112
l414 303z" />
    <glyph glyph-name="O.SC" horiz-adv-x="1208" 
d="M1147 539q0 -109 -27 -200t-76 -156t-117 -110t-149.5 -67t-173.5 -22t-173.5 22t-149.5 67t-117 110t-76 156t-27 200q0 135 41.5 241.5t115.5 174t172 102.5t214 35t214 -35t172 -102.5t115.5 -174t41.5 -241.5zM846 539q0 163 -64 250.5t-178 87.5q-112 0 -177 -88
t-65 -250q0 -163 65 -251.5t177 -88.5q114 0 178 88t64 252z" />
    <glyph glyph-name="O.sm" horiz-adv-x="1110" 
d="M1036 502q0 -126 -37.5 -226t-103.5 -162.5t-152.5 -95t-187.5 -32.5t-187.5 32.5t-152.5 95t-103.5 162.5t-37.5 226q0 125 37.5 224.5t103.5 162.5t152.5 96t187.5 33t187.5 -33t152.5 -96t103.5 -162.5t37.5 -224.5zM754 502q0 152 -53 233.5t-146 81.5t-146 -81.5
t-53 -233.5t53 -234t146 -82t146 82t53 234z" />
    <glyph glyph-name="O.titl" horiz-adv-x="1341" 
d="M1276 645q0 -159 -46 -286t-128 -209t-191.5 -125t-238.5 -43t-239 43t-192 125t-128.5 209t-46.5 286t46.5 286t128.5 209t192 125.5t239 43.5t238.5 -43.5t191.5 -125.5t128 -209t46 -286zM950 645q0 207 -73.5 318.5t-204.5 111.5t-206 -112t-75 -318t75 -318
t206 -112t204.5 111.5t73.5 318.5z" />
    <glyph glyph-name="OE.SC" horiz-adv-x="1533" 
d="M762 0l14 16q-88 -32 -198 -32q-109 0 -202 35t-164 102.5t-111 175t-40 242.5t40 241.5t111 174t164 102.5t202 35q102 0 198 -35l-14 18h612v-244q-45 72 -176 72h-96v-231h90q119 0 182 45v-264q-68 45 -182 45h-90v-297h67q134 0 232 16q88 18 115 55l-119 -272h-635
zM793 539q0 162 -57.5 250t-157.5 88t-158 -88t-58 -250q0 -163 58 -251.5t158 -88.5t157.5 88.5t57.5 251.5z" />
    <glyph glyph-name="Oacute.SC" horiz-adv-x="1208" 
d="M1147 539q0 -109 -27 -200t-76 -156t-117 -110t-149.5 -67t-173.5 -22t-173.5 22t-149.5 67t-117 110t-76 156t-27 200q0 135 41.5 241.5t115.5 174t172 102.5t214 35t214 -35t172 -102.5t115.5 -174t41.5 -241.5zM846 539q0 163 -64 250.5t-178 87.5q-112 0 -177 -88
t-65 -250q0 -163 65 -251.5t177 -88.5q114 0 178 88t64 252zM1016 1378l-471 -194l-64 112l414 303z" />
    <glyph glyph-name="Ocircumflex.SC" horiz-adv-x="1210" 
d="M1147 539q0 -109 -27 -200t-76 -156t-117 -110t-149.5 -67t-173.5 -22t-173.5 22t-149.5 67t-117 110t-76 156t-27 200q0 135 41.5 241.5t115.5 174t172 102.5t214 35t214 -35t172 -102.5t115.5 -174t41.5 -241.5zM846 539q0 163 -64 250.5t-178 87.5q-112 0 -177 -88
t-65 -250q0 -163 65 -251.5t177 -88.5q114 0 178 88t64 252zM854 1174l-266 145l-236 -145l-61 114l311 303l311 -303z" />
    <glyph glyph-name="Odieresis.SC" horiz-adv-x="1208" 
d="M569 1366q0 -77 -50 -133.5t-126 -56.5t-125 56.5t-49 133.5q0 82 49 139.5t125 57.5t126 -58t50 -139zM983 1366q0 -77 -50 -133.5t-126 -56.5q-72 0 -122 57t-50 133q0 81 49.5 139t122.5 58q76 0 126 -58t50 -139zM1147 539q0 -109 -27 -200t-76 -156t-117 -110
t-149.5 -67t-173.5 -22t-173.5 22t-149.5 67t-117 110t-76 156t-27 200q0 135 41.5 241.5t115.5 174t172 102.5t214 35t214 -35t172 -102.5t115.5 -174t41.5 -241.5zM846 539q0 163 -64 250.5t-178 87.5q-112 0 -177 -88t-65 -250q0 -163 65 -251.5t177 -88.5q114 0 178 88
t64 252z" />
    <glyph glyph-name="P.SC" 
d="M881 719q0 -160 -121 -245.5t-348 -90.5v-207q0 -38 2 -59.5t15 -55.5t40 -61h-401q27 27 40 61t15 55.5t2 59.5v723q0 38 -2 59.5t-15 55.5t-40 61h342q230 -1 350.5 -94.5t120.5 -261.5zM412 895v-334h12q172 0 172 162q0 82 -42.5 128t-117.5 46q-20 0 -24 -2z" />
    <glyph glyph-name="P.titl" horiz-adv-x="1005" 
d="M70 0q31 34 46 74t17 65t2 74v866q0 49 -2 73.5t-17 64t-46 73.5h370q256 0 391.5 -109.5t135.5 -303.5q0 -191 -135 -293t-390 -107v-264q0 -48 2 -73.5t17.5 -65.5t46.5 -74h-438zM442 674h21q93 0 144.5 51.5t51.5 153.5q0 104 -47.5 161.5t-138.5 57.5q-8 0 -18 -1
t-13 -1v-422zM420 477l6 -2v2h-6z" />
    <glyph glyph-name="Q.SC" horiz-adv-x="1208" 
d="M1147 539q0 -188 -76 -314.5t-211 -189.5q97 -100 215 -136t291 -36q-76 -100 -155.5 -142.5t-170.5 -42.5q-127 0 -254.5 69.5t-226.5 219.5l-14 19q-217 18 -350.5 160t-133.5 393q0 135 41.5 241.5t115.5 174t172 102.5t214 35t214 -35t172 -102.5t115.5 -174
t41.5 -241.5zM846 539q0 163 -64 250.5t-178 87.5q-112 0 -177 -88t-65 -250q0 -163 65 -251.5t177 -88.5q114 0 178 88t64 252z" />
    <glyph glyph-name="Q.titl" horiz-adv-x="1341" 
d="M1276 645q0 -222 -86.5 -376t-239.5 -228q113 -128 250.5 -177.5t331.5 -49.5q-157 -201 -350 -201q-88 0 -179.5 31t-189.5 108.5t-168 192.5l-27 39q-120 9 -220 56t-174.5 129t-116 204t-41.5 272q0 159 46.5 286t128.5 209t192 125.5t239 43.5t238.5 -43.5
t191.5 -125.5t128 -209t46 -286zM950 645q0 207 -73.5 318.5t-204.5 111.5t-206 -112t-75 -318t75 -318t206 -112t204.5 111.5t73.5 318.5z" />
    <glyph glyph-name="R.002" horiz-adv-x="1679" 
d="M76 0q34 37 50.5 81.5t18.5 72.5t2 82v962q0 54 -2 82t-18.5 72.5t-50.5 81.5h471l-2 -2q239 -12 370.5 -119.5t131.5 -280.5q0 -70 -15 -124t-61.5 -106t-124.5 -83q109 -69 155 -127l11 -12l57 -72q94 -101 155 -162t131 -119.5t129 -88t128.5 -47t148.5 -17.5
q-174 -97 -364 -97q-163 0 -314 86.5t-299 276.5l-49 66q-32 41 -51 62.5t-52.5 53t-68.5 46t-74 14.5h-16v-346q0 -53 2.5 -81.5t19.5 -73t52 -81.5h-471zM473 788h23q105 0 165 54t60 151q0 96 -56 155.5t-159 59.5q-8 0 -19 -1t-14 -1v-418z" />
    <glyph glyph-name="R.SC" horiz-adv-x="1118" 
d="M913 -18q-76 0 -142.5 48t-135.5 165l-23 38q-52 88 -105.5 135.5t-88.5 47.5h-6v-240q0 -38 2 -59.5t15 -55.5t40 -61h-401q27 27 40 61t15 55.5t2 59.5v723q0 38 -2 59.5t-15 55.5t-40 61h356q211 0 332 -90t121 -231q0 -183 -191 -262q68 -22 120.5 -72.5
t117.5 -145.5l22 -34q57 -87 122 -133t116 -46q-58 -40 -136.5 -59.5t-134.5 -19.5zM444 881q-26 0 -32 -2v-285q6 -2 16 -2h18q142 0 142 143q0 146 -144 146z" />
    <glyph glyph-name="R.short" horiz-adv-x="1183" 
d="M973 -20q-115 0 -178.5 64t-126.5 235q-59 166 -99.5 234.5t-72.5 68.5h-23v-346q0 -53 2.5 -81.5t19.5 -73t52 -81.5h-471q34 37 50.5 81.5t18.5 72.5t2 82v962q0 54 -2 82t-18.5 72.5t-50.5 81.5h444q245 0 384.5 -116t139.5 -298q0 -267 -241 -365q59 -35 103.5 -104
t99.5 -201q20 -48 34.5 -80t36.5 -73t40.5 -65t42 -41t46.5 -17q-119 -94 -233 -94zM473 788q8 -2 25 -2h26q193 0 193 211t-195 211q-21 0 -49 -4v-416z" />
    <glyph glyph-name="R.sm" horiz-adv-x="1064" 
d="M840 -16q-71 0 -130 44t-116 154l-19 37q-43 83 -88.5 125.5t-74.5 42.5v-221q0 -37 1.5 -57t13.5 -51.5t36 -57.5h-371q23 26 34.5 57.5t13 51.5t1.5 57v674q0 37 -1.5 57t-13 50.5t-34.5 56.5h322q191 0 299 -85t108 -217q0 -36 -5 -64.5t-20.5 -63t-50.5 -64
t-88 -51.5q32 -10 58.5 -26.5t53.5 -47t45 -54.5t52 -73l23 -35q53 -81 107.5 -123.5t95.5 -42.5q-54 -36 -128 -54.5t-124 -18.5zM412 559v-6h24q119 0 119 133q0 66 -26 100.5t-93 34.5q-18 0 -24 -2v-254h-11z" />
    <glyph glyph-name="R.titl" horiz-adv-x="1232" 
d="M1014 -18q-83 0 -157 60t-155 208l-26 49q-57 105 -118 161t-105 56h-11v-303q0 -48 2 -73.5t17.5 -65.5t46.5 -74h-438q31 34 46 74t17 65t2 74v866q0 49 -2 73.5t-17 64t-46 73.5h391q235 0 367.5 -104.5t132.5 -272.5q0 -230 -218 -313q79 -22 140 -81.5t125 -168.5
l28 -47q70 -114 142 -173.5t131 -59.5q-67 -45 -150 -66.5t-145 -21.5zM442 719v-8q6 -1 13.5 -1t16 0.5t13.5 0.5q166 0 166 184t-168 184h-22q-13 0 -19 -2v-356h-4z" />
    <glyph glyph-name="Rcaron.SC" horiz-adv-x="1118" 
d="M913 -18q-76 0 -142.5 48t-135.5 165l-23 38q-52 88 -105.5 135.5t-88.5 47.5h-6v-240q0 -38 2 -59.5t15 -55.5t40 -61h-401q27 27 40 61t15 55.5t2 59.5v723q0 38 -2 59.5t-15 55.5t-40 61h356q211 0 332 -90t121 -231q0 -183 -191 -262q68 -22 120.5 -72.5
t117.5 -145.5l22 -34q57 -87 122 -133t116 -46q-58 -40 -136.5 -59.5t-134.5 -19.5zM225 1591l252 -139l250 139l61 -114l-311 -303l-311 303zM444 881q-26 0 -32 -2v-285q6 -2 16 -2h18q142 0 142 143q0 146 -144 146z" />
    <glyph glyph-name="S.SC" horiz-adv-x="796" 
d="M84 4v467q58 -121 135.5 -193.5t161.5 -72.5q38 0 64 18t26 49q0 37 -39 70t-94 65.5t-110.5 74.5t-94.5 115t-39 169q0 65 18.5 122t56 103.5t101 73.5t146.5 27q59 0 104 -14.5t72.5 -29t46.5 -14.5q14 0 28 7.5t21 7.5v-383q-34 54 -70 100t-90 87.5t-100 41.5
q-30 0 -52 -19t-22 -57q0 -34 20.5 -61.5t53.5 -48.5t72.5 -42.5t79.5 -50.5t73 -65.5t53.5 -95t20.5 -131.5q0 -156 -86.5 -248t-237.5 -92q-73 0 -161 26.5t-103 26.5q-11 0 -20.5 -3.5t-15.5 -8t-10 -9.5t-7 -8z" />
    <glyph glyph-name="S.titl" horiz-adv-x="872" 
d="M88 4v514q63 -137 149.5 -217t178.5 -80q47 0 77.5 26t30.5 75q0 39 -23.5 73t-61 62.5t-83 59t-91 69t-83 84.5t-61 114t-23.5 150q0 178 95.5 276.5t263.5 98.5q91 0 159 -35l48 -23q23 -10 41 -10q15 0 30.5 8t22.5 8v-421q-25 43 -55.5 84.5t-69 83t-82 67
t-82.5 25.5q-38 0 -64 -27t-26 -78q0 -43 23.5 -78.5t61 -62.5t82.5 -55.5t90 -65t82.5 -82t61 -115.5t23.5 -157q0 -180 -97.5 -286.5t-263.5 -106.5q-62 0 -123.5 14t-105 28.5t-63.5 14.5q-11 0 -21.5 -3.5t-17.5 -8.5t-12 -10.5t-8 -8.5z" />
    <glyph glyph-name="Sacute.SC" horiz-adv-x="796" 
d="M84 4v467q58 -121 135.5 -193.5t161.5 -72.5q38 0 64 18t26 49q0 37 -39 70t-94 65.5t-110.5 74.5t-94.5 115t-39 169q0 65 18.5 122t56 103.5t101 73.5t146.5 27q59 0 104 -14.5t72.5 -29t46.5 -14.5q14 0 28 7.5t21 7.5v-383q-34 54 -70 100t-90 87.5t-100 41.5
q-30 0 -52 -19t-22 -57q0 -34 20.5 -61.5t53.5 -48.5t72.5 -42.5t79.5 -50.5t73 -65.5t53.5 -95t20.5 -131.5q0 -156 -86.5 -248t-237.5 -92q-73 0 -161 26.5t-103 26.5q-11 0 -20.5 -3.5t-15.5 -8t-10 -9.5t-7 -8zM831 1378l-471 -194l-63 112l414 303z" />
    <glyph glyph-name="Scaron.SC" horiz-adv-x="796" 
d="M84 4v467q58 -121 135.5 -193.5t161.5 -72.5q38 0 64 18t26 49q0 37 -39 70t-94 65.5t-110.5 74.5t-94.5 115t-39 169q0 65 18.5 122t56 103.5t101 73.5t146.5 27q59 0 104 -14.5t72.5 -29t46.5 -14.5q14 0 28 7.5t21 7.5v-383q-34 54 -70 100t-90 87.5t-100 41.5
q-30 0 -52 -19t-22 -57q0 -34 20.5 -61.5t53.5 -48.5t72.5 -42.5t79.5 -50.5t73 -65.5t53.5 -95t20.5 -131.5q0 -156 -86.5 -248t-237.5 -92q-73 0 -161 26.5t-103 26.5q-11 0 -20.5 -3.5t-15.5 -8t-10 -9.5t-7 -8zM166 1591l252 -139l250 139l61 -114l-311 -303l-312 303z
" />
    <glyph glyph-name="T.SC" horiz-adv-x="905" 
d="M834 1098l51 -289q-15 15 -87.5 33t-146.5 18h-37v-684q0 -37 2 -59.5t15.5 -55.5t40.5 -61h-402q28 28 42 61t16 55.5t2 59.5v684h-13q-123 0 -206 -18t-95 -33l58 289q76 -23 254 -23h344q111 3 162 23z" />
    <glyph glyph-name="T.sm" horiz-adv-x="841" 
d="M756 1024l47 -264q-20 14 -81.5 28.5t-123.5 14.5h-27v-637q0 -36 2 -57t13.5 -52t34.5 -57h-371q26 26 38 58t13.5 50.5t1.5 57.5v637h-4q-95 0 -172.5 -14.5t-93.5 -28.5l47 264q62 -20 235 -20h306q79 2 135 20zM805 752l-2 8q3 -7 2 -8zM33 760v-8q-3 3 0 8z" />
    <glyph glyph-name="T.titl" horiz-adv-x="989" 
d="M918 1317l59 -320q-15 19 -96.5 39.5t-167.5 20.5h-41v-844q0 -48 2 -73.5t17 -65.5t44 -74h-438q31 34 46 74t17 65t2 74v844h-18q-130 0 -225.5 -19.5t-108.5 -40.5l62 320q69 -27 278 -27h385q114 2 183 27zM979 991l-2 6q2 -2 2 -6z" />
    <glyph glyph-name="Tcaron.SC" horiz-adv-x="905" 
d="M834 1098l51 -289q-15 15 -87.5 33t-146.5 18h-37v-684q0 -37 2 -59.5t15.5 -55.5t40.5 -61h-402q28 28 42 61t16 55.5t2 59.5v684h-13q-123 0 -206 -18t-95 -33l58 289q76 -23 254 -23h344q111 3 162 23zM217 1591l252 -139l250 139l61 -114l-311 -303l-311 303z" />
    <glyph glyph-name="U.SC" horiz-adv-x="1056" 
d="M399 899v-516q0 -170 131 -170q125 0 125 170v516q0 38 -2 59.5t-14.5 55.5t-38.5 61h401q-27 -27 -40 -61t-15 -55.5t-2 -59.5v-537q0 -93 -35.5 -167t-95.5 -119t-133.5 -68.5t-153.5 -23.5q-87 0 -160.5 23t-130.5 68.5t-89.5 119t-32.5 167.5v537q0 37 -2 59.5
t-15.5 55.5t-40.5 61h402q-27 -28 -40.5 -61t-15.5 -55.5t-2 -59.5z" />
    <glyph glyph-name="U.titl" horiz-adv-x="1171" 
d="M430 1079v-626q0 -226 156 -226q155 0 155 226v626q0 49 -2 73.5t-17 64t-46 73.5h438q-31 -34 -46 -73.5t-17 -64t-2 -73.5v-645q0 -110 -39.5 -198.5t-106 -142.5t-148.5 -82.5t-171 -28.5q-202 0 -331.5 116.5t-129.5 335.5v645q0 47 -2 73t-17.5 65t-46.5 73h439
q-31 -34 -46.5 -73t-17.5 -65t-2 -73z" />
    <glyph glyph-name="Uacute.SC" horiz-adv-x="1056" 
d="M399 899v-516q0 -170 131 -170q125 0 125 170v516q0 38 -2 59.5t-14.5 55.5t-38.5 61h401q-27 -27 -40 -61t-15 -55.5t-2 -59.5v-537q0 -93 -35.5 -167t-95.5 -119t-133.5 -68.5t-153.5 -23.5q-87 0 -160.5 23t-130.5 68.5t-89.5 119t-32.5 167.5v537q0 37 -2 59.5
t-15.5 55.5t-40.5 61h402q-27 -28 -40.5 -61t-15.5 -55.5t-2 -59.5zM942 1378l-471 -194l-63 112l413 303z" />
    <glyph glyph-name="Ucircumflex.SC" horiz-adv-x="1056" 
d="M399 899v-516q0 -170 131 -170q125 0 125 170v516q0 38 -2 59.5t-14.5 55.5t-38.5 61h401q-27 -27 -40 -61t-15 -55.5t-2 -59.5v-537q0 -93 -35.5 -167t-95.5 -119t-133.5 -68.5t-153.5 -23.5q-87 0 -160.5 23t-130.5 68.5t-89.5 119t-32.5 167.5v537q0 37 -2 59.5
t-15.5 55.5t-40.5 61h402q-27 -28 -40.5 -61t-15.5 -55.5t-2 -59.5zM778 1174l-266 145l-236 -145l-61 114l311 303l312 -303z" />
    <glyph glyph-name="Udieresis.SC" horiz-adv-x="1056" 
d="M494 1366q0 -76 -50.5 -133t-124.5 -57q-76 0 -125 56.5t-49 133.5q0 82 49 139.5t125 57.5q74 0 124.5 -58t50.5 -139zM909 1366q0 -77 -50 -133.5t-126 -56.5q-73 0 -122.5 56.5t-49.5 133.5q0 81 49 139t123 58q76 0 126 -58t50 -139zM399 899v-516q0 -170 131 -170
q125 0 125 170v516q0 38 -2 59.5t-14.5 55.5t-38.5 61h401q-27 -27 -40 -61t-15 -55.5t-2 -59.5v-537q0 -93 -35.5 -167t-95.5 -119t-133.5 -68.5t-153.5 -23.5q-87 0 -160.5 23t-130.5 68.5t-89.5 119t-32.5 167.5v537q0 37 -2 59.5t-15.5 55.5t-40.5 61h402
q-27 -28 -40.5 -61t-15.5 -55.5t-2 -59.5z" />
    <glyph glyph-name="Ugrave.SC" horiz-adv-x="1056" 
d="M399 899v-516q0 -170 131 -170q125 0 125 170v516q0 38 -2 59.5t-14.5 55.5t-38.5 61h401q-27 -27 -40 -61t-15 -55.5t-2 -59.5v-537q0 -93 -35.5 -167t-95.5 -119t-133.5 -68.5t-153.5 -23.5q-87 0 -160.5 23t-130.5 68.5t-89.5 119t-32.5 167.5v537q0 37 -2 59.5
t-15.5 55.5t-40.5 61h402q-27 -28 -40.5 -61t-15.5 -55.5t-2 -59.5zM594 1182l-471 196l121 221l415 -303z" />
    <glyph glyph-name="V.SC" horiz-adv-x="1099" 
d="M547 0l-379 748q-34 63 -71 137t-49.5 98t-30.5 49t-40 43h402q0 -8 -1 -23.5t-1 -23.5q0 -60 43 -149l180 -392l164 396q27 66 27 121q0 36 -21 71h336q-18 -15 -34 -34.5t-32.5 -49t-27 -50.5t-30.5 -65t-30 -65l-385 -827z" />
    <glyph glyph-name="V.titl" horiz-adv-x="1204" 
d="M588 0l-412 926q-15 33 -40.5 91t-36 80.5t-29 60t-30.5 55.5t-29 39.5t-36 37.5h439q-4 -36 -4 -59q0 -68 45 -176l196 -477l201 481q31 81 31 139q0 49 -25 92h367q-25 -22 -49.5 -60t-39 -69t-41 -90.5t-40.5 -89.5l-445 -999z" />
    <glyph glyph-name="W.SC" horiz-adv-x="1527" 
d="M504 0l-410 889q-8 18 -22 49t-20.5 44t-17 32.5t-20 33t-22.5 27.5h393q-4 -12 -4 -22v-23q-2 -51 27 -123l153 -338l94 181l-63 139q-14 28 -30 63t-24 52t-21 36.5t-28 34.5h392q-7 -28 -7 -47q-3 -56 27 -121l152 -327l151 309q27 59 27 115q0 7 -1 13t-1.5 10
t-4 11.5t-4.5 10t-6.5 13t-7.5 13.5h342q-19 -16 -36 -35.5t-33 -47.5t-24 -43t-24 -50.5t-18 -40.5l-397 -872l-17 14l-237 514l-240 -530z" />
    <glyph glyph-name="W.titl" horiz-adv-x="1708" 
d="M569 0l-456 1065q-61 142 -133 225h442q-4 -36 -4 -55q0 -64 31 -145l182 -486l110 287l-73 174q-5 11 -18.5 44t-17 41.5t-14 31.5t-15.5 32t-14.5 25t-18 27.5t-19.5 23.5h424q-6 -54 -6 -55q0 -67 30 -145l179 -467l174 438q30 78 30 143q0 42 -24 86h371
q-35 -31 -67 -82t-47 -85t-40 -97l-436 -1044l-17 18l-268 625l-268 -643z" />
    <glyph glyph-name="X.SC" horiz-adv-x="1103" 
d="M516 901l78 -133l90 131q78 110 37 176h379q-51 -26 -89.5 -60.5t-55 -56.5t-40.5 -59l-208 -321l155 -263q106 -172 136 -211q49 -64 122 -104h-479q18 27 18 59q0 19 -8 42t-15.5 36t-23.5 41l-106 178l-109 -180q-4 -7 -16.5 -28.5t-17.5 -30.5t-12 -27.5t-8 -30.5
t2.5 -28t12.5 -31h-374q73 42 111 82t71 94l225 371l-135 229q-94 153 -139 208t-109 91h475q-11 -18 -14 -38t-2 -33t12 -36.5t15.5 -31.5t21.5 -35z" />
    <glyph glyph-name="X.titl" horiz-adv-x="1200" 
d="M555 1079l92 -168l103 168q57 86 57 152q0 34 -14 59h411q-42 -23 -75.5 -50t-58 -57t-38 -51t-31.5 -53l-237 -383l186 -336q93 -174 143.5 -241t133.5 -119h-518q20 33 20 70q0 23 -9.5 51t-16 41t-25.5 49l-125 227l-127 -227q-2 -3 -8.5 -14.5t-8 -15t-7.5 -14.5
t-8 -15.5t-6.5 -14.5t-6.5 -15.5t-5 -14t-4 -15t-2 -14.5t-1 -15q0 -33 18 -63h-414q57 34 98 72.5t60 66t45 72.5l256 444l-160 291q-101 175 -150.5 238.5t-123.5 105.5h520q-18 -34 -18 -65q0 -23 9.5 -51.5t17.5 -43.5t28 -51z" />
    <glyph glyph-name="Y.SC" horiz-adv-x="1028" 
d="M846 817l-176 -364v-277q0 -38 2 -59.5t15 -55.5t40 -61h-401q26 27 38.5 61t14.5 55.5t2 59.5v236l-193 366q-16 30 -42.5 82.5t-37.5 72.5t-31 51.5t-40 51.5t-47 39h424q-27 -64 32 -176l113 -225l94 188q41 80 41 154q0 36 -10 59h336q-53 -37 -83 -84t-91 -174z" />
    <glyph glyph-name="Y.titl" horiz-adv-x="1124" 
d="M924 987l-199 -426v-348q0 -48 2 -73.5t17.5 -65.5t46.5 -74h-439q31 34 46.5 74t17.5 65.5t2 73.5v295l-213 438q-17 34 -47 96.5t-42 85t-34.5 59t-45 59t-52.5 44.5h460q-12 -27 -12 -57q0 -56 49 -156l131 -268l107 231q45 95 45 179q0 37 -12 71h368
q-41 -33 -73 -77t-50.5 -80t-72.5 -146z" />
    <glyph glyph-name="Ycaron.SC" horiz-adv-x="1226" 
d="M897 817l-176 -364v-277q0 -38 2 -59.5t15 -55.5t40 -61h-401q26 27 38.5 61t14.5 55.5t2 59.5v236l-192 366q-15 28 -36.5 70.5t-31.5 62t-27 48.5t-30.5 45.5t-32 35.5t-41.5 35h424q-13 -23 -9 -56t13.5 -58.5t28.5 -61.5l112 -225l95 188q40 78 40 154q0 36 -10 59
h336q-53 -37 -83 -84t-91 -174zM326 1591l252 -139l249 139l62 -114l-311 -303l-312 303z" />
    <glyph glyph-name="Ydieresis.SC" horiz-adv-x="1028" 
d="M492 1366q0 -77 -50.5 -133.5t-126.5 -56.5t-125 56.5t-49 133.5q0 82 49 139.5t125 57.5q77 0 127 -58t50 -139zM905 1366q0 -77 -50 -133.5t-126 -56.5q-73 0 -122.5 56.5t-49.5 133.5q0 81 49 139t123 58q76 0 126 -58t50 -139zM846 817l-176 -364v-277q0 -38 2 -59.5
t15 -55.5t40 -61h-401q26 27 38.5 61t14.5 55.5t2 59.5v236l-193 366q-16 30 -42.5 82.5t-37.5 72.5t-31 51.5t-40 51.5t-47 39h424q-27 -64 32 -176l113 -225l94 188q41 80 41 154q0 36 -10 59h336q-53 -37 -83 -84t-91 -174z" />
    <glyph glyph-name="Z.SC" horiz-adv-x="894" 
d="M72 1075h729l-371 -864h74q53 0 75.5 0.5t72 5.5t80.5 15.5t72 32t75 52.5l-117 -317h-422v-2l-303 2l385 903h-182q-28 0 -43 -1.5t-39.5 -8t-45 -23t-40.5 -43.5v248z" />
    <glyph glyph-name="Z.titl" horiz-adv-x="972" 
d="M72 1290h805l-426 -1059h102q47 0 68.5 0.5t65.5 3t72.5 10t66.5 19t71.5 32t65.5 48.5l-127 -344h-480v-2l-325 2l440 1100h-209q-32 0 -49 -1.5t-44.5 -9.5t-51 -27.5t-45.5 -51.5v280z" />
    <glyph glyph-name="Zacute.SC" horiz-adv-x="894" 
d="M72 1075h729l-371 -864h74q53 0 75.5 0.5t72 5.5t80.5 15.5t72 32t75 52.5l-117 -317h-422v-2l-303 2l385 903h-182q-28 0 -43 -1.5t-39.5 -8t-45 -23t-40.5 -43.5v248zM813 1378l-471 -194l-63 112l413 303z" />
    <glyph glyph-name="Zcaron.SC" horiz-adv-x="894" 
d="M72 1075h729l-371 -864h74q53 0 75.5 0.5t72 5.5t80.5 15.5t72 32t75 52.5l-117 -317h-422v-2l-303 2l385 903h-182q-28 0 -43 -1.5t-39.5 -8t-45 -23t-40.5 -43.5v248zM147 1591l252 -139l250 139l62 -114l-312 -303l-311 303z" />
    <glyph glyph-name="Zdotaccent.SC" horiz-adv-x="894" 
d="M575 1378q0 -77 -50 -133.5t-126 -56.5t-125 56.5t-49 133.5q0 82 49 139.5t125 57.5t126 -58t50 -139zM72 1075h729l-371 -864h74q53 0 75.5 0.5t72 5.5t80.5 15.5t72 32t75 52.5l-117 -317h-422v-2l-303 2l385 903h-182q-28 0 -43 -1.5t-39.5 -8t-45 -23t-40.5 -43.5
v248z" />
    <glyph glyph-name="a.ital" horiz-adv-x="985" 
d="M866 563v-327q0 -39 1.5 -60.5t9.5 -55t27.5 -62.5t51.5 -58h-352l-31 82q-79 -102 -213 -102q-142 0 -223.5 105.5t-81.5 305.5v12q0 201 81.5 308.5t223.5 107.5q123 0 205 -92v72h391q-32 -29 -51.5 -58.5t-27.5 -63t-9.5 -55t-1.5 -59.5zM565 227v342q-47 35 -86 35
q-104 0 -104 -198v-17q0 -194 104 -194q43 0 86 32z" />
    <glyph glyph-name="a.sm" horiz-adv-x="702" 
d="M360 389v4q0 27 -41 27q-53 0 -115.5 -35t-99.5 -72v260q9 -24 31 -24q1 0 69 12t130 12q148 0 211 -62.5t63 -182.5v-162q0 -29 1 -43t6 -38.5t19 -44.5t36 -40h-279l-22 53q-35 -67 -150 -67q-168 0 -168 139q0 56 32 94.5t77.5 57t90.5 32.5t77 33t32 47zM332 123
q24 0 28 55v58q-8 -7 -21.5 -17t-20 -15t-12 -15.5t-5.5 -24.5q0 -18 11 -29.5t20 -11.5z" />
    <glyph glyph-name="ampersand.2" horiz-adv-x="1406" 
d="M438 1051q0 -100 53 -176t134 -76h252v4l229 239h74v-243h157v-181h-157v-323q0 -71 19.5 -95t68.5 -24q44 0 92 19l-47 -187q-52 -28 -152 -28q-190 0 -254 131q-61 -58 -162.5 -94.5t-224.5 -36.5q-206 0 -326 115t-120 300q0 132 62.5 219t160.5 134
q-86 52 -140.5 134t-54.5 185q0 73 28.5 141t81.5 123.5t137.5 89t187.5 33.5q61 0 111.5 -12t77 -26t54 -26t47.5 -12q17 0 33 9.5t23 9.5v-336q-52 69 -126 122.5t-151 53.5q-69 0 -118.5 -47.5t-49.5 -138.5zM580 219q88 0 165.5 44t131.5 130v225h-252
q-116 0 -165.5 -52.5t-49.5 -149.5q0 -96 46.5 -146.5t123.5 -50.5z" />
    <glyph glyph-name="braceleft.tab" 
d="M98 494q36 13 69 40t64 69t49.5 106t18.5 141v70q0 81 6.5 144.5t22.5 114.5t36.5 88t55 66t70 48t90.5 34.5t108 25t129 19.5q-47 -18 -83 -64.5t-57 -110.5t-31.5 -136.5t-10.5 -149.5v-71q0 -349 -277 -426q131 -37 204 -153.5t73 -289.5v-67q0 -206 43.5 -313
t138.5 -152q-97 10 -163.5 24t-128 39.5t-99.5 63t-67.5 95t-43 136t-16.5 185.5l-2 69q-3 101 -21 161.5t-58.5 104.5t-119.5 89z" />
    <glyph glyph-name="braceright.tab" 
d="M825 494q-118 -65 -158 -136.5t-40 -218.5v-69q0 -106 -13 -185.5t-43.5 -136.5t-70 -95t-102 -63.5t-129.5 -39t-163 -23.5q96 45 138.5 151t42.5 314v67q0 173 72.5 289.5t203.5 153.5q-130 37 -202 142.5t-72 283.5v71q0 105 -17.5 197.5t-60.5 166.5t-105 97
q76 -10 128.5 -19.5t106.5 -24.5t89 -34.5t69.5 -48t54.5 -65.5t37 -88t24.5 -115t9.5 -145l2 -70q4 -148 62 -237.5t136 -118.5z" />
    <glyph glyph-name="bracketleft.tab" 
d="M211 -430v1864h598v-236q-58 31 -231 31h-50q-2 -29 -2 -88v-1278q0 -59 2 -88h50q177 0 231 30v-235h-598z" />
    <glyph glyph-name="bracketright.tab" 
d="M711 1434v-1864h-598v235q56 -30 231 -30h49q2 29 2 88v1278q0 59 -2 88h-49q-173 0 -231 -31v236h598z" />
    <glyph glyph-name="cent.tab" horiz-adv-x="923" 
d="M645 -170h-235v168q-148 35 -226 136.5t-78 260.5q0 163 80.5 268.5t223.5 141.5v188h235v-184q19 -5 39 -12.5t31.5 -11t21.5 -3.5q15 0 30.5 13.5t16.5 13.5v-317q-4 4 -24 28t-32 35.5t-34 28.5t-47 24.5t-55 7.5q-76 0 -120 -55t-44 -153q0 -209 205 -209
q102 0 203 39l-68 -228q-38 -14 -123 -26v-154z" />
    <glyph glyph-name="colon.tab" 
d="M651 170q0 -77 -53.5 -133.5t-136.5 -56.5t-137 56.5t-54 133.5q0 81 55 139t136 58t135.5 -58t54.5 -139zM651 795q0 -77 -54 -134t-136 -57q-83 0 -137 57t-54 134q0 81 55 138.5t136 57.5t135.5 -57.5t54.5 -138.5z" />
    <glyph glyph-name="comma.tab" 
d="M651 143q0 -142 -88 -249.5t-248 -192.5l-63 94q97 41 145.5 94t48.5 99q0 32 -28 56t-61 38t-61 44.5t-28 74.5q0 68 49.5 117t126.5 49q94 0 150.5 -58.5t56.5 -165.5z" />
    <glyph glyph-name="divide.tab" horiz-adv-x="923" 
d="M639 170q0 -77 -50 -133.5t-126 -56.5t-127 56.5t-51 133.5q0 81 50.5 139t127.5 58q76 0 126 -58t50 -139zM639 893q0 -80 -50 -136.5t-126 -56.5q-77 0 -127.5 56.5t-50.5 136.5q0 81 50.5 137.5t127.5 56.5t126.5 -56.5t49.5 -137.5zM842 418h-760v223h760v-223z" />
    <glyph glyph-name="dollar.tab" horiz-adv-x="919" 
d="M84 4v549q67 -148 164 -235t201 -87q59 0 97 32.5t38 90.5q0 45 -27 85t-70 73t-95.5 67.5t-105 78t-95.5 94.5t-70 126.5t-27 165.5q0 140 58 237t163 140v226h267v-201q49 -7 88.5 -24t63 -30.5t38.5 -13.5q14 0 27 5t21 9l7 5v-453q-36 64 -84 124.5t-115 109.5
t-126 49q-47 0 -79 -31.5t-32 -89.5q0 -49 26.5 -90t69 -72.5t94 -63.5t103.5 -73.5t94.5 -92t69 -128t26.5 -174.5q0 -171 -75.5 -280t-216.5 -140v-189h-267v197q-31 6 -67 17t-59.5 17.5t-36.5 6.5q-19 0 -34.5 -9.5t-24 -18.5t-9.5 -9z" />
    <glyph glyph-name="e.ital" horiz-adv-x="843" 
d="M406 332h-27q13 -77 55 -116.5t139 -39.5q114 0 236 39l-64 -205q-82 -30 -296 -30q-184 0 -290 107.5t-106 307.5q0 199 110 311.5t286 112.5q80 0 144.5 -23t103 -61.5t59 -85t20.5 -96.5q0 -221 -370 -221zM444 641q-65 0 -71 -168h35q110 0 110 86q0 36 -17.5 59
t-56.5 23z" />
    <glyph glyph-name="eight.denominator" horiz-adv-x="786" 
d="M723 299q0 -146 -90.5 -230.5t-239.5 -84.5q-145 0 -237.5 85t-92.5 228q0 95 36.5 158.5t90.5 81.5q-71 62 -71 198q0 134 79.5 207.5t194.5 73.5q116 0 195.5 -73.5t79.5 -207.5q0 -139 -74 -198q57 -18 93 -80.5t36 -157.5zM483 301q0 64 -23.5 103.5t-66.5 39.5
q-42 0 -67 -40.5t-25 -102.5t26 -100.5t68 -38.5t65 38.5t23 100.5zM332 725q0 -59 19.5 -86t43.5 -27t42 26.5t18 86.5t-17.5 84.5t-42.5 24.5q-24 0 -43.5 -25t-19.5 -84z" />
    <glyph glyph-name="eight.numerator" horiz-adv-x="761" 
d="M711 709q0 -146 -90.5 -231t-239.5 -85q-145 0 -237.5 85.5t-92.5 228.5q0 95 36.5 158t90.5 81q-72 63 -72 199q0 134 80 207t195 73q116 0 195 -73t79 -207q0 -141 -73 -199q57 -18 93 -80.5t36 -156.5zM471 711q0 64 -23.5 103.5t-66.5 39.5q-42 0 -67 -40.5
t-25 -102.5t26 -101t68 -39t65 39t23 101zM319 1135q0 -59 20 -86t44 -27t41.5 26.5t17.5 86.5q0 108 -59 108q-24 0 -44 -24.5t-20 -83.5z" />
    <glyph glyph-name="eight.sm" horiz-adv-x="786" 
d="M723 299q0 -146 -90.5 -230.5t-239.5 -84.5q-145 0 -237.5 85t-92.5 228q0 95 36.5 158.5t90.5 81.5q-71 62 -71 198q0 134 79.5 207.5t194.5 73.5q116 0 195.5 -73.5t79.5 -207.5q0 -139 -74 -198q57 -18 93 -80.5t36 -157.5zM483 301q0 64 -23.5 103.5t-66.5 39.5
q-42 0 -67 -40.5t-25 -102.5t26 -100.5t68 -38.5t65 38.5t23 100.5zM332 725q0 -59 19.5 -86t43.5 -27t42 26.5t18 86.5t-17.5 84.5t-42.5 24.5q-24 0 -43.5 -25t-19.5 -84z" />
    <glyph glyph-name="eight.tab" horiz-adv-x="923" 
d="M879 422q0 -203 -115.5 -324t-302.5 -121t-303.5 120.5t-116.5 322.5q0 135 46.5 227.5t115.5 118.5q-107 87 -107 291q0 184 106 290.5t259 106.5q99 0 180.5 -45t132.5 -136.5t51 -215.5q0 -205 -106 -291q70 -26 115 -117.5t45 -226.5zM575 424q0 102 -29.5 162.5
t-84.5 60.5q-56 0 -86.5 -61t-30.5 -162q0 -99 31.5 -157t87.5 -58q54 0 83 57.5t29 157.5zM371 1055q0 -94 25.5 -139.5t66.5 -45.5q40 0 64 45t24 140q0 186 -88 186q-42 0 -67 -44.5t-25 -141.5z" />
    <glyph glyph-name="eightoldstyle.tab" horiz-adv-x="923" 
d="M877 375q0 -180 -114.5 -287.5t-301.5 -107.5q-186 0 -300 107.5t-114 287.5q0 123 50 207t128 108q-110 78 -110 266q0 164 99.5 258.5t246.5 94.5q149 0 248.5 -94.5t99.5 -258.5q0 -187 -111 -266q77 -24 128 -108t51 -207zM608 381q0 94 -39.5 151.5t-107.5 57.5
q-67 0 -106.5 -58t-39.5 -151q0 -92 39 -147.5t107 -55.5t107.5 55.5t39.5 147.5zM362 952q0 -88 27.5 -131t71.5 -43t71 43t27 131t-27 130t-71 42t-71.5 -42t-27.5 -130z" />
    <glyph glyph-name="equal.tab" 
d="M838 485h-754v224h754v-224zM838 176h-754v223h754v-223z" />
    <glyph glyph-name="f.ital" horiz-adv-x="677" 
d="M45 618v181h105v278q0 99 28.5 174.5t77 118t106 63.5t121.5 21q49 0 82 -11t50.5 -22.5t27.5 -11.5q14 0 28 13.5t15 13.5v-326q-44 64 -76 90.5t-71 26.5q-88 0 -88 -160v-268h198v-181h-198v-692q0 -182 -79.5 -279.5t-215.5 -97.5q-57 0 -117 17.5t-62 17.5
q-8 0 -16.5 -5.5t-9.5 -12.5v346q64 -156 127 -156q25 0 48.5 29t23.5 94v739h-105z" />
    <glyph glyph-name="five.denominator" horiz-adv-x="733" 
d="M90 473l84 531h440v-277q-36 68 -145 68h-125l-16 -127q171 -6 253.5 -96.5t82.5 -239.5q0 -156 -87.5 -251t-244.5 -95q-62 0 -136.5 15t-78.5 15q-18 0 -29 -14l-22 299q31 -52 82 -87.5t106 -35.5q62 0 96.5 33t34.5 94q0 29 -6 51t-24.5 45t-50 38t-86 24.5
t-128.5 9.5z" />
    <glyph glyph-name="five.numerator" horiz-adv-x="708" 
d="M76 883l84 530h440v-276q-35 67 -145 67h-125l-17 -127q171 -6 253.5 -96.5t82.5 -239.5q0 -156 -87.5 -251t-244.5 -95q-62 0 -136.5 15.5t-78.5 15.5q-17 0 -28 -14l-23 299q31 -52 82.5 -87.5t106.5 -35.5q62 0 96.5 33t34.5 94q0 29 -6 51t-24.5 45t-50 38t-86 24.5
t-128.5 9.5z" />
    <glyph glyph-name="five.sm" horiz-adv-x="733" 
d="M90 473l84 531h440v-277q-36 68 -145 68h-125l-16 -127q171 -6 253.5 -96.5t82.5 -239.5q0 -156 -87.5 -251t-244.5 -95q-62 0 -136.5 15t-78.5 15q-18 0 -29 -14l-22 299q31 -52 82 -87.5t106 -35.5q62 0 96.5 33t34.5 94q0 29 -6 51t-24.5 45t-50 38t-86 24.5
t-128.5 9.5z" />
    <glyph glyph-name="five.tab" 
d="M94 698l109 736h590v-359q-50 94 -211 94h-191l-29 -229q248 0 372 -128t124 -349q0 -217 -119.5 -350t-330.5 -133q-82 0 -180 21.5t-105 21.5q-18 0 -37 -19l-33 385q46 -75 116.5 -122.5t147.5 -47.5q95 0 149 55.5t54 157.5q0 49 -10.5 86.5t-38.5 72.5t-75 57.5
t-123 36t-179 13.5z" />
    <glyph glyph-name="fiveoldstyle.tab" 
d="M106 410l150 665h524v-327q-55 86 -215 86h-192l-45 -201h22q244 0 368 -116t124 -314q0 -196 -117 -316t-322 -120q-74 0 -152.5 19t-103.5 19q-31 0 -53 -16l-33 352q46 -69 115 -111t146 -42q90 0 148 49t58 137q0 42 -10.5 75t-39 64t-75 51.5t-122 33t-175.5 12.5z
" />
    <glyph glyph-name="florin.tab" 
d="M197 618v181h106v258q0 99 29 174.5t78 118t106 63.5t119 21q46 0 102 -12.5t68 -12.5q13 0 26 5t19 5v-291q-48 53 -80 76t-70 23q-42 0 -68 -34.5t-26 -127.5v-266h209v-181h-209v-663q0 -81 -19.5 -146t-51.5 -107.5t-75.5 -71t-89 -40.5t-94.5 -12q-47 0 -104.5 12.5
t-67.5 12.5t-23 -5.5t-20 -5.5v289q45 -51 77 -73.5t71 -22.5q43 0 68.5 34t25.5 128v671h-106z" />
    <glyph glyph-name="four.001" horiz-adv-x="1116" 
d="M795 1278l-535 -735h260v325h328v-313q95 17 159.5 51.5t92.5 69.5l-105 -410q-83 20 -147 25v-55q0 -53 2.5 -81.5t19 -73t50.5 -81.5h-471q34 37 50.5 81.5t18.5 72.5t2 82v59h-489l8 240l514 919z" />
    <glyph glyph-name="four.denominator" horiz-adv-x="802" 
d="M592 1004v-658q70 15 114.5 40.5t59.5 47.5l-84 -287q-43 11 -90 17q0 -37 1.5 -57t13 -50.5t34.5 -56.5h-367q33 37 41.5 74.5t8.5 91.5v2h-304l17 158l422 678h133zM195 334h129v203z" />
    <glyph glyph-name="four.numerator" horiz-adv-x="780" 
d="M592 1413v-657q70 15 114.5 40.5t59.5 47.5l-84 -287q-36 9 -90 16q0 -36 1.5 -56t13 -50.5t34.5 -56.5h-367q23 26 34.5 56.5t13.5 51.5t2 57v3h-304l17 157l422 678h133zM195 743h129v203z" />
    <glyph glyph-name="four.sm" horiz-adv-x="802" 
d="M592 1004v-658q70 15 114.5 40.5t59.5 47.5l-84 -287q-43 11 -90 17q0 -37 1.5 -57t13 -50.5t34.5 -56.5h-367q33 37 41.5 74.5t8.5 91.5v2h-304l17 158l422 678h133zM195 334h129v203z" />
    <glyph glyph-name="four.tab" 
d="M709 1434v-957q92 19 151.5 53t81.5 68l-104 -371q-70 18 -129 23v-14q0 -54 2 -82t17.5 -72.5t47.5 -81.5h-459q31 37 46.5 81.5t17.5 73t2 81.5v20h-403l20 201l545 977h164zM178 465h205v381z" />
    <glyph glyph-name="fouroldstyle.tab" horiz-adv-x="919" 
d="M715 1063v-840q82 17 135 48t78 61l-94 -357q-44 14 -119 21v-10q0 -39 1 -56t6 -48.5t18.5 -57t35.5 -51.5h-424q23 26 36.5 52t18.5 56.5t6 49t1 55.5v14h-414l2 184l559 879h154zM195 211h219v350z" />
    <glyph glyph-name="g.ital" horiz-adv-x="966" 
d="M362 -244q93 0 148 68t55 215v33q-79 -92 -205 -92q-142 0 -223.5 105.5t-81.5 305.5v12q0 201 81.5 308.5t223.5 107.5q123 0 205 -92v72h391q-32 -29 -51.5 -58.5t-27.5 -63t-9.5 -55t-1.5 -59.5v-475q0 -272 -120.5 -405.5t-337.5 -133.5q-64 0 -120.5 11.5
t-91.5 22.5t-46 11q-35 0 -41 -16v356q46 -85 114.5 -131.5t138.5 -46.5zM565 227v342q-47 35 -86 35q-104 0 -104 -198v-17q0 -194 104 -194q43 0 86 32z" />
    <glyph glyph-name="greater.tab" 
d="M823 430l-411 -338h-308l388 338l-388 340h308z" />
    <glyph glyph-name="less.tab" 
d="M100 457l410 338h307l-385 -338l385 -340h-307z" />
    <glyph glyph-name="minus.tab" 
d="M817 440h-713v224h713v-224z" />
    <glyph glyph-name="multiply.tab" horiz-adv-x="919" 
d="M809 748l-195 -197l195 -195l-152 -157l-198 198l-197 -198l-151 157l194 195l-194 197l151 157l197 -198l198 198z" />
    <glyph glyph-name="nine.denominator" horiz-adv-x="806" 
d="M272 211q48 0 88 32t66 124q-50 -29 -107 -29q-117 0 -179 96t-62 248q0 336 328 336q177 0 252 -103.5t75 -334.5q0 -155 -32 -271.5t-90 -186t-132.5 -103t-165.5 -33.5q-37 0 -71.5 6.5t-55 13t-24.5 6.5q-9 0 -21 -13t-14 -13l-41 301q93 -76 186 -76zM457 668
q-1 59 -8.5 93t-17 44t-23.5 10q-27 0 -42.5 -31t-15.5 -114q0 -58 8.5 -96.5t20.5 -53t27 -14.5q23 0 35 32.5t16 110.5v19z" />
    </font>
</defs>
</svg>
